<svg xmlns="http://www.w3.org/2000/svg" width="100" height="100" viewBox="0 0 100 100"><g fill="none" fill-rule="evenodd"><path fill="#fff" d="M0 0h100v100H0z"/><path fill="#232323" d="M54.565 64.377c-2.016 2.04-4.541 3.061-7.577 3.061-2.986 0-5.462-.995-7.428-2.986-1.966-1.992-2.949-4.555-2.949-7.691 0-2.987 1.008-5.463 3.023-7.43 2.016-1.966 4.492-2.949 7.428-2.949 1.991 0 3.795.46 5.413 1.382 1.617.92 2.874 2.177 3.77 3.77.895 1.593 1.343 3.335 1.343 5.227 0 3.036-1.008 5.575-3.023 7.616zm2.351-41.962v17.322c-1.742-1.742-3.595-2.999-5.561-3.77-1.966-.772-4.168-1.158-6.607-1.158-3.932 0-7.465.97-10.6 2.912-3.136 1.941-5.575 4.592-7.316 7.952-1.742 3.36-2.613 7.08-2.613 11.163 0 4.18.858 7.952 2.575 11.311 1.717 3.36 4.156 6.011 7.316 7.952 3.16 1.942 6.781 2.912 10.862 2.912 5.922 0 10.053-1.94 12.392-5.824h.15v5.31h11.795v-58.77z"/></g></svg>