<svg xmlns="http://www.w3.org/2000/svg" width="100" height="100" viewBox="0 0 100 100"><path d="M63.572 91.365c-2.8-3.908-7.168-10.01-9.708-13.559-2.593-3.625-4.703-6.455-4.814-6.456-.115-.001-4.195 5.484-9.653 12.975-5.2 7.138-9.498 12.977-9.55 12.977-.149 0-18.748-13.1-18.796-13.238-.023-.067 4.181-6.24 9.344-13.717 5.162-7.477 9.386-13.713 9.386-13.857 0-.232-1.673-.82-14.795-5.194A6692.687 6692.687 0 01.015 46.295c-.136-.053.639-2.645 3.296-11.03 1.911-6.03 3.517-11.01 3.57-11.071.053-.06 7.125 2.203 15.716 5.029 8.59 2.826 15.691 5.138 15.779 5.138.088 0 .187-.131.22-.292.034-.16.109-7.475.166-16.254.057-8.78.15-16.036.208-16.125.083-.128 2.496-.162 11.355-.16 6.188 0 11.315.045 11.394.097.1.066.27 4.893.553 15.733.467 17.8.477 18.04.761 18.04.11 0 6.919-2.28 15.13-5.065 8.211-2.785 14.97-5.02 15.018-4.964.166.187 6.901 22.113 6.818 22.196-.045.045-6.898 2.392-15.229 5.215-11.46 3.884-15.156 5.186-15.187 5.35-.023.122 3.918 6.011 8.929 13.344 4.933 7.22 8.952 13.18 8.93 13.246-.051.151-18.51 13.748-18.665 13.748-.063 0-2.405-3.197-5.205-7.105z"/></svg>