<svg xmlns="http://www.w3.org/2000/svg" width="100" height="100" viewBox="0 0 100 100"><path class="st3" d="M49.996 96.052L68.42 39.385H31.601z" fill="#e24329"/><path class="st4" d="M5.797 39.385L.187 56.601a3.816 3.816 0 001.38 4.264l48.43 35.187z" fill="#fca326"/><path class="st3" d="M5.797 39.385h25.804L20.496 5.257c-.569-1.746-3.046-1.746-3.635 0z" fill="#e24329"/><path class="st4" d="M94.223 39.385l5.59 17.216a3.816 3.816 0 01-1.38 4.264L49.996 96.052z" fill="#fca326"/><path class="st3" d="M94.223 39.385H68.42L79.504 5.257c.569-1.746 3.046-1.746 3.634 0z" fill="#e24329"/><path class="st5" fill="#fc6d26" d="M49.996 96.052L68.42 39.385h25.804zm0 0L5.797 39.385h25.804z"/></svg>