<svg xmlns="http://www.w3.org/2000/svg" width="100" height="100" viewBox="0 0 100 100"><path d="M94.653 59.949c-1.37 7.054-12.28 14.774-24.81 16.27-6.534.78-12.967 1.496-19.826 1.182-11.219-.514-20.07-2.678-20.07-2.678 0 1.092.067 2.132.202 3.105 1.458 11.07 10.978 11.734 19.995 12.043 9.101.312 17.206-2.244 17.206-2.244l.373 8.228s-6.366 3.419-17.706 4.048c-6.254.343-14.019-.158-23.062-2.551C7.34 92.16 3.967 71.252 3.45 50.037c-.157-6.299-.06-12.238-.06-17.205C3.39 11.139 17.603 4.78 17.603 4.78 24.77 1.489 37.068.105 49.852 0h.315c12.784.105 25.09 1.489 32.256 4.78 0 0 14.212 6.359 14.212 28.052 0 0 .179 16.005-1.982 27.117" fill="#3088d4"/><path d="M79.87 34.514v26.267H69.465V35.287c0-5.375-2.261-8.102-6.784-8.102-5 0-7.507 3.235-7.507 9.634v13.955H44.828V36.819c0-6.399-2.507-9.634-7.508-9.634-4.523 0-6.784 2.727-6.784 8.102V60.78H20.13V34.514c0-5.368 1.366-9.634 4.112-12.79 2.831-3.156 6.539-4.774 11.142-4.774 5.325 0 9.358 2.047 12.024 6.14L50 27.437l2.593-4.345c2.665-4.094 6.698-6.141 12.024-6.141 4.602 0 8.31 1.618 11.142 4.774 2.745 3.156 4.112 7.422 4.112 12.79" fill="#fff"/></svg>