<svg xmlns="http://www.w3.org/2000/svg" width="100" height="100" viewBox="0 0 100 100"><path d="M99.642 72.789c-.694-1.89-2.018-2.902-3.525-3.74a8.817 8.817 0 00-.767-.402c-.45-.232-.91-.457-1.367-.695-4.698-2.49-8.367-5.633-10.912-9.358a21.222 21.222 0 01-1.873-3.322c-.217-.62-.207-.973-.05-1.295a2.108 2.108 0 01.6-.626 270.84 270.84 0 012.204-1.441c1.007-.652 1.804-1.168 2.318-1.533 1.929-1.35 3.278-2.782 4.121-4.384a8.73 8.73 0 00.432-7.251c-1.278-3.363-4.454-5.45-8.301-5.45a11.433 11.433 0 00-2.415.255c-.212.046-.424.095-.63.148.035-2.299-.016-4.726-.22-7.115-.726-8.398-3.667-12.8-6.733-16.311A26.827 26.827 0 0065.68 4.76C61.027 2.103 55.751.754 50 .754c-5.75 0-11.001 1.35-15.659 4.006a26.73 26.73 0 00-6.857 5.52c-3.066 3.51-6.007 7.92-6.733 16.31-.204 2.389-.255 4.829-.222 7.116a16.02 16.02 0 00-.629-.148 11.433 11.433 0 00-2.414-.256c-3.85 0-7.031 2.087-8.304 5.45a8.74 8.74 0 00.422 7.258c.846 1.602 2.195 3.036 4.124 4.385.51.357 1.31.874 2.317 1.533.544.352 1.339.868 2.118 1.385a2.274 2.274 0 01.68.682c.163.334.168.695-.074 1.359a21.025 21.025 0 01-1.843 3.252c-2.488 3.641-6.05 6.728-10.598 9.198-2.409 1.278-4.913 2.131-5.97 5.005-.798 2.17-.276 4.638 1.75 6.717a10.125 10.125 0 002.555 1.935 27.683 27.683 0 006.252 2.5 4.129 4.129 0 011.262.566c.738.646.633 1.62 1.617 3.045a7.103 7.103 0 001.85 1.88c2.064 1.426 4.384 1.516 6.842 1.61 2.22.084 4.737.182 7.611 1.13 1.19.393 2.428 1.154 3.86 2.043 3.442 2.116 8.154 5.01 16.038 5.01 7.885 0 12.63-2.91 16.097-5.033 1.423-.873 2.652-1.627 3.81-2.01 2.873-.95 5.39-1.045 7.61-1.13 2.458-.094 4.778-.184 6.843-1.61a7.126 7.126 0 002.105-2.299c.708-1.203.69-2.044 1.354-2.631a3.914 3.914 0 011.185-.542 27.788 27.788 0 006.337-2.524 9.964 9.964 0 002.683-2.1l.025-.031c1.901-2.034 2.379-4.43 1.6-6.546zm-7.008 3.766c-4.274 2.36-7.115 2.108-9.325 3.531-1.878 1.209-.767 3.815-2.131 4.755-1.676 1.157-6.63-.082-13.03 2.031-5.28 1.745-8.647 6.763-18.14 6.763-9.495 0-12.783-5.008-18.149-6.776-6.387-2.113-11.351-.874-13.03-2.031-1.362-.94-.256-3.546-2.13-4.755-2.214-1.423-5.055-1.17-9.327-3.518-2.72-1.502-1.177-2.432-.27-2.872 15.483-7.496 17.953-19.07 18.063-19.928.133-1.04.281-1.858-.863-2.916-1.107-1.022-6.015-4.06-7.377-5.01-2.253-1.574-3.244-3.145-2.514-5.077.511-1.336 1.758-1.84 3.066-1.84a5.698 5.698 0 011.23.139c2.472.536 4.874 1.775 6.262 2.11a2.207 2.207 0 00.51.07c.741 0 1.002-.374.95-1.222-.157-2.706-.54-7.98-.114-12.908.585-6.78 2.77-10.14 5.365-13.112 1.247-1.428 7.106-7.619 18.31-7.619 11.203 0 17.077 6.165 18.324 7.588 2.598 2.972 4.785 6.332 5.365 13.112.427 4.929.059 10.205-.115 12.908-.059.892.21 1.221.95 1.221a2.187 2.187 0 00.511-.069c1.39-.334 3.792-1.573 6.265-2.11a5.698 5.698 0 011.23-.138c1.315 0 2.554.511 3.065 1.84.73 1.931-.255 3.502-2.511 5.076-1.362.95-6.27 3.986-7.377 5.01-1.147 1.058-.996 1.876-.863 2.916.11.871 2.578 12.445 18.063 19.929.915.457 2.458 1.387-.263 2.902z"/></svg>