<svg xmlns="http://www.w3.org/2000/svg" width="100" height="100" viewBox="0 0 100 100"><defs><linearGradient id="a" x2="116.689" x1="116.689" y2="232.875" gradientTransform="matrix(.42895 0 0 .42941 -.032 0)" y1="0" gradientUnits="userSpaceOnUse"><stop stop-color="#111D2E" offset="0"/><stop stop-color="#051839" offset=".212"/><stop stop-color="#0A1B48" offset=".407"/><stop stop-color="#132E62" offset=".581"/><stop stop-color="#144B7E" offset=".738"/><stop stop-color="#136497" offset=".873"/><stop stop-color="#1387B8" offset="1"/></linearGradient></defs><path fill="url(#a)" d="M2.067 64.382C8.244 84.987 27.353 100 49.968 100c27.614 0 50-22.386 50-50s-22.386-50-50-50C23.47 0 1.788 20.613.075 46.678c3.236 5.434 4.499 8.794 1.992 17.704z"/><path fill="#fff" d="M47.392 37.477c0 .084 0 .168.005.247L35.162 55.498a13.708 13.708 0 00-5.857 1.034c-.831.34-1.61.756-2.341 1.236L.097 46.708s-.621 10.228 1.97 17.85l18.992 7.837c.954 4.262 3.878 8 8.191 9.798 7.057 2.949 15.194-.412 18.13-7.472a13.926 13.926 0 001.068-5.712l17.507-12.511c.141.004.287.008.429.008 10.476 0 18.991-8.54 18.991-19.029S76.86 18.455 66.384 18.455c-10.472 0-18.992 8.533-18.992 19.022zm-2.935 36.017c-2.272 5.454-8.54 8.042-13.99 5.772a10.635 10.635 0 01-5.506-5.253l6.182 2.562a7.875 7.875 0 0010.3-4.249c1.675-4.021-.226-8.64-4.242-10.313l-6.391-2.648c2.466-.936 5.27-.97 7.888.12a10.619 10.619 0 015.776 5.811 10.663 10.663 0 01-.017 8.198m21.927-23.34c-6.974 0-12.652-5.686-12.652-12.677 0-6.985 5.678-12.673 12.652-12.673 6.978 0 12.657 5.688 12.657 12.673 0 6.99-5.679 12.678-12.657 12.678m-9.48-12.697c0-5.259 4.257-9.524 9.501-9.524 5.25 0 9.507 4.265 9.507 9.524 0 5.26-4.258 9.52-9.507 9.52-5.244 0-9.502-4.26-9.502-9.52z"/></svg>