<svg xmlns="http://www.w3.org/2000/svg" width="100" height="100" viewBox="0 0 100 100"><g clip-rule="evenodd" fill="#f07355" fill-rule="evenodd"><path d="M87.698 2.27C83.485 11.266 75.69 12.922 75.69 12.922c-7.793 1.983-10.52 5.01-10.52 5.01-7.794 7.871-1.648 17.419-1.648 17.419 16.828-3.844 22.973-17.747 22.973-17.747-.753 9.344-20.776 20.364-20.776 20.364 6.634 6.522 12.963 5.725 17.134 3.23 5.535-3.312 8.2-10.57 8.2-10.57C96.428 14.516 87.699 2.27 87.699 2.27zM60.105 29.503c.183 2.76 3.215 51.932-22.69 61.787 0 0 2.381.45 5.068.327 0 0 32.965-20.895 17.846-61.439 0 0-.062-.245-.224-.675zM46.308 0c8.282 13.985 12.779 26.518 13.797 29.503v-.123C58.07 7.83 46.308 0 46.308 0z"/><path d="M68.61 64.322c0 4.968-1.18 9.589-3.54 13.883-2.36 4.293-5.536 7.605-9.565 9.936-4.008 2.33-8.424 3.496-13.206 3.496-4.802 0-9.197-1.165-13.206-3.496-4.009-2.33-7.203-5.643-9.564-9.936-2.36-4.294-3.54-8.914-3.54-13.883 0-7.688 2.584-14.25 7.752-19.69 5.17-5.417 11.355-8.137 18.558-8.137 3.419 0 6.614.634 9.585 1.861.305-3.148 1.404-6.072 2.604-8.465-3.744-1.37-7.793-2.044-12.168-2.044-10.399 0-19.006 3.844-25.823 11.551-6.186 6.972-9.3 15.232-9.3 24.72 0 9.588 3.276 17.971 9.808 25.127C23.558 96.422 31.983 100 42.3 100c10.275 0 18.7-3.578 25.232-10.755 6.552-7.176 9.808-15.56 9.808-25.128 0-5.132-.895-9.896-2.686-14.27a26.022 26.022 0 01-8.221 3.332c1.465 3.394 2.177 7.116 2.177 11.143z"/></g></svg>