<svg xmlns="http://www.w3.org/2000/svg" width="100" height="100" viewBox="0 0 100 100"><path d="M0 47.917c0-22.588 0-33.883 7.017-40.9C14.034 0 25.33 0 47.917 0h4.166c22.588 0 33.883 0 40.9 7.017C100 14.034 100 25.33 100 47.917v4.166c0 22.588 0 33.883-7.017 40.9C85.966 100 74.67 100 52.083 100h-4.166c-22.588 0-33.883 0-40.9-7.017C0 85.966 0 74.67 0 52.083z" fill="#2787f5"/><path clip-rule="evenodd" d="M27.085 31.25h-7.293c-2.084 0-2.5.98-2.5 2.062 0 1.932 2.472 11.51 11.512 24.18 6.027 8.651 14.518 13.341 22.245 13.341 4.636 0 5.21-1.041 5.21-2.836v-6.539c0-2.083.439-2.499 1.907-2.499 1.082 0 2.936.541 7.263 4.712 4.945 4.944 5.76 7.162 8.542 7.162h7.293c2.084 0 3.126-1.041 2.525-3.097-.658-2.049-3.019-5.021-6.152-8.545-1.7-2.009-4.25-4.171-5.022-5.253-1.082-1.39-.773-2.009 0-3.244 0 0 8.886-12.515 9.813-16.764.464-1.545 0-2.68-2.206-2.68H72.93c-1.854 0-2.71.98-3.173 2.062 0 0-3.709 9.038-8.963 14.91-1.7 1.699-2.473 2.24-3.4 2.24-.463 0-1.134-.541-1.134-2.086V33.93c0-1.854-.539-2.68-2.084-2.68H42.714c-1.159 0-1.856.86-1.856 1.676 0 1.758 2.627 2.163 2.898 7.107V50.77c0 2.354-.426 2.78-1.353 2.78-2.472 0-8.487-9.078-12.054-19.466-.699-2.02-1.4-2.835-3.264-2.835z" fill="#fff" fill-rule="evenodd"/></svg>