<svg xmlns="http://www.w3.org/2000/svg" width="100" height="100" viewBox="0 0 100 100"><defs><linearGradient x1="0" y1="0" x2="1" y2="0" gradientUnits="userSpaceOnUse" gradientTransform="matrix(0 584.04474 584.04474 0 642 241.839)" spreadMethod="pad" id="a"><stop offset="0" stop-color="#25cf43"/><stop offset="1" stop-color="#61fd7d"/></linearGradient><clipPath clipPathUnits="userSpaceOnUse" id="b"><path d="M0 1066.861h1280.244V0H0z"/></clipPath></defs><path d="M482.751 825.596c-13.025-.463-29.812-1.482-37.442-3.022-11.647-2.352-22.646-5.918-31.793-10.58-10.747-5.477-20.379-12.465-28.696-20.769-8.336-8.32-15.352-17.961-20.851-28.724-4.649-9.098-8.213-20.03-10.575-31.611-1.571-7.707-2.61-24.619-3.081-37.728a525.205 525.205 0 01-.289-15.49l-.046-287.576c0-3.185.097-10.121.287-15.485.463-13.024 1.482-29.811 3.023-37.441 2.351-11.646 5.918-22.646 10.579-31.793 5.478-10.748 12.465-20.378 20.769-28.696 8.32-8.335 17.962-15.351 28.724-20.851 9.099-4.648 20.031-8.213 31.611-10.575 7.707-1.571 24.62-2.61 37.729-3.08 5.356-.192 12.291-.29 15.489-.29l287.576-.046c3.186 0 10.122.096 15.484.287 13.025.464 29.813 1.482 37.442 3.023 11.647 2.352 22.647 5.919 31.793 10.579 10.747 5.478 20.379 12.466 28.696 20.769 8.335 8.321 15.351 17.961 20.851 28.724 4.648 9.099 8.214 20.03 10.575 31.611 1.572 7.707 2.61 24.621 3.081 37.729.192 5.357.289 12.291.289 15.489l.047 287.576c0 3.186-.097 10.122-.288 15.485-.464 13.024-1.482 29.811-3.023 37.441-2.351 11.647-5.918 22.646-10.579 31.793-5.477 10.748-12.466 20.379-20.768 28.697-8.321 8.334-17.963 15.351-28.725 20.85-9.099 4.649-20.03 8.214-31.611 10.575-7.707 1.571-24.62 2.61-37.728 3.08-5.358.193-12.292.29-15.49.29l-287.576.046a524.82 524.82 0 01-15.484-.287" fill="url(#a)" transform="matrix(.17122 0 0 -.17122 -59.923 141.408)"/><g clip-path="url(#b)" transform="matrix(.17122 0 0 -.17122 -59.923 141.408)"><path d="M743.243 495.42c-5.202 2.604-30.777 15.185-35.546 16.92-4.768 1.735-8.235 2.603-11.703-2.603s-13.437-16.92-16.472-20.39c-3.034-3.47-6.068-3.905-11.27-1.301-5.202 2.602-21.963 8.094-41.832 25.81-15.464 13.789-25.904 30.82-28.939 36.026-3.034 5.206-.323 8.02 2.282 10.613 2.34 2.329 5.201 6.073 7.802 9.11 2.601 3.037 3.468 5.206 5.202 8.676 1.734 3.47.867 6.508-.434 9.11-1.3 2.604-11.703 28.2-16.038 38.612-4.222 10.14-8.51 8.768-11.704 8.927-3.03.15-6.502.183-9.97.183-3.468 0-9.103-1.302-13.872-6.507-4.768-5.206-18.206-17.788-18.206-43.383 0-25.596 18.64-50.324 21.241-53.795 2.601-3.471 36.681-55.997 88.863-78.522 12.411-5.358 22.101-8.557 29.655-10.955 12.462-3.957 23.802-3.4 32.765-2.06 9.994 1.493 30.777 12.58 35.112 24.728 4.334 12.147 4.334 22.559 3.034 24.728-1.3 2.169-4.768 3.47-9.97 6.074m-94.915-129.554h-.07c-31.05.012-61.504 8.35-88.07 24.11l-6.32 3.75-65.49-17.174 17.48 63.833-4.115 6.544c-17.32 27.542-26.469 59.375-26.456 92.06.038 95.376 77.663 172.97 173.11 172.97 46.218-.017 89.664-18.034 122.334-50.73 32.67-32.697 50.652-76.16 50.634-122.38-.039-95.383-77.663-172.983-173.037-172.983m147.268 320.208c-39.306 39.339-91.578 61.014-147.27 61.036-114.75 0-208.143-93.357-208.189-208.108-.015-36.681 9.571-72.487 27.79-104.047L438.39 327.108l110.364 28.94c30.408-16.58 64.644-25.317 99.488-25.332h.088c114.74 0 208.14 93.369 208.187 208.12.021 55.61-21.613 107.9-60.92 147.239" fill="#fff" fill-rule="evenodd"/></g></svg>