<svg xmlns="http://www.w3.org/2000/svg" width="100" height="100" viewBox="0 0 100 100"><defs><clipPath clipPathUnits="userSpaceOnUse" id="a"><path d="M0 192h192V0H0z"/></clipPath></defs><g clip-path="url(#a)" transform="matrix(.56818 0 0 -.56818 -4.546 104.546)"><path d="M180.322 138.637c-2.024 7.622-7.988 13.624-15.56 15.661C151.036 158 96 158 96 158s-55.037 0-68.762-3.702c-7.573-2.037-13.537-8.039-15.56-15.66C8 124.822 8 96 8 96s0-28.822 3.677-42.637c2.024-7.622 7.988-13.624 15.561-15.662 13.725-3.7 68.762-3.7 68.762-3.7s55.037 0 68.761 3.7c7.573 2.038 13.537 8.04 15.561 15.662C184 67.178 184 96 184 96s0 28.823-3.678 42.637" fill="#ee3123"/><path d="M78 69.831v52.338L124 96z" fill="#fff"/></g></svg>