<svg xmlns="http://www.w3.org/2000/svg" xmlns:xlink="http://www.w3.org/1999/xlink" width="500" height="500" viewBox="0 0 132.292 132.292"><defs><linearGradient id="a"><stop offset="0" stop-color="#00b4fc"/><stop offset="1" stop-color="#00c8f6"/></linearGradient><linearGradient xlink:href="#a" id="b" x1="82.852" y1="123.811" x2="215.144" y2="123.811" gradientUnits="userSpaceOnUse"/></defs><path d="M160.456 120.028c-9.666 0-17.141 7.862-17.141 17.14 0 9.666 7.474 17.013 17.914 17.013 8.763 0 16.11-7.218 16.11-16.755 0-9.924-7.347-17.398-16.883-17.398zm36.472 52.195H177.21v-7.733c-6.057 5.928-12.243 8.12-20.491 8.12-8.377 0-15.594-2.707-21.652-8.12-7.99-7.088-12.115-16.368-12.115-27.193 0-9.924 3.867-18.817 11.084-25.776 6.444-6.315 14.306-9.538 23.07-9.538 8.376 0 14.82 2.835 19.46 8.763V80.59l20.362-4.219v95.852zM82.852 189.957h132.292V57.666H82.852z" clip-rule="evenodd" fill="url(#b)" fill-rule="evenodd" transform="translate(-82.852 -57.666)"/></svg>