<svg xmlns="http://www.w3.org/2000/svg" width="600" height="600" viewBox="0 0 158.75 158.75"><path fill="#1877f2" stroke="#0d4f8b" stroke-width=".903" d="M.451.451h157.847v157.847H.451z"/><path d="M145.52 79.375c0-36.531-29.614-66.146-66.145-66.146-36.531 0-66.146 29.615-66.146 66.146 0 33.015 24.189 60.38 55.81 65.342V98.495H52.246v-19.12H69.04V64.802c0-16.578 9.875-25.735 24.984-25.735 7.237 0 14.807 1.292 14.807 1.292v16.278h-8.341c-8.217 0-10.78 5.1-10.78 10.33v12.408h18.345l-2.932 19.12H89.71v46.222c31.622-4.962 55.81-32.327 55.81-65.342" fill="#fff"/><path d="M105.123 98.495l2.932-19.12H89.71V66.967c0-5.23 2.563-10.33 10.78-10.33h8.34V40.36s-7.57-1.292-14.806-1.292c-15.11 0-24.984 9.157-24.984 25.735v14.573H52.245v19.12H69.04v46.222c3.367.529 6.819.804 10.335.804 3.516 0 6.968-.275 10.335-.804V98.495h15.413" fill="#1877f2"/></svg>