<svg xmlns="http://www.w3.org/2000/svg" width="100" height="100" viewBox="0 0 100 100"><path d="M49.995 1.234C22.385 1.234 0 23.62 0 51.236c0 22.09 14.325 40.83 34.194 47.444 2.501.458 3.413-1.086 3.413-2.412 0-1.185-.043-4.331-.067-8.503-13.908 3.02-16.843-6.703-16.843-6.703-2.274-5.774-5.552-7.312-5.552-7.312-4.54-3.103.344-3.042.344-3.042 5.018.356 7.658 5.154 7.658 5.154 4.46 7.64 11.704 5.433 14.552 4.156.454-3.232 1.744-5.436 3.174-6.685C29.771 72.07 18.098 67.78 18.098 48.62c0-5.457 1.949-9.92 5.147-13.416-.516-1.265-2.231-6.348.488-13.233 0 0 4.2-1.344 13.751 5.126 3.988-1.108 8.266-1.663 12.518-1.682 4.245.019 8.523.574 12.517 1.682 9.546-6.47 13.736-5.126 13.736-5.126 2.728 6.885 1.013 11.968.497 13.233 3.204 3.496 5.141 7.959 5.141 13.416 0 19.21-11.691 23.436-22.83 24.673 1.795 1.544 3.394 4.595 3.394 9.26 0 6.683-.061 12.076-.061 13.715 0 1.338.9 2.894 3.438 2.406C85.687 92.047 100 73.32 100 51.236 100 23.62 77.611 1.234 49.995 1.234" fill="#1b1817" fill-rule="evenodd"/></svg>