<svg xmlns="http://www.w3.org/2000/svg" width="600" height="600" viewBox="0 0 158.75 158.75"><path fill="#231f20" d="M0 0h158.75v158.75H0z"/><path d="M79.369 14.862c-36.526 0-66.14 29.614-66.14 66.148 0 29.224 18.951 54.014 45.236 62.765 3.31.605 4.515-1.437 4.515-3.192 0-1.567-.057-5.73-.09-11.248-18.398 3.996-22.28-8.868-22.28-8.868-3.009-7.642-7.346-9.677-7.346-9.677-6.005-4.1.455-4.02.455-4.02 6.64.467 10.131 6.818 10.131 6.818 5.9 10.107 15.484 7.188 19.252 5.494.601-4.272 2.306-7.187 4.199-8.84-14.688-1.669-30.13-7.345-30.13-32.692 0-7.22 2.578-13.124 6.81-17.75-.683-1.672-2.953-8.396.645-17.504 0 0 5.555-1.779 18.192 6.78 5.275-1.47 10.935-2.2 16.559-2.224 5.616.024 11.276.755 16.56 2.225 12.628-8.56 18.17-6.781 18.17-6.781 3.61 9.108 1.34 15.832.659 17.505 4.239 4.625 6.801 10.53 6.801 17.749 0 25.412-15.467 31.003-30.203 32.64 2.376 2.042 4.491 6.078 4.491 12.25 0 8.84-.081 15.975-.081 18.143 0 1.77 1.19 3.83 4.548 3.184C126.586 135 145.52 110.226 145.52 81.01c0-36.534-29.618-66.148-66.152-66.148" fill="#fff" fill-rule="evenodd"/></svg>