<svg xmlns="http://www.w3.org/2000/svg" width="600" height="600" viewBox="0 0 158.75 158.75" version="1.1" id="svg8"><defs id="defs2"><style id="style923">.cls-1{fill:#fc6d26}.cls-2{fill:#e24329}.cls-3{fill:#fca326}</style></defs><g id="layer2"><path id="rect989" opacity="1" fill="#ccc" fill-opacity="1" stroke="none" stroke-width=".87" stroke-miterlimit="4" stroke-dasharray="none" stroke-opacity="1" d="M0 0h158.75v158.75H0z"/></g><g id="layer1" transform="translate(-49.835 -52.392)"><g id="g967" transform="translate(14.389 22.233) scale(.39188)"><g id="g44"><path d="M461.17 301.83l-18.91-58.12-37.42-115.28a6.47 6.47 0 00-12.27 0l-37.42 115.21H230.82L193.4 128.43a6.46 6.46 0 00-12.26 0l-37.36 115.21-18.91 58.19a12.88 12.88 0 004.66 14.39L293 435l163.44-118.78a12.9 12.9 0 004.73-14.39" class="cls-1" id="path46" fill="#fc6d26"/></g><g id="g48"><path d="M293 434.91l62.16-191.28H230.87z" class="cls-2" id="path50" fill="#e24329"/></g><g id="g56"><path d="M293 434.91l-62.18-191.28h-87z" class="cls-1" id="path58" fill="#fc6d26"/></g><g id="g64"><path d="M143.75 243.69l-18.91 58.12a12.88 12.88 0 004.66 14.39L293 435z" class="cls-3" id="path66" fill="#fca326"/></g><g id="g72"><path d="M143.78 243.69h87.11l-37.49-115.2a6.47 6.47 0 00-12.27 0z" class="cls-2" id="path74" fill="#e24329"/></g><g id="g76"><path d="M293 434.91l62.16-191.28h87.14z" class="cls-1" id="path78" fill="#fc6d26"/></g><g id="g80"><path d="M442.24 243.69l18.91 58.12a12.85 12.85 0 01-4.66 14.39L293 434.91l149.2-191.22z" class="cls-3" id="path82" fill="#fca326"/></g><g id="g84"><path d="M442.28 243.69h-87.1l37.42-115.2a6.46 6.46 0 0112.26 0z" class="cls-2" id="path86" fill="#e24329"/></g></g></g></svg>