<svg xmlns="http://www.w3.org/2000/svg" width="600" height="600" viewBox="0 0 158.75 158.75"><path fill="#f00075" stroke="#0d4f8b" stroke-width=".928" d="M.464.464h157.822v157.822H.464z"/><g fill="#fff"><path d="M79.375 13.23c-17.964 0-20.217.075-27.272.397-7.04.321-11.849 1.44-16.056 3.075-4.35 1.69-8.039 3.952-11.716 7.629-3.677 3.677-5.939 7.366-7.63 11.716-1.634 4.207-2.753 9.016-3.074 16.056-.322 7.055-.398 9.308-.398 27.272s.076 20.217.398 27.272c.321 7.04 1.44 11.849 3.075 16.056 1.69 4.35 3.952 8.039 7.63 11.716 3.676 3.677 7.365 5.939 11.715 7.63 4.207 1.634 9.016 2.753 16.056 3.074 7.055.322 9.308.398 27.272.398s20.217-.076 27.272-.398c7.04-.321 11.849-1.44 16.056-3.075 4.35-1.69 8.039-3.952 11.716-7.629 3.677-3.677 5.939-7.366 7.63-11.716 1.634-4.207 2.753-9.016 3.074-16.056.322-7.055.398-9.308.398-27.272s-.076-20.217-.398-27.272c-.321-7.04-1.44-11.849-3.075-16.056-1.69-4.35-3.952-8.039-7.629-11.716-3.677-3.677-7.366-5.939-11.716-7.63-4.207-1.634-9.016-2.753-16.056-3.074-7.055-.322-9.308-.398-27.272-.398zm0 11.917c17.662 0 19.754.068 26.729.386 6.449.294 9.951 1.372 12.282 2.278 3.087 1.2 5.29 2.633 7.605 4.947 2.315 2.315 3.749 4.519 4.948 7.606.906 2.33 1.984 5.833 2.278 12.282.318 6.975.386 9.067.386 26.73 0 17.66-.068 19.753-.386 26.728-.294 6.449-1.372 9.951-2.278 12.282-1.2 3.087-2.633 5.29-4.948 7.605-2.314 2.315-4.518 3.749-7.605 4.948-2.33.906-5.833 1.984-12.282 2.278-6.974.318-9.066.386-26.729.386-17.663 0-19.755-.068-26.729-.386-6.449-.294-9.951-1.372-12.282-2.278-3.087-1.2-5.29-2.633-7.605-4.948-2.315-2.314-3.749-4.518-4.948-7.605-.906-2.33-1.984-5.833-2.278-12.282-.318-6.975-.386-9.067-.386-26.729s.068-19.754.386-26.729c.294-6.449 1.372-9.951 2.278-12.282 1.2-3.087 2.633-5.29 4.947-7.605 2.315-2.315 4.519-3.749 7.606-4.948 2.33-.906 5.833-1.984 12.282-2.278 6.975-.318 9.067-.386 26.73-.386"/><path d="M79.375 101.424c-12.177 0-22.049-9.872-22.049-22.049s9.872-22.049 22.05-22.049c12.176 0 22.048 9.872 22.048 22.05 0 12.176-9.872 22.048-22.049 22.048zm0-56.016c-18.76 0-33.967 15.208-33.967 33.967 0 18.76 15.208 33.967 33.967 33.967 18.76 0 33.967-15.208 33.967-33.967 0-18.76-15.208-33.967-33.967-33.967m43.246-1.342a7.937 7.937 0 11-15.875 0 7.937 7.937 0 0115.875 0"/></g></svg>