<svg xmlns="http://www.w3.org/2000/svg" width="100" height="100" viewBox="0 0 100 100"><g fill="#100f0d"><path d="M50 0C36.42 0 34.718.058 29.385.3c-5.322.244-8.957 1.089-12.137 2.325-3.288 1.278-6.076 2.987-8.856 5.767-2.78 2.78-4.49 5.568-5.767 8.856C1.389 20.428.544 24.063.3 29.385.058 34.718 0 36.421 0 50c0 13.58.058 15.282.3 20.615.244 5.322 1.089 8.957 2.325 12.137 1.278 3.288 2.987 6.076 5.767 8.856 2.78 2.78 5.568 4.49 8.856 5.767 3.18 1.236 6.815 2.081 12.137 2.324 5.333.243 7.036.301 20.615.301 13.58 0 15.282-.058 20.615-.3 5.322-.244 8.957-1.089 12.137-2.325 3.288-1.278 6.076-2.987 8.856-5.767 2.78-2.78 4.49-5.568 5.767-8.856 1.236-3.18 2.081-6.815 2.324-12.137.243-5.333.301-7.036.301-20.615 0-13.58-.058-15.282-.3-20.615-.244-5.322-1.089-8.957-2.325-12.137-1.278-3.288-2.987-6.076-5.767-8.856-2.78-2.78-5.568-4.49-8.856-5.767C79.572 1.389 75.937.544 70.615.3 65.282.058 63.579 0 50 0zm0 9.009c13.35 0 14.932.051 20.204.292 4.875.222 7.523 1.036 9.285 1.721 2.333.907 3.999 1.99 5.749 3.74 1.75 1.75 2.833 3.416 3.74 5.75.685 1.761 1.5 4.409 1.721 9.284.241 5.272.292 6.853.292 20.204 0 13.35-.051 14.932-.292 20.204-.222 4.875-1.036 7.523-1.721 9.285-.907 2.333-1.99 3.999-3.74 5.749-1.75 1.75-3.416 2.833-5.75 3.74-1.761.685-4.409 1.5-9.284 1.721-5.271.241-6.852.292-20.204.292s-14.933-.051-20.204-.292c-4.875-.222-7.523-1.036-9.285-1.721-2.333-.907-3.999-1.99-5.749-3.74-1.75-1.75-2.833-3.416-3.74-5.75-.685-1.761-1.5-4.409-1.721-9.284-.241-5.272-.292-6.853-.292-20.204 0-13.35.05-14.932.292-20.204.222-4.875 1.036-7.523 1.721-9.285.907-2.333 1.99-3.999 3.74-5.749 1.75-1.75 3.416-2.833 5.75-3.74 1.761-.685 4.409-1.5 9.284-1.721 5.272-.241 6.853-.292 20.204-.292"/><path d="M50 66.667c-9.205 0-16.667-7.462-16.667-16.667 0-9.205 7.462-16.667 16.667-16.667 9.205 0 16.667 7.462 16.667 16.667 0 9.205-7.462 16.667-16.667 16.667zm0-42.343C35.82 24.324 24.324 35.82 24.324 50c0 14.18 11.496 25.676 25.676 25.676 14.18 0 25.676-11.496 25.676-25.676 0-14.18-11.496-25.676-25.676-25.676m32.69-1.014a6 6 0 11-12 0 6 6 0 0112 0"/></g></svg>