<svg xmlns="http://www.w3.org/2000/svg" width="500" height="500" viewBox="0 0 132.292 132.292"><path data-name="Path 2520" d="M112.719 112.721H93.117V82.024c0-7.32-.13-16.744-10.195-16.744-10.209 0-11.77 7.976-11.77 16.21v31.23H51.55V49.591h18.817v8.627h.263a20.622 20.622 0 0118.567-10.197c19.867 0 23.53 13.068 23.53 30.069zM29.433 40.963c-10.135.002-15.21-12.25-8.047-19.417 7.165-7.167 19.418-2.095 19.42 8.04 0 6.282-5.09 11.376-11.373 11.377m9.8 71.758h-19.62V49.592h19.622zM122.492.01L0 0v132.292h132.292V0" fill="#0a66c2"/></svg>