<svg xmlns="http://www.w3.org/2000/svg" width="100" height="100" viewBox="0 0 100 100"><g fill="#0a66c2"><path data-name="Path 2525" d="M95.094 87.176a1.566 1.566 0 001.579-1.656c0-1.175-.709-1.736-2.163-1.736h-2.349v6.15h.884v-2.681h1.085l.025.032 1.685 2.648h.945l-1.813-2.74zm-1.022-.616h-1.025v-2.08h1.299c.67 0 1.435.11 1.435.989 0 1.01-.774 1.09-1.714 1.09"/><path data-name="Path 2520" d="M72.046 79.47H59.517V59.85c0-4.68-.083-10.702-6.516-10.702-6.525 0-7.523 5.097-7.523 10.36v19.96H32.949V39.121h12.027v5.514h.169a13.181 13.181 0 0111.867-6.518c12.698 0 15.04 8.353 15.04 19.219zM18.813 33.605a7.27 7.27 0 117.269-7.272 7.27 7.27 0 01-7.27 7.272m6.265 45.863H12.535V39.121h12.542zM78.292 7.43H6.24A6.17 6.17 0 000 13.525v72.352a6.174 6.174 0 006.24 6.101h72.052a6.187 6.187 0 006.264-6.101V13.519a6.183 6.183 0 00-6.264-6.094"/><path data-name="Path 2526" d="M94.179 81.045a5.766 5.766 0 10.11 0h-.11m0 10.87a5.056 5.056 0 114.97-5.139v.085a4.948 4.948 0 01-4.838 5.052h-.13"/></g></svg>