<svg xmlns="http://www.w3.org/2000/svg" width="600" height="600" viewBox="0 0 158.75 158.75"><path fill="#3088d4" d="M0 0h158.75v158.75H0z"/><path d="M138.448 92.537c-1.814 9.332-16.247 19.545-32.822 21.524-8.644 1.031-17.154 1.98-26.229 1.563-14.84-.68-26.551-3.542-26.551-3.542 0 1.444.089 2.82.267 4.107 1.93 14.646 14.523 15.523 26.452 15.932 12.04.412 22.762-2.968 22.762-2.968l.495 10.885s-8.422 4.522-23.425 5.354c-8.273.455-18.545-.208-30.509-3.375-25.948-6.868-30.41-34.528-31.094-62.593-.208-8.332-.08-16.19-.08-22.761 0-28.698 18.804-37.11 18.804-37.11 9.48-4.355 25.749-6.186 42.662-6.324h.415c16.913.138 33.192 1.97 42.673 6.324 0 0 18.802 8.412 18.802 37.11 0 0 .236 21.173-2.622 35.874" fill="#fff"/><path d="M118.891 58.889v34.749h-13.766V59.91c0-7.11-2.992-10.718-8.975-10.718-6.616 0-9.932 4.28-9.932 12.745v18.461H72.533v-18.46c0-8.465-3.317-12.746-9.932-12.746-5.984 0-8.975 3.609-8.975 10.718v33.728H39.859V58.889c0-7.102 1.808-12.745 5.44-16.92 3.746-4.176 8.651-6.316 14.74-6.316 7.045 0 12.38 2.707 15.907 8.124l3.43 5.748 3.429-5.748c3.527-5.417 8.861-8.124 15.907-8.124 6.088 0 10.993 2.14 14.74 6.315 3.631 4.176 5.44 9.82 5.44 16.921" fill="#3088d4"/></svg>