<svg xmlns="http://www.w3.org/2000/svg" width="500" height="500" viewBox="0 0 132.292 132.292" version="1.1" id="svg8"><g id="layer3" transform="translate(19.957 -49.152)"><g id="g836" transform="translate(-252.891 -117.19) scale(.38354)" display="inline"><path d="M722.328 708.744c2.892-12.425 18.668-79.132 18.668-79.132s-4.763-9.535-4.763-23.635c0-22.136 12.83-38.662 28.806-38.662 13.581 0 20.143 10.198 20.143 22.425 0 13.659-8.697 34.08-13.186 53.005-3.75 15.845 7.947 28.767 23.575 28.767 28.295 0 50.044-29.835 50.044-72.9 0-38.116-27.389-64.766-66.497-64.766-45.296 0-71.883 33.974-71.883 69.086 0 13.682 5.27 28.355 11.847 36.33 1.3 1.576 1.492 2.957 1.104 4.566-1.208 5.028-3.894 15.841-4.421 18.054-.695 2.914-2.308 3.531-5.324 2.128-19.883-9.255-32.314-38.323-32.314-61.672 0-50.219 36.487-96.336 105.186-96.336 55.224 0 98.142 39.352 98.142 91.943 0 54.865-34.594 99.02-82.61 99.02-16.13 0-31.295-8.38-36.486-18.28 0 0-7.918 30.413-9.918 37.844-4.238 15.748-18.15 41.359-28.532 54.178-.022-.202-1.386-9.878-2.133-16.247-1.474-12.58-2.53-32.477.552-45.716zm229.924-102.577V433.705H607.33v344.924h344.923V606.167" id="path14" fill="#e60023" fill-opacity="1" fill-rule="nonzero" stroke="none" stroke-width=".037"/></g></g><style id="style829" type="text/css"/></svg>