<svg xmlns="http://www.w3.org/2000/svg" width="600" height="600" viewBox="0 0 158.75 158.75"><path d="M158.75 158.75H0V0h158.75v158.75" fill="#ff4500"/><path d="M102.108 101.092c-5.702 0-10.34-4.639-10.34-10.339 0-5.703 4.638-10.343 10.34-10.343 5.701 0 10.34 4.64 10.34 10.343 0 5.7-4.639 10.34-10.34 10.34zm1.82 16.983c-7.057 7.047-20.58 7.596-24.556 7.596-3.978 0-17.503-.549-24.552-7.597a2.68 2.68 0 013.79-3.79c4.448 4.449 13.964 6.027 20.762 6.027 6.796 0 16.314-1.578 20.77-6.03a2.682 2.682 0 013.79.004 2.679 2.679 0 01-.004 3.79zM46.27 90.752c0-5.703 4.641-10.342 10.346-10.342 5.698 0 10.335 4.639 10.335 10.342 0 5.7-4.637 10.338-10.335 10.338-5.705 0-10.346-4.638-10.346-10.338zm99.252-10.342c0-7.996-6.481-14.477-14.476-14.477a14.419 14.419 0 00-10.04 4.062c-9.895-7.14-23.53-11.752-38.715-12.283l6.594-31.025 21.545 4.58c.263 5.478 4.749 9.848 10.291 9.848 5.712 0 10.341-4.629 10.341-10.34 0-5.71-4.629-10.34-10.341-10.34-4.06 0-7.54 2.364-9.231 5.772l-24.06-5.115a2.586 2.586 0 00-3.066 1.992L77 57.704c-15.408.426-29.26 5.045-39.283 12.265a14.42 14.42 0 00-10.011-4.036c-7.995 0-14.477 6.481-14.477 14.477 0 5.881 3.514 10.934 8.553 13.199-.223 1.44-.345 2.9-.345 4.38 0 22.272 25.926 40.327 57.907 40.327 31.98 0 57.906-18.055 57.906-40.327 0-1.47-.12-2.922-.34-4.35 5.07-2.252 8.61-7.324 8.61-13.23" fill="#fff"/></svg>