<svg xmlns="http://www.w3.org/2000/svg" width="100" height="100" viewBox="0 0 100 100"><path d="M50.202 80.095c-16.612 0-24.201-8.462-24.201-14.669a5.383 5.383 0 015.68-5.383c7.112 0 5.252 10.668 18.521 10.668 6.783 0 10.767-4.083 10.767-7.919 0-2.305-1.317-4.939-5.795-5.993l-14.817-3.737c-11.903-3.03-13.978-9.647-13.978-15.788 0-12.743 11.657-17.353 22.753-17.353 10.224 0 22.374 5.647 22.374 13.286 0 3.293-2.75 5.054-5.943 5.054-6.075 0-5.055-8.528-17.27-8.528-6.076 0-9.27 2.849-9.27 6.833s4.725 5.334 8.874 6.24l10.932 2.469c11.986 2.7 15.18 9.73 15.18 16.464 0 10.355-8.018 18.356-23.823 18.356M96.07 58.182c.474-2.718.711-5.472.708-8.231a46.79 46.79 0 00-54.89-46.28A27.527 27.527 0 0028.092.001 27.988 27.988 0 003.94 41.833 46.822 46.822 0 0058.138 96.33a27.51 27.51 0 0013.78 3.67A27.988 27.988 0 0096.07 58.182" fill="#0078d7"/></svg>