<svg xmlns="http://www.w3.org/2000/svg" width="600" height="600" viewBox="0 0 158.75 158.75"><path fill="#0078d7" d="M0 0h158.75v158.75H0z"/><path d="M79.643 119.189c-21.976 0-32.017-11.195-32.017-19.406a7.122 7.122 0 017.514-7.122c9.409 0 6.948 14.113 24.503 14.113 8.973 0 14.244-5.401 14.244-10.476 0-3.05-1.743-6.534-7.667-7.928l-19.602-4.944C50.871 79.42 48.127 70.663 48.127 62.54c0-16.858 15.42-22.956 30.1-22.956 13.525 0 29.599 7.47 29.599 17.576 0 4.356-3.637 6.687-7.863 6.687-8.037 0-6.686-11.282-22.847-11.282-8.037 0-12.262 3.768-12.262 9.039 0 5.27 6.25 7.056 11.74 8.254l14.461 3.267c15.856 3.572 20.081 12.872 20.081 21.78 0 13.7-10.606 24.285-31.515 24.285m60.7-28.99c.628-3.595.942-7.239.937-10.89a61.899 61.899 0 00-72.614-61.223 36.416 36.416 0 00-18.252-4.857 37.026 37.026 0 00-31.951 55.343 61.942 61.942 0 0071.7 72.092 36.394 36.394 0 0018.23 4.857A37.026 37.026 0 00140.32 90.2" fill="#fff"/></svg>