<svg xmlns="http://www.w3.org/2000/svg" width="600" height="600" viewBox="0 0 158.75 158.75"><path fill="#fffc00" d="M0 0h158.75v158.75H0z"/><path class="cls-1" d="M136.135 110.69c-20.487-9.918-23.752-25.23-23.897-26.365-.176-1.376-.375-2.457 1.143-3.857 1.463-1.352 7.956-5.37 9.758-6.628 2.977-2.082 4.289-4.16 3.322-6.716-.676-1.768-2.322-2.433-4.056-2.433a7.537 7.537 0 00-1.626.182c-3.272.71-6.449 2.35-8.287 2.792a2.893 2.893 0 01-.676.091c-.98 0-1.352-.436-1.258-1.615.23-3.577.717-10.556.152-17.076-.774-8.97-3.667-13.416-7.098-17.346-1.66-1.907-9.366-10.097-24.238-10.097s-22.568 8.19-24.217 10.073c-3.441 3.93-6.331 8.376-7.098 17.346-.565 6.52-.058 13.496.152 17.076.067 1.122-.278 1.615-1.258 1.615a2.92 2.92 0 01-.676-.09c-1.835-.443-5.012-2.083-8.284-2.793a7.537 7.537 0 00-1.626-.182c-1.74 0-3.38.676-4.056 2.434-.967 2.555.338 4.633 3.326 6.716 1.802 1.257 8.295 5.272 9.758 6.628 1.514 1.4 1.318 2.48 1.143 3.856-.146 1.153-3.414 16.464-23.897 26.364-1.2.582-3.242 1.812.358 3.8 5.652 3.123 9.413 2.788 12.337 4.67 2.481 1.6 1.014 5.047 2.82 6.29 2.216 1.532 8.77-.107 17.237 2.688 7.098 2.339 11.411 8.947 23.998 8.947 12.587 0 17.025-6.638 23.998-8.947 8.45-2.795 15.018-1.156 17.238-2.687 1.802-1.244.338-4.692 2.82-6.29 2.923-1.883 6.681-1.548 12.336-4.671 3.593-1.964 1.552-3.195.352-3.776z" fill="#fff"/><path d="M145.048 109.523c-.92-2.501-2.67-3.84-4.665-4.948-.375-.22-.72-.396-1.014-.531-.594-.308-1.203-.605-1.808-.92-6.216-3.295-11.07-7.452-14.436-12.38a28.074 28.074 0 01-2.477-4.394c-.288-.822-.274-1.288-.068-1.714a2.789 2.789 0 01.794-.828c1.068-.707 2.17-1.423 2.917-1.906 1.332-.862 2.386-1.545 3.066-2.028 2.552-1.785 4.336-3.681 5.452-5.8a11.55 11.55 0 00.571-9.593c-1.69-4.448-5.891-7.21-10.982-7.21a15.126 15.126 0 00-3.194.338c-.28.061-.56.126-.835.196.048-3.042-.02-6.253-.29-9.413-.96-11.11-4.85-16.934-8.907-21.578a35.49 35.49 0 00-9.055-7.287c-6.155-3.515-13.134-5.3-20.743-5.3-7.608 0-14.554 1.785-20.716 5.3a35.362 35.362 0 00-9.072 7.3c-4.056 4.645-7.946 10.479-8.906 21.579-.27 3.16-.338 6.388-.294 9.413a21.29 21.29 0 00-.832-.196 15.126 15.126 0 00-3.194-.338c-5.093 0-9.301 2.761-10.985 7.21a11.563 11.563 0 00.558 9.602c1.119 2.12 2.903 4.016 5.455 5.8.676.473 1.734 1.156 3.066 2.028.72.467 1.771 1.15 2.802 1.832a3.008 3.008 0 01.9.903c.215.442.222.919-.099 1.798a27.814 27.814 0 01-2.437 4.303c-3.292 4.816-8.004 8.9-14.02 12.168-3.187 1.69-6.5 2.819-7.9 6.621-1.054 2.87-.364 6.135 2.316 8.886a13.395 13.395 0 003.38 2.559 36.622 36.622 0 008.271 3.309 5.462 5.462 0 011.67.747c.977.855.838 2.143 2.14 4.029a9.396 9.396 0 002.446 2.487c2.731 1.886 5.8 2.005 9.052 2.13 2.937.111 6.267.24 10.069 1.494 1.575.52 3.211 1.527 5.107 2.704 4.553 2.798 10.786 6.628 21.217 6.628 10.43 0 16.707-3.85 21.294-6.659 1.882-1.156 3.508-2.153 5.04-2.66 3.802-1.257 7.131-1.382 10.068-1.494 3.252-.125 6.32-.243 9.052-2.13a9.427 9.427 0 002.785-3.041c.936-1.592.913-2.704 1.791-3.482a5.178 5.178 0 011.569-.716 36.76 36.76 0 008.382-3.34 13.182 13.182 0 003.55-2.778l.033-.04c2.515-2.691 3.147-5.861 2.116-8.66zm-9.272 4.982c-5.654 3.123-9.413 2.789-12.337 4.671-2.484 1.599-1.014 5.047-2.819 6.29-2.217 1.532-8.77-.108-17.238 2.688-6.983 2.308-11.437 8.946-23.998 8.946-12.56 0-16.91-6.624-24.008-8.963-8.45-2.796-15.017-1.156-17.238-2.687-1.801-1.244-.338-4.692-2.819-6.29-2.927-1.883-6.685-1.549-12.337-4.655-3.6-1.987-1.558-3.218-.358-3.799 20.483-9.917 23.751-25.228 23.897-26.364.175-1.376.371-2.457-1.143-3.857-1.463-1.352-7.956-5.37-9.758-6.628-2.981-2.082-4.293-4.16-3.326-6.716.676-1.768 2.326-2.434 4.056-2.434a7.537 7.537 0 011.626.183c3.272.71 6.449 2.35 8.284 2.792a2.92 2.92 0 00.676.091c.98 0 1.325-.493 1.258-1.616-.21-3.579-.717-10.555-.152-17.075.774-8.97 3.664-13.416 7.098-17.347 1.65-1.889 9.4-10.079 24.22-10.079 14.822 0 22.593 8.156 24.242 10.039 3.438 3.93 6.33 8.376 7.098 17.346.565 6.52.078 13.5-.152 17.076-.078 1.18.277 1.615 1.257 1.615a2.893 2.893 0 00.676-.09c1.84-.443 5.016-2.083 8.288-2.793a7.537 7.537 0 011.626-.182c1.74 0 3.38.676 4.056 2.434.967 2.555-.338 4.633-3.323 6.716-1.801 1.257-8.294 5.272-9.758 6.628-1.517 1.4-1.318 2.48-1.142 3.856.145 1.153 3.41 16.464 23.897 26.364 1.21.605 3.251 1.836-.349 3.84z"/></svg>