<svg xmlns="http://www.w3.org/2000/svg" xmlns:xlink="http://www.w3.org/1999/xlink" width="600" height="600" viewBox="0 0 158.75 158.75"><defs><linearGradient gradientTransform="translate(-36.05 63.187) scale(1.42272)" x1="46.493" y1="0" x2="46.493" y2="53.006" id="a" gradientUnits="userSpaceOnUse"><stop offset="0" stop-color="#f79810"/><stop offset="1" stop-color="#f8310e"/></linearGradient><linearGradient xlink:href="#a" id="b" x1="79.642" y1=".263" x2="79.642" y2="159.017" gradientUnits="userSpaceOnUse"/></defs><path fill="url(#b)" d="M0 0h158.75v158.75H0z"/><path d="M14.727 85.01c-.276 0-.495.213-.53.518l-.968 7.348.968 7.222c.035.304.254.516.53.516.268 0 .485-.21.528-.514v-.002.002l1.147-7.224-1.147-7.35c-.041-.303-.262-.516-.528-.516zm5.44-4.015c-.045-.316-.271-.534-.55-.534-.28 0-.512.225-.55.534l-1.3 11.88 1.3 11.619c.037.311.268.536.55.536.278 0 .504-.219.55-.533l1.479-11.621zm20.494-10.96c-.534 0-.975.437-1 .992l-1.036 21.859 1.035 14.126c.027.552.467.987 1 .987.531 0 .97-.436 1.002-.99v.004l1.171-14.127-1.17-21.86c-.032-.554-.472-.99-1.002-.99zm-10.607 7.598c-.41 0-.744.327-.777.764L28.111 92.88l1.166 14.013c.032.433.368.76.777.76.406 0 .74-.327.776-.76l1.326-14.013-1.326-14.486c-.036-.434-.37-.761-.776-.761zm21.385 30.365c.662 0 1.2-.533 1.227-1.216l1.015-13.889-1.014-29.102c-.027-.683-.565-1.216-1.226-1.216-.668 0-1.207.535-1.228 1.218l-.9 29.099.9 13.894c.021.677.56 1.212 1.226 1.212zm22.067.065c.91 0 1.661-.75 1.678-1.671v.01-.01l.709-13.49-.709-33.61c-.015-.921-.768-1.673-1.678-1.673-.912 0-1.665.75-1.68 1.674l-.632 33.597.633 13.51a1.695 1.695 0 001.679 1.663zm-11.118-.052c.793 0 1.432-.636 1.453-1.447v.01l.862-13.678-.863-29.312c-.022-.811-.66-1.446-1.453-1.446-.798 0-1.437.635-1.454 1.446l-.767 29.313.768 13.675a1.455 1.455 0 001.454 1.439zm-27.051-.128c.47 0 .852-.377.888-.874l1.249-14.129-1.25-13.44c-.034-.497-.415-.871-.887-.871-.478 0-.86.377-.89.876l-1.1 13.435 1.1 14.128c.032.498.412.875.89.875zm-10.523-.774c.345 0 .624-.272.663-.648l1.403-13.584-1.401-14.096c-.041-.377-.32-.649-.665-.649-.348 0-.627.273-.663.649l-1.235 14.096 1.235 13.582c.035.377.313.65.663.65zm43.112-44.013c-.861 0-1.551.684-1.568 1.56l-.7 28.243.7 13.59a1.565 1.565 0 001.568 1.549c.859 0 1.545-.683 1.565-1.56v.012l.785-13.59-.785-28.247c-.02-.873-.706-1.557-1.565-1.557zm-21.896 44.93c.595 0 1.086-.485 1.114-1.104l1.093-14.032-1.093-26.858c-.03-.62-.52-1.104-1.114-1.104-.6 0-1.09.485-1.115 1.104l-.968 26.858.969 14.038a1.127 1.127 0 001.114 1.098zm12.201-1.324v-.007l.94-13.8-.94-30.083c-.023-.747-.612-1.333-1.339-1.333-.73 0-1.32.585-1.34 1.333l-.833 30.081.835 13.807c.02.74.609 1.325 1.338 1.325.729 0 1.315-.585 1.34-1.329zm71.02-31.148c-2.23 0-4.357.451-6.295 1.264-1.294-14.666-13.592-26.17-28.593-26.17-3.671 0-7.25.723-10.409 1.945-1.228.475-1.555.965-1.566 1.914v51.644a1.969 1.969 0 001.757 1.924c.04.004 44.814.027 45.104.027 8.986 0 16.272-7.286 16.272-16.273 0-8.988-7.284-16.275-16.27-16.275zM79.06 54.461c-.977 0-1.78.802-1.794 1.788l-.734 36.657.736 13.304a1.804 1.804 0 001.792 1.772c.975 0 1.777-.8 1.791-1.787v.016l.799-13.305-.799-36.66c-.014-.983-.816-1.785-1.79-1.785z" fill="#fff"/></svg>