<svg xmlns="http://www.w3.org/2000/svg" width="100" height="100" viewBox="0 0 100 100"><defs><linearGradient gradientTransform="translate(0 28.285) scale(1.07544)" x1="46.493" y1="0" x2="46.493" y2="53.006" id="a" gradientUnits="userSpaceOnUse"><stop offset="0" stop-color="#f79810"/><stop offset="1" stop-color="#f8310e"/></linearGradient></defs><path d="M1.132 54.26c-.208 0-.374.16-.4.39L0 60.206l.731 5.46c.027.23.193.39.401.39.203 0 .367-.16.4-.388v-.002.002l.866-5.462-.867-5.555c-.03-.23-.197-.39-.399-.39zm4.113-3.036c-.034-.238-.205-.403-.416-.403-.212 0-.387.17-.416.403l-.983 8.981.983 8.782c.028.236.203.406.416.406.21 0 .38-.166.415-.403l1.118-8.785zm15.49-8.284a.771.771 0 00-.755.75l-.783 16.523.783 10.678a.77.77 0 00.756.746c.4 0 .733-.33.757-.748v.003l.885-10.68-.885-16.522c-.024-.42-.356-.75-.757-.75zm-8.017 5.743c-.31 0-.562.247-.587.578l-.882 10.948.882 10.592c.024.328.277.575.587.575.307 0 .56-.247.586-.575l1.003-10.592-1.003-10.95c-.027-.329-.28-.576-.586-.576zm16.165 22.953c.5 0 .907-.403.927-.92l.768-10.498-.767-21.998a.939.939 0 00-.927-.92.935.935 0 00-.928.921l-.68 21.996.68 10.503a.934.934 0 00.927.916zm16.68.05c.689 0 1.256-.567 1.27-1.264v.008-.008l.535-10.197-.536-25.407a1.284 1.284 0 00-1.269-1.263c-.69 0-1.258.567-1.269 1.265l-.478 25.396.478 10.213c.011.69.581 1.257 1.27 1.257zm-8.403-.04c.599 0 1.082-.48 1.098-1.094v.008l.651-10.34-.652-22.157a1.104 1.104 0 00-1.098-1.092 1.1 1.1 0 00-1.1 1.092l-.58 22.159.582 10.337a1.1 1.1 0 001.099 1.087zm-20.449-.097c.356 0 .644-.285.671-.66l.945-10.68-.945-10.16c-.025-.375-.314-.658-.67-.658-.362 0-.65.285-.673.662l-.831 10.156.831 10.679c.024.376.311.661.672.661zm-7.954-.585c.26 0 .471-.205.501-.49l1.06-10.268L9.26 49.551c-.032-.285-.242-.49-.503-.49-.263 0-.474.206-.5.49l-.934 10.655.933 10.267c.026.285.237.491.501.491zm32.588-33.27c-.65 0-1.172.518-1.185 1.18l-.529 21.349.53 10.272a1.184 1.184 0 002.367-.007v.008l.594-10.272-.594-21.352a1.186 1.186 0 00-1.183-1.178zm-16.55 33.964c.449 0 .82-.367.841-.835l.826-10.607-.826-20.302c-.022-.469-.392-.835-.842-.835a.855.855 0 00-.843.835l-.731 20.302.732 10.612c.019.463.388.83.842.83zm9.222-1.001v-.006l.71-10.432-.71-22.739a1.022 1.022 0 00-1.012-1.007c-.552 0-.998.442-1.013 1.007l-.63 22.738.631 10.437c.015.56.46 1.002 1.012 1.002.55 0 .994-.442 1.012-1.005zm53.684-23.545c-1.685 0-3.293.34-4.758.955C81.965 36.98 72.67 28.285 61.33 28.285c-2.774 0-5.48.547-7.868 1.47-.928.36-1.175.73-1.184 1.447V70.24c.01.753.594 1.38 1.328 1.454.032.003 33.876.02 34.095.02 6.793 0 12.3-5.507 12.3-12.3 0-6.794-5.506-12.302-12.299-12.302zM49.763 31.167c-.739 0-1.346.607-1.356 1.352l-.555 27.709.556 10.056c.01.735.616 1.34 1.355 1.34.737 0 1.343-.605 1.354-1.35v.012l.603-10.058-.603-27.71a1.368 1.368 0 00-1.354-1.35z" fill="url(#a)"/></svg>