<svg xmlns="http://www.w3.org/2000/svg" width="600" height="600" viewBox="0 0 600 600"><path fill="#231f20" d="M0 0h600v600H0z"/><path d="M432.775 197.846h2.537c1.655 0 2.674-1.056 2.674-2.36 0-1.302-.684-2.173-2.659-2.173h-2.552zm2.659-6.43c3.652 0 4.734 1.903 4.734 3.872 0 1.897-1.15 3.138-2.477 3.78l3.21 6.055h-2.432l-2.756-5.408h-2.947v5.408h-2.004v-13.707zm-11.892 7.082c0 7.32 5.342 11.923 11.741 11.923 6.39 0 11.7-4.602 11.7-11.923 0-7.346-5.31-11.876-11.7-11.876s-11.74 4.552-11.74 11.876m25.529 0c0 8.575-6.43 13.93-13.789 13.93-7.367 0-13.829-5.355-13.829-13.93 0-8.568 6.462-13.882 13.83-13.882 7.358 0 13.788 5.314 13.788 13.882M293.413 157.02c-75.107 0-136.638 57.913-142.485 131.511l76.634 31.685a40.223 40.223 0 0122.777-7.036c.755 0 1.508.02 2.254.063l34.083-49.398c0-.235-.007-.464-.007-.7 0-29.73 24.188-53.921 53.922-53.921 29.731 0 53.923 24.19 53.923 53.922 0 29.734-24.192 53.925-53.923 53.925-.41 0-.815-.01-1.222-.019l-48.605 34.682c.025.633.047 1.276.047 1.915 0 22.32-18.156 40.476-40.472 40.476-19.592 0-35.97-13.986-39.682-32.503l-54.807-22.658c16.971 60.017 72.11 104.016 137.563 104.016 78.966 0 142.98-64.017 142.98-142.98 0-78.966-64.014-142.98-142.98-142.98" fill="#fff"/><path d="M240.529 373.97l-17.564-7.255c3.114 6.48 8.5 11.904 15.648 14.886 15.453 6.44 33.274-.897 39.717-16.36 3.116-7.486 3.138-15.741.047-23.24-3.088-7.503-8.917-13.354-16.404-16.476-7.43-3.091-15.39-2.975-22.385-.339l18.144 7.503c11.4 4.753 16.788 17.842 12.039 29.242-4.747 11.4-17.843 16.792-29.242 12.039m73.131-110.885c0-14.908 12.087-26.988 26.992-26.988 14.908 0 26.99 12.08 26.99 26.988s-12.082 26.988-26.99 26.988c-14.905 0-26.991-12.08-26.991-26.988m62.86.063c0-19.812-16.118-35.933-35.929-35.933-19.811 0-35.93 16.121-35.93 35.933 0 19.811 16.119 35.926 35.93 35.926s35.93-16.115 35.93-35.926" fill="#fff"/></svg>