<svg xmlns="http://www.w3.org/2000/svg" width="100" height="100" viewBox="0 0 100 100"><path class="st0" d="M89.762 29.6c.061.882.061 1.764.061 2.653 0 27.11-20.638 58.375-58.375 58.375v-.016A58.08 58.08 0 010 81.414a41.72 41.72 0 004.883.297 41.197 41.197 0 0025.48-8.8 20.542 20.542 0 01-19.167-14.247 20.45 20.45 0 009.263-.353C10.888 56.377 4.002 47.967 4.002 38.2v-.26a20.386 20.386 0 009.311 2.567C4.298 34.483 1.519 22.49 6.963 13.113A58.23 58.23 0 0049.246 34.55a20.529 20.529 0 015.936-19.602c8.263-7.768 21.26-7.37 29.027.89a41.169 41.169 0 0013.028-4.981 20.593 20.593 0 01-9.018 11.346A40.802 40.802 0 00100 18.972 41.68 41.68 0 0189.762 29.6z" fill="#1d9bf0"/></svg>