<svg xmlns="http://www.w3.org/2000/svg" width="600" height="600" viewBox="0 0 158.75 158.75"><path fill="#f07355" d="M0 0h158.75v158.75H0z"/><g clip-rule="evenodd" fill="#fff" fill-rule="evenodd"><path d="M129.246 16.232c-5.573 11.9-15.883 14.092-15.883 14.092-10.31 2.624-13.918 6.627-13.918 6.627-10.31 10.414-2.18 23.044-2.18 23.044 22.262-5.085 30.391-23.477 30.391-23.477-.996 12.36-27.484 26.94-27.484 26.94 8.775 8.628 17.148 7.573 22.666 4.273 7.323-4.382 10.849-13.983 10.849-13.983 7.108-21.315-4.441-37.516-4.441-37.516zM92.743 52.259c.242 3.652 4.253 68.702-30.016 81.739 0 0 3.15.595 6.703.433 0 0 43.61-27.643 23.61-81.279-.002 0-.082-.324-.297-.893zM74.49 13.23c10.957 18.5 16.906 35.08 18.253 39.03v-.162C90.05 23.588 74.49 13.23 74.49 13.23z"/><path d="M103.995 98.322c0 6.572-1.562 12.685-4.684 18.365-3.123 5.68-7.323 10.062-12.653 13.146-5.303 3.083-11.144 4.625-17.47 4.625-6.354 0-12.168-1.542-17.471-4.625-5.303-3.083-9.53-7.465-12.653-13.146-3.122-5.68-4.684-11.792-4.684-18.365 0-10.17 3.42-18.853 10.257-26.047 6.838-7.168 15.021-10.766 24.55-10.766 4.523 0 8.75.839 12.68 2.462.404-4.165 1.857-8.033 3.446-11.198-4.954-1.812-10.31-2.705-16.099-2.705-13.756 0-25.142 5.085-34.16 15.282C26.87 74.573 22.75 85.5 22.75 98.05c0 12.686 4.334 23.776 12.975 33.243 8.668 9.494 19.814 14.228 33.462 14.228 13.594 0 24.74-4.734 33.38-14.228 8.669-9.494 12.975-20.583 12.975-33.242 0-6.79-1.184-13.092-3.553-18.88-3.984 2.462-7.752 3.733-10.876 4.41 1.94 4.49 2.88 9.413 2.88 14.74z"/></g></svg>