<svg xmlns="http://www.w3.org/2000/svg" width="600" height="600" viewBox="0 0 158.75 158.75"><path fill="#4680c2" d="M0 0h158.75v158.75H0z"/><path class="st1" d="M129.777 52.263c.785-2.465 0-4.257-3.473-4.257h-11.539c-2.913 0-4.257 1.568-5.041 3.249 0 0-5.938 14.34-14.229 23.639-2.688 2.689-3.92 3.585-5.377 3.585-.784 0-1.793-.896-1.793-3.361V52.15c0-2.913-.896-4.257-3.36-4.257h-18.15c-1.792 0-2.913 1.344-2.913 2.689 0 2.8 4.145 3.473 4.594 11.315v17.029c0 3.697-.673 4.37-2.129 4.37-3.921 0-13.444-14.453-19.158-30.922-1.12-3.249-2.24-4.481-5.153-4.481H30.405c-3.361 0-3.922 1.568-3.922 3.249 0 3.025 3.922 18.261 18.262 38.427 9.522 13.78 23.078 21.174 35.29 21.174 7.394 0 8.29-1.68 8.29-4.481v-10.42c0-3.36.673-3.92 3.025-3.92 1.68 0 4.706.896 11.54 7.506 7.842 7.842 9.186 11.427 13.555 11.427h11.54c3.36 0 4.93-1.68 4.033-4.93-1.008-3.248-4.817-7.954-9.747-13.555-2.689-3.137-6.722-6.61-7.954-8.29-1.68-2.241-1.233-3.138 0-5.154-.112 0 14.004-19.942 15.46-26.664" fill="#fff"/></svg>