<svg xmlns="http://www.w3.org/2000/svg" width="600" height="600" viewBox="0 0 158.75 158.75"><path fill="red" d="M0 0h158.75v158.75H0z"/><path d="M65.845 99.045v-39.34l34.576 19.67zm76.911-51.718c-1.521-5.73-6.004-10.241-11.696-11.772-10.316-2.783-51.685-2.783-51.685-2.783s-41.369 0-51.686 2.783c-5.691 1.531-10.174 6.042-11.695 11.772-2.765 10.383-2.765 32.048-2.765 32.048s0 21.664 2.765 32.048c1.52 5.73 6.004 10.24 11.695 11.773 10.317 2.782 51.686 2.782 51.686 2.782s41.369 0 51.685-2.782c5.692-1.532 10.175-6.043 11.696-11.773 2.765-10.384 2.765-32.048 2.765-32.048s0-21.665-2.765-32.048" fill="#fff"/></svg>