<?xml version="1.0" encoding="UTF-8" standalone="no"?>
<svg
   xmlns:dc="http://purl.org/dc/elements/1.1/"
   xmlns:cc="http://creativecommons.org/ns#"
   xmlns:rdf="http://www.w3.org/1999/02/22-rdf-syntax-ns#"
   xmlns:svg="http://www.w3.org/2000/svg"
   xmlns="http://www.w3.org/2000/svg"
   xmlns:sodipodi="http://sodipodi.sourceforge.net/DTD/sodipodi-0.dtd"
   xmlns:inkscape="http://www.inkscape.org/namespaces/inkscape"
   width="100"
   height="100"
   viewBox="0 0 100 100"
   version="1.1"
   id="svg8"
   inkscape:version="1.0.2 (e86c870879, 2021-01-15, custom)"
   sodipodi:docname="dailymotion.svg">
  <defs
     id="defs2" />
  <sodipodi:namedview
     id="base"
     pagecolor="#ffffff"
     bordercolor="#666666"
     borderopacity="1.0"
     inkscape:pageopacity="0.0"
     inkscape:pageshadow="2"
     inkscape:zoom="1.4"
     inkscape:cx="-10.950061"
     inkscape:cy="60.203051"
     inkscape:document-units="px"
     inkscape:current-layer="layer1"
     inkscape:document-rotation="0"
     showgrid="false"
     units="px"
     inkscape:window-width="1920"
     inkscape:window-height="1019"
     inkscape:window-x="0"
     inkscape:window-y="33"
     inkscape:window-maximized="1" />
  <metadata
     id="metadata5">
    <rdf:RDF>
      <cc:Work
         rdf:about="">
        <dc:format>image/svg+xml</dc:format>
        <dc:type
           rdf:resource="http://purl.org/dc/dcmitype/StillImage" />
        <dc:title />
      </cc:Work>
    </rdf:RDF>
  </metadata>
  <g
     inkscape:label="Calque 1"
     inkscape:groupmode="layer"
     id="layer1">
    <g
       fill="none"
       fill-rule="evenodd"
       id="g6"
       transform="scale(0.09765625)">
      <rect
         width="1024"
         height="1024"
         fill="#ffffff"
         id="rect2"
         x="0"
         y="0" />
      <path
         fill="#232323"
         d="m 310.74428,457.21901 c -20.63959,20.8977 -46.50326,31.34754 -77.59003,31.34754 -30.5782,0 -55.9313,-10.19392 -76.06231,-30.58277 -20.13002,-20.38884 -30.19502,-46.63892 -30.19502,-78.75123 0,-30.58377 10.31979,-55.94262 30.95937,-76.07654 20.64058,-20.13392 45.99369,-30.20039 76.06231,-30.20039 20.3848,0 38.85871,4.71408 55.42174,14.14423 16.56302,9.43016 29.43066,22.30077 38.60392,38.61185 9.17326,16.31008 13.75939,34.1497 13.75939,53.52085 0,31.09162 -10.31979,57.08777 -30.95937,77.98646 z M 334.82346,27.524694 V 204.90716 C 316.98651,187.06754 298.00402,174.19693 277.87401,166.29631 257.743,158.3957 235.19253,154.44539 210.2206,154.44539 c -40.26102,0 -76.44349,9.939 -108.5504,29.819 -32.106899,19.878 -57.07783,47.02031 -74.914778,81.42693 C 8.9184739,300.09793 0,338.19993 0,379.99632 c 0,42.81608 8.7910814,81.42792 26.373244,115.83354 17.582163,34.40662 42.553094,61.54893 74.914786,81.42793 32.36169,19.88 69.4369,29.819 111.22564,29.819 60.64582,0 102.94413,-19.879 126.89791,-59.637 h 1.52772 v 54.36926 H 461.72037 V 0 Z"
         transform="translate(248,202)"
         id="path4" />
    </g>
  </g>
</svg>
