<?xml version="1.0" encoding="UTF-8" standalone="no"?>
<svg
   xmlns:dc="http://purl.org/dc/elements/1.1/"
   xmlns:cc="http://creativecommons.org/ns#"
   xmlns:rdf="http://www.w3.org/1999/02/22-rdf-syntax-ns#"
   xmlns:svg="http://www.w3.org/2000/svg"
   xmlns="http://www.w3.org/2000/svg"
   xmlns:sodipodi="http://sodipodi.sourceforge.net/DTD/sodipodi-0.dtd"
   xmlns:inkscape="http://www.inkscape.org/namespaces/inkscape"
   width="600"
   height="600"
   viewBox="0 0 600 600"
   version="1.1"
   id="svg8"
   inkscape:version="1.0.2 (e86c870879, 2021-01-15, custom)"
   sodipodi:docname="gog.svg">
  <defs
     id="defs2">
    <clipPath
       clipPathUnits="userSpaceOnUse"
       id="clipPath20">
      <path
         d="M 0,141.73 H 141.73 V 0 H 0 Z"
         id="path18" />
    </clipPath>
  </defs>
  <sodipodi:namedview
     id="base"
     pagecolor="#ffffff"
     bordercolor="#666666"
     borderopacity="1.0"
     inkscape:pageopacity="0.0"
     inkscape:pageshadow="2"
     inkscape:zoom="0.35"
     inkscape:cx="-285.71429"
     inkscape:cy="445.71429"
     inkscape:document-units="px"
     inkscape:current-layer="layer1"
     inkscape:document-rotation="0"
     showgrid="false"
     units="px"
     inkscape:window-width="1920"
     inkscape:window-height="1019"
     inkscape:window-x="0"
     inkscape:window-y="33"
     inkscape:window-maximized="1" />
  <metadata
     id="metadata5">
    <rdf:RDF>
      <cc:Work
         rdf:about="">
        <dc:format>image/svg+xml</dc:format>
        <dc:type
           rdf:resource="http://purl.org/dc/dcmitype/StillImage" />
        <dc:title></dc:title>
      </cc:Work>
    </rdf:RDF>
  </metadata>
  <g
     inkscape:label="Calque 1"
     inkscape:groupmode="layer"
     id="layer1">
    <path
       d="M 0,600 H 600 V 0 H 0 Z"
       style="fill:#303030;fill-opacity:1;fill-rule:nonzero;stroke:none;stroke-width:4.23339"
       id="path12" />
    <g
       id="g14"
       transform="matrix(4.2334015,0,0,-4.2334015,0,600)">
      <g
         id="g16"
         clip-path="url(#clipPath20)">
        <g
           id="g22"
           transform="translate(92.9308,79.5335)">
          <path
             d="M 0,0 C 0,-1.365 -1.104,-2.463 -2.461,-2.463 H -13.018 V 0.71 h 8.894 0.006 c 0.526,0 0.948,0.428 0.948,0.949 v 0.006 10.475 0.007 c 0,0.523 -0.422,0.947 -0.948,0.947 H -4.124 -8.891 -8.9 c -0.518,0 -0.941,-0.424 -0.941,-0.947 V 12.14 7.38 7.374 c 0,-0.524 0.423,-0.949 0.941,-0.949 h 0.009 3.81 V 3.252 h -5.474 c -1.362,0 -2.463,1.1 -2.463,2.461 v 8.094 c 0,1.36 1.101,2.462 2.463,2.462 h 8.094 C -1.104,16.269 0,15.167 0,13.807 Z m -0.009,-18.413 h -3.128 v 9.698 h -2.187 -0.011 c -0.517,0 -0.931,-0.418 -0.931,-0.934 v -0.006 -8.758 h -3.128 v 9.698 h -2.192 -0.007 c -0.517,0 -0.931,-0.418 -0.931,-0.934 v -0.006 -8.765 h -3.128 v 10.413 c 0,1.332 1.083,2.418 2.426,2.418 H -0.009 Z M -18.017,3.252 h -8.098 c -1.36,0 -2.459,1.1 -2.459,2.461 v 8.094 c 0,1.36 1.099,2.462 2.459,2.462 h 8.098 c 1.356,0 2.46,-1.102 2.46,-2.462 V 5.713 c 0,-1.361 -1.104,-2.461 -2.46,-2.461 m -0.14,-19.239 c 0,-1.34 -1.086,-2.426 -2.424,-2.426 h -7.977 c -1.343,0 -2.427,1.086 -2.427,2.426 v 7.98 c 0,1.332 1.084,2.418 2.427,2.418 h 7.977 c 1.338,0 2.424,-1.086 2.424,-2.418 z M -31.114,0 c 0,-1.365 -1.103,-2.463 -2.462,-2.463 H -44.132 V 0.71 h 8.89 0.01 c 0.524,0 0.944,0.428 0.944,0.949 v 0.006 10.475 0.007 c 0,0.523 -0.42,0.947 -0.944,0.947 h -0.01 -4.763 -0.011 c -0.523,0 -0.943,-0.424 -0.943,-0.947 V 12.14 7.38 7.374 c 0,-0.524 0.42,-0.949 0.943,-0.949 h 0.011 3.811 V 3.252 h -5.477 c -1.362,0 -2.461,1.1 -2.461,2.461 v 8.094 c 0,1.36 1.099,2.462 2.461,2.462 h 8.095 c 1.359,0 2.462,-1.102 2.462,-2.462 z m -2.375,-8.715 h -6.566 -0.01 c -0.516,0 -0.93,-0.418 -0.93,-0.934 0,0 0.002,0 0.002,-0.006 h -0.002 v -4.694 h 0.002 l -0.002,-0.003 c 0,-0.515 0.414,-0.937 0.93,-0.937 h 0.01 0.68 5.886 v -3.131 h -8.207 v 0.007 c -1.342,0 -2.429,1.086 -2.429,2.426 v 7.98 c 0,1.332 1.087,2.418 2.429,2.418 h 8.207 z M 2.616,25.826 h -49.364 c -1.981,0 -3.587,-1.606 -3.587,-3.586 v -46.63 c 0,-1.981 1.606,-3.586 3.587,-3.586 H 2.616 c 1.982,0 3.588,1.605 3.588,3.586 v 46.63 c 0,1.98 -1.606,3.586 -3.588,3.586"
             style="fill:#ffffff;fill-opacity:1;fill-rule:evenodd;stroke:none"
             id="path24" />
        </g>
        <g
           id="g26"
           transform="translate(73.257,92.6275)">
          <path
             d="M 0,0 C 0.525,0 0.936,-0.424 0.936,-0.947 V -0.954 -5.714 -5.72 C 0.936,-6.244 0.525,-6.669 0,-6.669 h -0.011 -4.763 -0.007 c -0.525,0 -0.946,0.425 -0.946,0.949 v 0.006 4.76 0.007 C -5.727,-0.424 -5.306,0 -4.781,0 H -4.774 -0.011 0"
             style="fill:#ffffff;fill-opacity:1;fill-rule:evenodd;stroke:none"
             id="path28" />
        </g>
        <g
           id="g30"
           transform="translate(70.7181,70.819)">
          <path
             d="m 0,0 c 0.514,0 0.928,-0.419 0.928,-0.935 v -0.006 -4.693 c 0,-0.515 -0.414,-0.937 -0.928,-0.937 -0.005,0 -0.006,0.005 -0.011,0.005 v -0.005 h -4.692 v 0.005 c 0,0 -0.005,-0.005 -0.01,-0.005 -0.516,0 -0.93,0.422 -0.93,0.937 v 4.693 0.006 c 0,0.516 0.414,0.935 0.93,0.935 h 0.01 4.692 L 0,0"
             style="fill:#ffffff;fill-opacity:1;fill-rule:evenodd;stroke:none"
             id="path32" />
        </g>
        <g
           id="g34"
           transform="translate(48.4195,36.5908)">
          <path
             d="m 0,0 c -0.465,-0.147 -0.975,-0.22 -1.53,-0.22 -0.657,0 -1.249,0.101 -1.776,0.305 -0.528,0.203 -0.979,0.488 -1.353,0.854 -0.374,0.367 -0.662,0.806 -0.863,1.318 -0.201,0.514 -0.302,1.077 -0.302,1.692 0,0.623 0.098,1.191 0.293,1.703 0.196,0.513 0.474,0.952 0.835,1.319 0.361,0.367 0.799,0.65 1.315,0.851 0.517,0.202 1.094,0.302 1.732,0.302 0.323,0 0.623,-0.024 0.9,-0.071 C -0.472,8.006 -0.215,7.938 0.02,7.848 0.255,7.759 0.474,7.65 0.675,7.524 0.876,7.396 1.064,7.252 1.239,7.094 L 0.925,6.592 C 0.876,6.516 0.812,6.468 0.734,6.447 0.657,6.426 0.57,6.444 0.475,6.501 0.384,6.554 0.28,6.619 0.162,6.695 0.044,6.77 -0.099,6.844 -0.268,6.914 c -0.169,0.07 -0.368,0.13 -0.598,0.18 -0.23,0.049 -0.502,0.073 -0.817,0.073 -0.46,0 -0.875,-0.074 -1.248,-0.224 C -3.303,6.792 -3.62,6.578 -3.882,6.299 -4.144,6.02 -4.345,5.682 -4.486,5.285 c -0.14,-0.396 -0.21,-0.842 -0.21,-1.336 0,-0.512 0.073,-0.97 0.219,-1.375 0.146,-0.404 0.355,-0.749 0.627,-1.031 0.271,-0.283 0.601,-0.498 0.988,-0.647 0.387,-0.148 0.822,-0.222 1.304,-0.222 0.19,0 0.368,0.012 0.533,0.034 0.165,0.023 0.323,0.055 0.475,0.095 0.152,0.04 0.298,0.089 0.439,0.147 0.14,0.06 0.283,0.127 0.427,0.203 v 1.8 h -1.27 c -0.072,0 -0.131,0.021 -0.174,0.062 -0.043,0.042 -0.066,0.093 -0.066,0.155 V 3.796 H 1.313 V 0.663 C 0.903,0.367 0.465,0.146 0,0"
             style="fill:#ffffff;fill-opacity:1;fill-rule:nonzero;stroke:none"
             id="path36" />
        </g>
        <g
           id="g38"
           transform="translate(58.2815,40.54)">
          <path
             d="M 0,0 C 0,0.501 -0.068,0.951 -0.205,1.35 -0.342,1.749 -0.535,2.086 -0.786,2.361 -1.037,2.636 -1.34,2.848 -1.697,2.996 -2.054,3.145 -2.453,3.218 -2.893,3.218 -3.33,3.218 -3.727,3.145 -4.084,2.996 -4.44,2.848 -4.745,2.636 -4.998,2.361 -5.25,2.086 -5.445,1.749 -5.582,1.35 -5.718,0.951 -5.787,0.501 -5.787,0 c 0,-0.501 0.069,-0.95 0.205,-1.347 0.137,-0.397 0.332,-0.733 0.584,-1.008 0.253,-0.275 0.558,-0.486 0.914,-0.632 0.357,-0.146 0.754,-0.22 1.191,-0.22 0.44,0 0.839,0.074 1.196,0.22 0.357,0.146 0.66,0.357 0.911,0.632 0.251,0.275 0.444,0.611 0.581,1.008 C -0.068,-0.95 0,-0.501 0,0 m 1.133,0 c 0,-0.611 -0.096,-1.172 -0.29,-1.683 -0.194,-0.51 -0.467,-0.95 -0.82,-1.318 -0.354,-0.369 -0.777,-0.655 -1.273,-0.858 -0.496,-0.203 -1.044,-0.304 -1.643,-0.304 -0.6,0 -1.147,0.101 -1.641,0.304 -0.493,0.203 -0.917,0.489 -1.27,0.858 -0.353,0.368 -0.626,0.808 -0.82,1.318 -0.193,0.511 -0.29,1.072 -0.29,1.683 0,0.612 0.097,1.172 0.29,1.684 0.194,0.51 0.467,0.95 0.82,1.321 0.353,0.37 0.777,0.658 1.27,0.863 0.494,0.205 1.041,0.307 1.641,0.307 0.599,0 1.147,-0.102 1.643,-0.307 C -0.754,3.663 -0.331,3.375 0.023,3.005 0.376,2.634 0.649,2.194 0.843,1.684 1.037,1.172 1.133,0.612 1.133,0"
             style="fill:#ffffff;fill-opacity:1;fill-rule:nonzero;stroke:none"
             id="path40" />
        </g>
        <g
           id="g42"
           transform="translate(66.7591,36.5908)">
          <path
             d="m 0,0 c -0.465,-0.147 -0.975,-0.22 -1.53,-0.22 -0.657,0 -1.249,0.101 -1.776,0.305 -0.528,0.203 -0.979,0.488 -1.353,0.854 -0.374,0.367 -0.662,0.806 -0.863,1.318 -0.201,0.514 -0.302,1.077 -0.302,1.692 0,0.623 0.098,1.191 0.293,1.703 0.196,0.513 0.474,0.952 0.835,1.319 0.361,0.367 0.799,0.65 1.315,0.851 0.517,0.202 1.094,0.302 1.732,0.302 0.323,0 0.623,-0.024 0.9,-0.071 C -0.472,8.006 -0.215,7.938 0.02,7.848 0.255,7.759 0.474,7.65 0.675,7.524 0.876,7.396 1.064,7.252 1.239,7.094 L 0.925,6.592 C 0.876,6.516 0.812,6.468 0.734,6.447 0.657,6.426 0.57,6.444 0.475,6.501 0.384,6.554 0.28,6.619 0.162,6.695 0.044,6.77 -0.099,6.844 -0.268,6.914 c -0.169,0.07 -0.368,0.13 -0.598,0.18 -0.23,0.049 -0.502,0.073 -0.817,0.073 -0.46,0 -0.875,-0.074 -1.248,-0.224 C -3.303,6.792 -3.62,6.578 -3.882,6.299 -4.144,6.02 -4.345,5.682 -4.486,5.285 c -0.14,-0.396 -0.21,-0.842 -0.21,-1.336 0,-0.512 0.073,-0.97 0.219,-1.375 0.146,-0.404 0.355,-0.749 0.627,-1.031 0.271,-0.283 0.601,-0.498 0.988,-0.647 0.387,-0.148 0.822,-0.222 1.304,-0.222 0.19,0 0.368,0.012 0.533,0.034 0.165,0.023 0.323,0.055 0.475,0.095 0.152,0.04 0.298,0.089 0.439,0.147 0.14,0.06 0.283,0.127 0.427,0.203 v 1.8 h -1.27 c -0.072,0 -0.131,0.021 -0.174,0.062 -0.043,0.042 -0.065,0.093 -0.065,0.155 V 3.796 H 1.313 V 0.663 C 0.903,0.367 0.465,0.146 0,0"
             style="fill:#ffffff;fill-opacity:1;fill-rule:nonzero;stroke:none"
             id="path44" />
        </g>
        <g
           id="g46"
           transform="translate(69.995,37.0891)">
          <path
             d="M 0,0 C 0,0.098 0.018,0.191 0.054,0.278 0.09,0.366 0.139,0.442 0.202,0.506 0.265,0.571 0.34,0.622 0.427,0.66 0.514,0.698 0.607,0.717 0.706,0.717 0.805,0.717 0.898,0.698 0.985,0.66 1.072,0.622 1.148,0.571 1.213,0.506 1.277,0.442 1.329,0.366 1.367,0.278 1.404,0.191 1.424,0.098 1.424,0 1.424,-0.102 1.404,-0.197 1.367,-0.282 1.329,-0.368 1.277,-0.443 1.213,-0.507 1.148,-0.572 1.072,-0.622 0.985,-0.658 0.898,-0.694 0.805,-0.712 0.706,-0.712 0.607,-0.712 0.514,-0.694 0.427,-0.658 0.34,-0.622 0.265,-0.572 0.202,-0.507 0.139,-0.443 0.09,-0.368 0.054,-0.282 0.018,-0.197 0,-0.102 0,0"
             style="fill:#ffffff;fill-opacity:1;fill-rule:nonzero;stroke:none"
             id="path48" />
        </g>
        <g
           id="g50"
           transform="translate(79.0111,38.1479)">
          <path
             d="m 0,0 c 0.061,0 0.114,-0.024 0.159,-0.074 l 0.439,-0.473 c -0.334,-0.387 -0.74,-0.689 -1.216,-0.906 -0.477,-0.216 -1.053,-0.324 -1.729,-0.324 -0.585,0 -1.116,0.101 -1.595,0.305 -0.478,0.203 -0.886,0.487 -1.224,0.854 -0.338,0.367 -0.6,0.806 -0.786,1.318 -0.186,0.514 -0.279,1.077 -0.279,1.692 0,0.616 0.097,1.179 0.29,1.692 0.194,0.512 0.466,0.953 0.818,1.321 0.351,0.369 0.771,0.654 1.261,0.858 0.49,0.203 1.031,0.304 1.624,0.304 0.58,0 1.093,-0.093 1.537,-0.279 C -0.257,6.102 0.135,5.85 0.473,5.531 L 0.108,5.024 C 0.085,4.986 0.056,4.955 0.02,4.93 -0.017,4.905 -0.065,4.893 -0.126,4.893 -0.194,4.893 -0.277,4.93 -0.376,5.004 -0.475,5.077 -0.604,5.161 -0.764,5.251 -0.923,5.343 -1.122,5.425 -1.361,5.499 -1.6,5.574 -1.895,5.61 -2.244,5.61 -2.666,5.61 -3.051,5.538 -3.4,5.391 -3.75,5.245 -4.051,5.033 -4.303,4.756 -4.555,4.479 -4.752,4.141 -4.893,3.742 -5.033,3.343 -5.104,2.893 -5.104,2.392 c 0,-0.508 0.074,-0.962 0.22,-1.361 0.146,-0.399 0.346,-0.736 0.598,-1.011 0.252,-0.275 0.55,-0.485 0.894,-0.629 0.344,-0.144 0.715,-0.217 1.113,-0.217 0.244,0 0.463,0.014 0.659,0.043 0.195,0.029 0.375,0.073 0.541,0.134 0.165,0.06 0.319,0.138 0.461,0.23 0.142,0.093 0.283,0.205 0.424,0.334 C -0.129,-0.028 -0.065,0 0,0"
             style="fill:#ffffff;fill-opacity:1;fill-rule:nonzero;stroke:none"
             id="path52" />
        </g>
        <g
           id="g54"
           transform="translate(87.5168,40.54)">
          <path
             d="M 0,0 C 0,0.501 -0.068,0.951 -0.205,1.35 -0.342,1.749 -0.535,2.086 -0.786,2.361 -1.037,2.636 -1.34,2.848 -1.697,2.996 -2.054,3.145 -2.453,3.218 -2.893,3.218 -3.33,3.218 -3.727,3.145 -4.084,2.996 -4.44,2.848 -4.745,2.636 -4.998,2.361 -5.25,2.086 -5.445,1.749 -5.582,1.35 -5.718,0.951 -5.787,0.501 -5.787,0 c 0,-0.501 0.069,-0.95 0.205,-1.347 0.137,-0.397 0.332,-0.733 0.584,-1.008 0.253,-0.275 0.558,-0.486 0.914,-0.632 0.357,-0.146 0.754,-0.22 1.191,-0.22 0.44,0 0.839,0.074 1.196,0.22 0.357,0.146 0.66,0.357 0.911,0.632 0.251,0.275 0.444,0.611 0.581,1.008 C -0.068,-0.95 0,-0.501 0,0 m 1.133,0 c 0,-0.611 -0.096,-1.172 -0.29,-1.683 -0.194,-0.51 -0.467,-0.95 -0.82,-1.318 -0.354,-0.369 -0.777,-0.655 -1.273,-0.858 -0.496,-0.203 -1.044,-0.304 -1.643,-0.304 -0.6,0 -1.147,0.101 -1.641,0.304 -0.493,0.203 -0.917,0.489 -1.27,0.858 -0.353,0.368 -0.626,0.808 -0.82,1.318 -0.193,0.511 -0.29,1.072 -0.29,1.683 0,0.612 0.097,1.172 0.29,1.684 0.194,0.51 0.467,0.95 0.82,1.321 0.353,0.37 0.777,0.658 1.27,0.863 0.494,0.205 1.041,0.307 1.641,0.307 0.599,0 1.147,-0.102 1.643,-0.307 C -0.754,3.663 -0.331,3.375 0.023,3.005 0.376,2.634 0.649,2.194 0.843,1.684 1.037,1.172 1.133,0.612 1.133,0"
             style="fill:#ffffff;fill-opacity:1;fill-rule:nonzero;stroke:none"
             id="path56" />
        </g>
        <g
           id="g58"
           transform="translate(94.7888,39.1245)">
          <path
             d="m 0,0 c 0.042,-0.1 0.083,-0.2 0.125,-0.298 0.038,0.102 0.078,0.204 0.12,0.304 0.041,0.1 0.087,0.197 0.136,0.287 L 3.15,5.311 C 3.195,5.399 3.245,5.452 3.3,5.471 3.355,5.49 3.432,5.499 3.531,5.499 H 4.346 V -2.662 H 3.377 v 5.997 c 0,0.08 0.002,0.165 0.006,0.257 0.004,0.091 0.01,0.183 0.017,0.279 L 0.603,-1.233 C 0.516,-1.403 0.383,-1.489 0.205,-1.489 h -0.16 c -0.178,0 -0.311,0.086 -0.398,0.256 l -2.859,5.121 c 0.011,-0.1 0.019,-0.196 0.025,-0.29 0.006,-0.096 0.009,-0.183 0.009,-0.263 v -5.997 h -0.969 v 8.161 h 0.815 c 0.099,0 0.174,-0.009 0.228,-0.028 C -3.051,5.452 -3,5.399 -2.951,5.311 l 2.82,-5.023 C -0.086,0.197 -0.042,0.101 0,0"
             style="fill:#ffffff;fill-opacity:1;fill-rule:nonzero;stroke:none"
             id="path60" />
        </g>
      </g>
    </g>
  </g>
</svg>
