<?xml version="1.0" encoding="UTF-8" standalone="no"?>
<svg
   xmlns:dc="http://purl.org/dc/elements/1.1/"
   xmlns:cc="http://creativecommons.org/ns#"
   xmlns:rdf="http://www.w3.org/1999/02/22-rdf-syntax-ns#"
   xmlns:svg="http://www.w3.org/2000/svg"
   xmlns="http://www.w3.org/2000/svg"
   xmlns:sodipodi="http://sodipodi.sourceforge.net/DTD/sodipodi-0.dtd"
   xmlns:inkscape="http://www.inkscape.org/namespaces/inkscape"
   width="100"
   height="100"
   viewBox="0 0 100 100"
   version="1.1"
   id="svg8"
   inkscape:version="1.0.2 (e86c870879, 2021-01-15, custom)"
   sodipodi:docname="pinterest.svg">
  <defs
     id="defs2" />
  <sodipodi:namedview
     id="base"
     pagecolor="#ffffff"
     bordercolor="#666666"
     borderopacity="1.0"
     inkscape:pageopacity="0.0"
     inkscape:pageshadow="2"
     inkscape:zoom="1.4"
     inkscape:cx="-10.950061"
     inkscape:cy="60.203051"
     inkscape:document-units="px"
     inkscape:current-layer="layer1"
     inkscape:document-rotation="0"
     showgrid="false"
     units="px"
     inkscape:window-width="1920"
     inkscape:window-height="1019"
     inkscape:window-x="0"
     inkscape:window-y="33"
     inkscape:window-maximized="1" />
  <metadata
     id="metadata5">
    <rdf:RDF>
      <cc:Work
         rdf:about="">
        <dc:format>image/svg+xml</dc:format>
        <dc:type
           rdf:resource="http://purl.org/dc/dcmitype/StillImage" />
        <dc:title />
      </cc:Work>
    </rdf:RDF>
  </metadata>
  <g
     inkscape:label="Calque 1"
     inkscape:groupmode="layer"
     id="layer1">
    <path
       class="st0"
       d="M 50.041005,0 C 22.450545,0 0.0821235,22.368421 0.0821235,49.958881 c 0,21.175987 13.1578955,39.268093 31.7434215,46.546053 -0.452303,-3.947368 -0.822369,-10.032894 0.164473,-14.350328 0.904606,-3.90625 5.838816,-24.835528 5.838816,-24.835528 0,0 -1.480263,-3.001644 -1.480263,-7.401315 0,-6.949014 4.029605,-12.129935 9.046052,-12.129935 4.276316,0 6.332237,3.207237 6.332237,7.03125 0,4.276316 -2.713816,10.69079 -4.15296,16.652961 -1.192434,4.975329 2.508223,9.046052 7.401315,9.046052 8.881579,0 15.707237,-9.375 15.707237,-22.861842 0,-11.96546 -8.59375,-20.312499 -20.888158,-20.312499 -14.226973,0 -22.574012,10.649671 -22.574012,21.669407 0,4.276316 1.644736,8.881579 3.700657,11.389803 0.411185,0.493421 0.452303,0.945723 0.328948,1.439145 -0.370066,1.562499 -1.233553,4.975328 -1.398027,5.674342 -0.205592,0.904605 -0.740131,1.110197 -1.685855,0.657894 -6.25,-2.919408 -10.15625,-12.006579 -10.15625,-19.366776 0,-15.748355 11.430921,-30.222039 33.018092,-30.222039 17.310855,0 30.797699,12.335526 30.797699,28.865131 0,17.228619 -10.855265,31.085527 -25.904607,31.085527 -5.057566,0 -9.827302,-2.63158 -11.430921,-5.75658 0,0 -2.508223,9.539475 -3.125,11.883225 -1.110197,4.358553 -4.15296,9.786184 -6.208881,13.116776 C 39.843637,99.21875 44.777847,100 49.958768,100 77.54923,100 99.917651,77.631578 99.917651,50.041118 99.999881,22.368421 77.631467,0 50.041005,0 Z"
       id="path4"
       style="fill:#e60023;stroke-width:0.411184" />
  </g>
</svg>
