<?xml version="1.0" encoding="UTF-8" standalone="no"?>
<!-- Created with Inkscape (http://www.inkscape.org/) -->

<svg
   xmlns:dc="http://purl.org/dc/elements/1.1/"
   xmlns:cc="http://creativecommons.org/ns#"
   xmlns:rdf="http://www.w3.org/1999/02/22-rdf-syntax-ns#"
   xmlns:svg="http://www.w3.org/2000/svg"
   xmlns="http://www.w3.org/2000/svg"
   xmlns:sodipodi="http://sodipodi.sourceforge.net/DTD/sodipodi-0.dtd"
   xmlns:inkscape="http://www.inkscape.org/namespaces/inkscape"
   width="500"
   height="500.00006"
   viewBox="0 0 132.29167 132.29168"
   version="1.1"
   id="svg8"
   inkscape:version="0.92.4 5da689c313, 2019-01-14"
   sodipodi:docname="Pinterest (copie 1).svg">
  <defs
     id="defs2" />
  <sodipodi:namedview
     id="base"
     pagecolor="#ffffff"
     bordercolor="#666666"
     borderopacity="1.0"
     inkscape:pageopacity="0.0"
     inkscape:pageshadow="2"
     inkscape:zoom="0.49497475"
     inkscape:cx="-94.466566"
     inkscape:cy="489.89396"
     inkscape:document-units="mm"
     inkscape:current-layer="layer3"
     showgrid="false"
     fit-margin-top="0"
     fit-margin-left="0"
     fit-margin-right="0"
     fit-margin-bottom="0"
     units="px"
     inkscape:window-width="1920"
     inkscape:window-height="1024"
     inkscape:window-x="0"
     inkscape:window-y="28"
     inkscape:window-maximized="1" />
  <metadata
     id="metadata5">
    <rdf:RDF>
      <cc:Work
         rdf:about="">
        <dc:format>image/svg+xml</dc:format>
        <dc:type
           rdf:resource="http://purl.org/dc/dcmitype/StillImage" />
        <dc:title></dc:title>
      </cc:Work>
    </rdf:RDF>
  </metadata>
  <g
     inkscape:groupmode="layer"
     id="layer3"
     inkscape:label="Logo"
     transform="translate(19.957136,-49.152015)">
    <g
       style="display:inline"
       id="g836"
       transform="matrix(0.38353909,0,0,0.38353909,-252.89149,-117.19081)">
      <path
         d="m 722.32804,708.7436 c 2.89205,-12.42463 18.66753,-79.13122 18.66753,-79.13122 0,0 -4.76224,-9.53588 -4.76224,-23.63537 0,-22.13554 12.82999,-38.66166 28.80518,-38.66166 13.58172,0 20.14301,10.19736 20.14301,22.42483 0,13.65875 -8.69677,34.07926 -13.1852,53.00473 -3.75033,15.84511 7.94651,28.76684 23.57456,28.76684 28.29515,0 50.04377,-29.83441 50.04377,-72.89974 0,-38.11627 -27.38862,-64.7664 -66.49654,-64.7664 -45.29593,0 -71.88339,33.9746 -71.88339,69.08605 0,13.68234 5.27114,28.35485 11.8475,36.33011 1.3001,1.57574 1.49136,2.95764 1.10406,4.56581 -1.20869,5.02866 -3.89401,15.84143 -4.42172,18.05395 -0.69463,2.91416 -2.30723,3.53178 -5.3231,2.12887 -19.88395,-9.25545 -32.31446,-38.32373 -32.31446,-61.67277 0,-50.21845 36.48671,-96.33576 105.18618,-96.33576 55.22426,0 98.14182,39.35188 98.14182,91.94351 0,54.86495 -34.59407,99.01961 -82.6092,99.01961 -16.1307,0 -31.29629,-8.38027 -36.48708,-18.27986 0,0 -7.91741,30.4126 -9.9173,37.84357 -4.23858,15.74784 -18.14975,41.35908 -28.53248,54.1784 -0.0221,-0.20195 -1.38632,-9.8786 -2.13291,-16.2472 -1.47403,-12.57965 -2.53055,-32.47654 0.55201,-45.7163 z M 952.25241,606.16679 c 0,-43.79571 0,-172.46178 0,-172.46178 0,0 -121.00958,0 -172.46178,0 -40.18396,0 -172.46178,0 -172.46178,0 0,0 0,117.39783 0,172.46178 0,43.98107 0,172.46181 0,172.46181 0,0 152.74807,0 172.45329,0 0.003,0 172.47027,0 172.47027,0 0,0 0,-124.28453 0,-172.46181"
         style="fill:#e60023;fill-opacity:1;fill-rule:nonzero;stroke:none;stroke-width:0.03685081"
         id="path14"
         inkscape:connector-curvature="0" />
    </g>
  </g>
  <style
     id="style829"
     type="text/css">
	.st0{fill:#FFFFFF;}
	.st1{fill:#E60019;}
</style>
</svg>
