<?xml version="1.0" encoding="UTF-8" standalone="no"?>
<!-- Created with Inkscape (http://www.inkscape.org/) -->

<svg
   xmlns:dc="http://purl.org/dc/elements/1.1/"
   xmlns:cc="http://creativecommons.org/ns#"
   xmlns:rdf="http://www.w3.org/1999/02/22-rdf-syntax-ns#"
   xmlns:svg="http://www.w3.org/2000/svg"
   xmlns="http://www.w3.org/2000/svg"
   xmlns:sodipodi="http://sodipodi.sourceforge.net/DTD/sodipodi-0.dtd"
   xmlns:inkscape="http://www.inkscape.org/namespaces/inkscape"
   width="600"
   height="600"
   viewBox="0 0 158.74999 158.74999"
   version="1.1"
   id="svg8"
   inkscape:version="0.92.4 5da689c313, 2019-01-14"
   sodipodi:docname="Reddit-Square-Orange-Background.svg">
  <defs
     id="defs2" />
  <sodipodi:namedview
     id="base"
     pagecolor="#ffffff"
     bordercolor="#666666"
     borderopacity="1.0"
     inkscape:pageopacity="0.0"
     inkscape:pageshadow="2"
     inkscape:zoom="0.35"
     inkscape:cx="-371.64286"
     inkscape:cy="116.92857"
     inkscape:document-units="mm"
     inkscape:current-layer="layer2"
     showgrid="false"
     fit-margin-top="0"
     fit-margin-left="0"
     fit-margin-right="0"
     fit-margin-bottom="0"
     inkscape:window-width="1920"
     inkscape:window-height="1024"
     inkscape:window-x="0"
     inkscape:window-y="28"
     inkscape:window-maximized="1"
     units="px" />
  <metadata
     id="metadata5">
    <rdf:RDF>
      <cc:Work
         rdf:about="">
        <dc:format>image/svg+xml</dc:format>
        <dc:type
           rdf:resource="http://purl.org/dc/dcmitype/StillImage" />
        <dc:title></dc:title>
      </cc:Work>
    </rdf:RDF>
  </metadata>
  <g
     inkscape:groupmode="layer"
     id="layer2"
     inkscape:label="Background">
    <path
       d="M 158.75,158.75001 H 2.5e-6 V -8.5e-6 H 158.75 V 158.75001"
       style="fill:#ff4500;fill-opacity:1;fill-rule:nonzero;stroke:none;stroke-width:0.12402346"
       id="path14"
       inkscape:connector-curvature="0" />
  </g>
  <g
     inkscape:label="Logo"
     inkscape:groupmode="layer"
     id="layer1"
     transform="translate(-76.407887,-21.020695)">
    <path
       d="m 178.51572,122.11297 c -5.70178,0 -10.34072,-4.63894 -10.34072,-10.33899 0,-5.70293 4.63894,-10.3436 10.34072,-10.3436 5.70116,0 10.34084,4.64067 10.34084,10.3436 0,5.70005 -4.63968,10.33899 -10.34084,10.33899 z m 1.82057,16.98255 c -7.0576,7.04742 -20.58036,7.59621 -24.55654,7.59621 -3.97791,0 -17.50285,-0.54879 -24.55143,-7.5972 -1.04623,-1.04697 -1.04623,-2.74409 5.8e-4,-3.79049 1.04507,-1.04507 2.74293,-1.04622 3.78974,0 4.44714,4.44934 13.96368,6.02779 20.76111,6.02779 6.7957,0 16.31454,-1.57845 20.76956,-6.02952 1.04916,-1.04449 2.74467,-1.04334 3.78974,0.003 1.04697,1.048 1.0452,2.74351 -0.003,3.79032 z m -57.65895,-27.32327 c 0,-5.70293 4.64071,-10.34187 10.34538,-10.34187 5.69827,0 10.3356,4.63894 10.3356,10.34187 0,5.70001 -4.63733,10.33854 -10.3356,10.33854 -5.70467,0 -10.34538,-4.63853 -10.34538,-10.33854 z m 99.25138,-10.34187 c 0,-7.995342 -6.48103,-14.476535 -14.4758,-14.476535 -3.90185,0 -7.43595,1.551246 -10.04027,4.061952 -9.89489,-7.140618 -23.52903,-11.752231 -38.71503,-12.282846 l 6.59471,-31.025189 21.5449,4.580058 c 0.26298,5.477974 4.74858,9.848198 10.29068,9.848198 5.71208,0 10.34101,-4.629349 10.34101,-10.339548 0,-5.71151 -4.62893,-10.34144 -10.34101,-10.34144 -4.06063,0 -7.53975,2.364408 -9.23134,5.772874 l -24.05833,-5.115608 c -0.66919,-0.145421 -1.37066,-0.01319 -1.94373,0.360628 -0.57658,0.373694 -0.9788,0.961175 -1.12187,1.631524 l -7.36498,34.619476 c -15.40805,0.427114 -29.25961,5.045691 -39.28229,12.265699 -2.60101,-2.494095 -6.12378,-4.035778 -10.01195,-4.035778 -7.994758,0 -14.476368,6.481193 -14.476368,14.476535 0,5.88178 3.51431,10.93428 8.55254,13.19907 -0.22258,1.44049 -0.34459,2.90027 -0.34459,4.38 0,22.27192 25.925438,40.32691 57.906558,40.32691 31.98042,0 57.90626,-18.05499 57.90626,-40.32691 0,-1.47013 -0.12077,-2.92137 -0.34047,-4.34987 5.07055,-2.2523 8.61137,-7.32355 8.61137,-13.2292"
       style="fill:#ffffff;fill-opacity:1;fill-rule:nonzero;stroke:none;stroke-width:0.14541242"
       id="path16"
       inkscape:connector-curvature="0" />
  </g>
</svg>
