<?xml version="1.0" encoding="UTF-8" standalone="no"?>
<svg
   xmlns:dc="http://purl.org/dc/elements/1.1/"
   xmlns:cc="http://creativecommons.org/ns#"
   xmlns:rdf="http://www.w3.org/1999/02/22-rdf-syntax-ns#"
   xmlns:svg="http://www.w3.org/2000/svg"
   xmlns="http://www.w3.org/2000/svg"
   xmlns:sodipodi="http://sodipodi.sourceforge.net/DTD/sodipodi-0.dtd"
   xmlns:inkscape="http://www.inkscape.org/namespaces/inkscape"
   width="100"
   height="100"
   viewBox="0 0 100 100"
   version="1.1"
   id="svg8"
   inkscape:version="1.0.2 (e86c870879, 2021-01-15, custom)"
   sodipodi:docname="reddit.svg">
  <defs
     id="defs2" />
  <sodipodi:namedview
     id="base"
     pagecolor="#ffffff"
     bordercolor="#666666"
     borderopacity="1.0"
     inkscape:pageopacity="0.0"
     inkscape:pageshadow="2"
     inkscape:zoom="1.4"
     inkscape:cx="-10.950061"
     inkscape:cy="60.203051"
     inkscape:document-units="px"
     inkscape:current-layer="layer1"
     inkscape:document-rotation="0"
     showgrid="false"
     units="px"
     inkscape:window-width="1920"
     inkscape:window-height="1019"
     inkscape:window-x="0"
     inkscape:window-y="33"
     inkscape:window-maximized="1" />
  <metadata
     id="metadata5">
    <rdf:RDF>
      <cc:Work
         rdf:about="">
        <dc:format>image/svg+xml</dc:format>
        <dc:type
           rdf:resource="http://purl.org/dc/dcmitype/StillImage" />
        <dc:title />
      </cc:Work>
    </rdf:RDF>
  </metadata>
  <g
     inkscape:label="Calque 1"
     inkscape:groupmode="layer"
     id="layer1">
    <g
       id="g862"
       transform="matrix(0.58479532,0,0,0.58479532,22.848787,27.025899)">
      <circle
         class="st0"
         cx="46.428574"
         cy="39.285713"
         r="85.5"
         id="circle4"
         style="fill:#ff4500" />
      <path
         class="st1"
         d="m 103.42858,39.28572 c 0,-6.9 -5.6,-12.5 -12.5,-12.5 -3.4,0 -6.4,1.3 -8.6,3.5 -8.5,-6.1 -20.3,-10.1 -33.3,-10.6 l 5.7,-26.7 18.5,3.9 c 0.2,4.7 4.1,8.5 8.9,8.5 4.9,0 8.9,-4 8.9,-8.9 0,-4.9 -4,-8.9 -8.9,-8.9 -3.5,0 -6.5,2 -7.9,5 l -20.7,-4.4 c -0.6,-0.1 -1.2,0 -1.7,0.3 -0.5,0.3 -0.8,0.8 -1,1.4 l -6.3,29.8 c -13.3,0.4 -25.2,4.3 -33.8,10.6 -2.2,-2.1 -5.3,-3.5 -8.6,-3.5 -6.9,0 -12.5,5.6 -12.5,12.5 0,5.1 3,9.4 7.4,11.4 -0.2,1.2 -0.3,2.5 -0.3,3.8 0,19.2 22.3,34.7 49.9,34.7 27.6,0 49.9,-15.5 49.9,-34.7 0,-1.3 -0.1,-2.5 -0.3,-3.7 4.1,-2 7.2,-6.4 7.2,-11.5 z m -85.5,8.9 c 0,-4.9 4,-8.9 8.9,-8.9 4.9,0 8.9,4 8.9,8.9 0,4.9 -4,8.9 -8.9,8.9 -4.9,0 -8.9,-4 -8.9,-8.9 z m 49.7,23.5 c -6.1,6.1 -17.7,6.5 -21.1,6.5 -3.4,0 -15.1,-0.5 -21.1,-6.5 -0.9,-0.9 -0.9,-2.4 0,-3.3 0.9,-0.9 2.4,-0.9 3.3,0 3.8,3.8 12,5.2 17.9,5.2 5.9,0 14,-1.4 17.9,-5.2 0.9,-0.9 2.4,-0.9 3.3,0 0.7,1 0.7,2.4 -0.2,3.3 z m -1.6,-14.6 c -4.9,0 -8.9,-4 -8.9,-8.9 0,-4.9 4,-8.9 8.9,-8.9 4.9,0 8.9,4 8.9,8.9 0,4.9 -4,8.9 -8.9,8.9 z"
         id="path6"
         style="fill:#ffffff" />
    </g>
  </g>
</svg>
