<?xml version="1.0" encoding="UTF-8" standalone="no"?>
<!-- Created with Inkscape (http://www.inkscape.org/) -->

<svg
   xmlns:dc="http://purl.org/dc/elements/1.1/"
   xmlns:cc="http://creativecommons.org/ns#"
   xmlns:rdf="http://www.w3.org/1999/02/22-rdf-syntax-ns#"
   xmlns:svg="http://www.w3.org/2000/svg"
   xmlns="http://www.w3.org/2000/svg"
   xmlns:sodipodi="http://sodipodi.sourceforge.net/DTD/sodipodi-0.dtd"
   xmlns:inkscape="http://www.inkscape.org/namespaces/inkscape"
   width="600"
   height="600"
   viewBox="0 0 158.74999 158.75"
   version="1.1"
   id="svg8"
   inkscape:version="0.92.4 5da689c313, 2019-01-14"
   sodipodi:docname="Snapchat-Square-Yellow-Background.svg">
  <defs
     id="defs2" />
  <sodipodi:namedview
     id="base"
     pagecolor="#ffffff"
     bordercolor="#666666"
     borderopacity="1.0"
     inkscape:pageopacity="0.0"
     inkscape:pageshadow="2"
     inkscape:zoom="0.41247896"
     inkscape:cx="234.29067"
     inkscape:cy="603.34515"
     inkscape:document-units="mm"
     inkscape:current-layer="layer1"
     showgrid="false"
     units="px"
     fit-margin-top="0"
     fit-margin-left="0"
     fit-margin-right="0"
     fit-margin-bottom="0"
     inkscape:window-width="1920"
     inkscape:window-height="1024"
     inkscape:window-x="0"
     inkscape:window-y="28"
     inkscape:window-maximized="1" />
  <metadata
     id="metadata5">
    <rdf:RDF>
      <cc:Work
         rdf:about="">
        <dc:format>image/svg+xml</dc:format>
        <dc:type
           rdf:resource="http://purl.org/dc/dcmitype/StillImage" />
        <dc:title></dc:title>
      </cc:Work>
    </rdf:RDF>
  </metadata>
  <g
     inkscape:groupmode="layer"
     id="layer2"
     inkscape:label="Background">
    <rect
       style="opacity:1;fill:#fffc00;fill-opacity:1;stroke:none;stroke-width:1.005988;stroke-miterlimit:4;stroke-dasharray:none;stroke-opacity:1"
       id="rect861"
       width="158.75"
       height="158.75"
       x="0"
       y="0" />
  </g>
  <g
     inkscape:label="Logo"
     inkscape:groupmode="layer"
     id="layer1"
     transform="translate(240.01039,-16.889968)">
    <path
       inkscape:connector-curvature="0"
       class="cls-1"
       d="m -103.87568,127.57904 c -20.48621,-9.91694 -23.7513,-25.22837 -23.89664,-26.36405 -0.17576,-1.375674 -0.37518,-2.457264 1.14244,-3.856594 1.46355,-1.352 7.95653,-5.37083 9.75808,-6.62819 2.97778,-2.08208 4.28923,-4.16079 3.32255,-6.71607 -0.676,-1.76775 -2.32207,-2.43361 -4.05601,-2.43361 a 7.5374137,7.5374137 0 0 0 -1.62579,0.182531 c -3.27185,0.70979 -6.44905,2.349099 -8.28777,2.791879 a 2.8932852,2.8932852 0 0 1 -0.676,0.0912 c -0.9802,0 -1.352,-0.43603 -1.25736,-1.61565 0.22984,-3.57604 0.71656,-10.555759 0.15209,-17.07579 -0.77401,-8.97053 -3.6673,-13.41525 -7.09801,-17.34619 -1.65958,-1.90633 -9.36599,-10.09608 -24.23802,-10.09608 -14.87202,0 -22.5683,8.18975 -24.21774,10.07242 -3.44085,3.93094 -6.33076,8.37565 -7.09801,17.34619 -0.56447,6.52003 -0.0575,13.49636 0.1521,17.07579 0.0676,1.12216 -0.27717,1.615641 -1.25737,1.615641 a 2.9203253,2.9203253 0 0 1 -0.676,-0.0912 c -1.83534,-0.44277 -5.01255,-2.08208 -8.28439,-2.79187 a 7.5374137,7.5374137 0 0 0 -1.62579,-0.18253 c -1.74069,0 -3.38,0.67601 -4.056,2.433609 -0.96669,2.555281 0.33799,4.633991 3.32592,6.716071 1.80155,1.25736 8.29453,5.272809 9.75808,6.628189 1.51424,1.39933 1.31821,2.48092 1.14244,3.856594 -0.14534,1.15259 -3.41381,16.46401 -23.89664,26.36405 -1.1999,0.58136 -3.24142,1.81168 0.35828,3.79912 5.65137,3.12313 9.41331,2.78851 12.33702,4.67117 2.48092,1.59874 1.014,5.04635 2.81893,6.29019 2.21728,1.53114 8.77111,-0.1082 17.23803,2.68711 7.09802,2.33896 11.4109,8.94688 23.99804,8.94688 12.58715,0 17.02509,-6.63834 23.99805,-8.94688 8.45001,-2.79527 15.01737,-1.15597 17.23803,-2.68711 1.80154,-1.24384 0.33799,-4.69145 2.81892,-6.29019 2.92371,-1.88266 6.68228,-1.54804 12.33703,-4.67117 3.59295,-1.96378 1.55141,-3.1941 0.35151,-3.77546 z"
       id="path8"
       style="fill:#ffffff;fill-opacity:1;stroke-width:0.3380006" />
    <path
       inkscape:connector-curvature="0"
       d="m -94.962612,126.41294 c -0.91935,-2.50121 -2.67019,-3.83969 -4.6644,-4.94833 -0.375168,-0.2197 -0.719938,-0.39546 -1.014008,-0.53066 -0.59487,-0.30759 -1.20327,-0.60503 -1.8083,-0.91937 -6.21582,-3.2955 -11.06951,-7.45291 -14.436,-12.38095 a 28.074331,28.074331 0 0 1 -2.47755,-4.39402 c -0.28729,-0.82134 -0.27378,-1.28778 -0.0676,-1.71367 a 2.7885051,2.7885051 0 0 1 0.7943,-0.82809 c 1.06808,-0.706424 2.16996,-1.422983 2.91694,-1.906323 1.33173,-0.8619 2.38629,-1.54467 3.06567,-2.028 2.55191,-1.78465 4.33655,-3.68084 5.45195,-5.800091 a 11.549481,11.549481 0 0 0 0.57122,-9.592469 c -1.69,-4.448091 -5.89135,-7.20955 -10.98163,-7.20955 a 15.125527,15.125527 0 0 0 -3.19412,0.337999 c -0.28053,0.0608 -0.56108,0.12506 -0.83486,0.196041 0.0473,-3.042 -0.0203,-6.25301 -0.29068,-9.41332 -0.95992,-11.110081 -4.8503,-16.93383 -8.90631,-21.57796 a 35.490064,35.490064 0 0 0 -9.05504,-7.28728 c -6.15499,-3.51522 -13.13471,-5.29986 -20.7431,-5.29986 -7.60839,0 -14.55431,1.78464 -20.71605,5.29986 a 35.361624,35.361624 0 0 0 -9.07194,7.30081 c -4.05601,4.64412 -7.94639,10.47801 -8.90632,21.57796 -0.27039,3.1603 -0.338,6.3882 -0.29405,9.41331 -0.27379,-0.071 -0.55095,-0.1352 -0.83149,-0.196051 a 15.125527,15.125527 0 0 0 -3.1941,-0.33799 c -5.09367,0 -9.30179,2.761471 -10.98502,7.209551 a 11.563001,11.563001 0 0 0 0.55769,9.60261 c 1.11879,2.119249 2.90343,4.01544 5.45534,5.80009 0.67599,0.47319 1.73394,1.15595 3.06567,2.028 0.71993,0.46643 1.77111,1.1492 2.80201,1.831963 a 3.0082055,3.0082055 0 0 1 0.8991,0.90247 c 0.21631,0.44277 0.22307,0.91935 -0.098,1.79815 a 27.81407,27.81407 0 0 1 -2.43699,4.30275 c -3.29212,4.81651 -8.00385,8.89955 -14.02027,12.16802 -3.18734,1.69001 -6.49974,2.81893 -7.89907,6.62144 -1.05456,2.86962 -0.36504,6.1347 2.31531,8.88603 v 0 a 13.394964,13.394964 0 0 0 3.38,2.55866 36.622366,36.622366 0 0 0 8.27087,3.30903 5.46209,5.46209 0 0 1 1.66974,0.74698 c 0.97681,0.85515 0.83823,2.14292 2.13954,4.02896 a 9.3964171,9.3964171 0 0 0 2.44712,2.48769 c 2.73105,1.88604 5.80009,2.00435 9.05165,2.1294 2.93723,0.11153 6.26654,0.23999 10.06904,1.49397 1.57509,0.52052 3.21101,1.52776 5.1072,2.70401 4.55286,2.79864 10.78559,6.62819 21.21629,6.62819 10.4307,0 16.70738,-3.84983 21.29404,-6.65861 1.88266,-1.15597 3.50845,-2.15307 5.03959,-2.66008 3.80251,-1.25736 7.13182,-1.38241 10.06904,-1.49395 3.25157,-0.12506 6.3206,-0.24336 9.05166,-2.12941 a 9.4268372,9.4268372 0 0 0 2.78511,-3.042 c 0.93627,-1.59199 0.91261,-2.70401 1.79142,-3.48141 a 5.1781695,5.1781695 0 0 1 1.56831,-0.71656 36.760946,36.760946 0 0 0 8.38242,-3.33945 13.182024,13.182024 0 0 0 3.548998,-2.77836 l 0.0339,-0.0406 c 2.51472,-2.69049 3.14678,-5.86093 2.11588,-8.65957 z m -9.271348,4.98212 c -5.65475,3.12313 -9.41331,2.78851 -12.33702,4.67117 -2.48431,1.59874 -1.014,5.04635 -2.81892,6.29019 -2.21729,1.53114 -8.77112,-0.1082 -17.23803,2.68711 -6.98309,2.30854 -11.43794,8.94688 -23.99805,8.94688 -12.56011,0 -16.91016,-6.62482 -24.00818,-8.96378 -8.45002,-2.79527 -15.01737,-1.15597 -17.23803,-2.68711 -1.80154,-1.24384 -0.33801,-4.69145 -2.81893,-6.29019 -2.92708,-1.88266 -6.68565,-1.54804 -12.33702,-4.65427 -3.5997,-1.98744 -1.55818,-3.21776 -0.35828,-3.79912 20.48283,-9.91694 23.7513,-25.22836 23.89664,-26.36405 0.17577,-1.375674 0.3718,-2.457264 -1.14244,-3.856594 -1.46354,-1.352 -7.95653,-5.37083 -9.75808,-6.62819 -2.98116,-2.08208 -4.29261,-4.16079 -3.32592,-6.71607 0.676,-1.76775 2.32544,-2.43361 4.056,-2.43361 a 7.5374137,7.5374137 0 0 1 1.62579,0.18253 c 3.27184,0.70979 6.44905,2.3491 8.28439,2.79187 a 2.9203253,2.9203253 0 0 0 0.676,0.0912 c 0.9802,0 1.32497,-0.49348 1.25736,-1.61564 -0.20955,-3.57943 -0.71656,-10.55576 -0.15209,-17.07579 0.77401,-8.97054 3.66392,-13.41525 7.09801,-17.34619 1.64943,-1.88943 9.39979,-10.07919 24.22112,-10.07919 14.82133,0 22.59196,8.15596 24.24141,10.03863 3.43746,3.93094 6.33074,8.37565 7.09801,17.34619 0.56446,6.52003 0.0778,13.49974 -0.15211,17.07579 -0.0777,1.17962 0.27717,1.61564 1.25737,1.61564 a 2.8932852,2.8932852 0 0 0 0.676,-0.0912 c 1.83872,-0.44277 5.01593,-2.08208 8.28777,-2.79187 a 7.5374137,7.5374137 0 0 1 1.62579,-0.18253 c 1.7407,0 3.38,0.67601 4.05601,2.43361 0.96668,2.55528 -0.338,4.63399 -3.32254,6.71607 -1.80155,1.25736 -8.29454,5.27281 -9.75809,6.62819 -1.51761,1.39933 -1.3182,2.48092 -1.14244,3.856594 0.14534,1.15259 3.41043,16.46401 23.89664,26.36405 1.21004,0.60502 3.25158,1.83534 -0.34814,3.83968 z"
       id="path10"
       style="stroke-width:0.3380006" />
  </g>
</svg>
