<?xml version="1.0" encoding="UTF-8" standalone="no"?>
<!-- Created with Inkscape (http://www.inkscape.org/) -->

<svg
   xmlns:dc="http://purl.org/dc/elements/1.1/"
   xmlns:cc="http://creativecommons.org/ns#"
   xmlns:rdf="http://www.w3.org/1999/02/22-rdf-syntax-ns#"
   xmlns:svg="http://www.w3.org/2000/svg"
   xmlns="http://www.w3.org/2000/svg"
   xmlns:xlink="http://www.w3.org/1999/xlink"
   xmlns:sodipodi="http://sodipodi.sourceforge.net/DTD/sodipodi-0.dtd"
   xmlns:inkscape="http://www.inkscape.org/namespaces/inkscape"
   width="600"
   height="600"
   viewBox="0 0 158.74999 158.75001"
   version="1.1"
   id="svg8"
   inkscape:version="0.92.4 5da689c313, 2019-01-14"
   sodipodi:docname="Soundcloud-Square-Orange-Background.svg">
  <defs
     id="defs2">
    <linearGradient
       gradientTransform="matrix(1.4227205,0,0,1.4227205,-36.050887,63.186591)"
       x1="46.492699"
       y1="0"
       x2="46.492699"
       y2="53.006302"
       id="SVGID_1_"
       gradientUnits="userSpaceOnUse">
      <stop
         id="stop2461"
         style="stop-color:#f79810;stop-opacity:1"
         offset="0" />
      <stop
         id="stop2463"
         style="stop-color:#f8310e;stop-opacity:1"
         offset="1" />
    </linearGradient>
    <linearGradient
       inkscape:collect="always"
       xlink:href="#SVGID_1_"
       id="linearGradient855"
       x1="79.642273"
       y1="0.26321986"
       x2="79.642273"
       y2="159.01727"
       gradientUnits="userSpaceOnUse" />
  </defs>
  <sodipodi:namedview
     id="base"
     pagecolor="#ffffff"
     bordercolor="#666666"
     borderopacity="1.0"
     inkscape:pageopacity="0.0"
     inkscape:pageshadow="2"
     inkscape:zoom="0.49497475"
     inkscape:cx="383.35091"
     inkscape:cy="148.8095"
     inkscape:document-units="mm"
     inkscape:current-layer="layer1"
     showgrid="false"
     fit-margin-top="0"
     fit-margin-left="0"
     fit-margin-right="0"
     fit-margin-bottom="0"
     inkscape:window-width="1920"
     inkscape:window-height="1024"
     inkscape:window-x="0"
     inkscape:window-y="28"
     inkscape:window-maximized="1"
     units="px" />
  <metadata
     id="metadata5">
    <rdf:RDF>
      <cc:Work
         rdf:about="">
        <dc:format>image/svg+xml</dc:format>
        <dc:type
           rdf:resource="http://purl.org/dc/dcmitype/StillImage" />
        <dc:title></dc:title>
      </cc:Work>
    </rdf:RDF>
  </metadata>
  <g
     inkscape:groupmode="layer"
     id="layer2"
     inkscape:label="Background">
    <rect
       style="opacity:1;fill:url(#linearGradient855);fill-opacity:1;stroke:none;stroke-width:1.39757574;stroke-miterlimit:4;stroke-dasharray:none;stroke-opacity:1"
       id="rect847"
       width="158.75"
       height="158.75"
       x="0"
       y="0" />
  </g>
  <g
     inkscape:label="Logo"
     inkscape:groupmode="layer"
     id="layer1"
     transform="translate(49.280053,-12.538436)">
    <path
       inkscape:connector-curvature="0"
       d="m -34.552762,97.548131 c -0.276008,0 -0.495107,0.21341 -0.530675,0.51788 l -0.96745,7.348339 0.96745,7.22173 c 0.03557,0.30446 0.254667,0.51645 0.530675,0.51645 0.267471,0 0.485147,-0.21056 0.527829,-0.5136 v 0 -0.002 0.002 l 1.146713,-7.22458 -1.146713,-7.349769 c -0.04126,-0.30304 -0.26178,-0.51645 -0.527829,-0.51645 z m 5.440483,-4.01491 c -0.04553,-0.31585 -0.27174,-0.53352 -0.550593,-0.53352 -0.280276,0 -0.512179,0.22479 -0.550593,0.53352 0,0.003 -1.300366,11.881129 -1.300366,11.881129 l 1.300366,11.61794 c 0.03699,0.31158 0.268894,0.53637 0.550593,0.53637 0.277431,0 0.503643,-0.2191 0.54917,-0.53352 l 1.47963,-11.62079 z m 20.4928655,-10.95922 c -0.533519,0 -0.974563,0.43678 -1.000172,0.99164 l -1.0357415,21.858669 1.0357415,14.1262 c 0.02703,0.55202 0.466653,0.98737 1.000172,0.98737 0.530676,0 0.970296,-0.43678 1.001596,-0.99022 v 0.004 l 1.170899,-14.12762 -1.170899,-21.858679 c -0.0313,-0.55486 -0.47092,-0.99164 -1.001596,-0.99164 z m -10.6063805,7.59733 c -0.409744,0 -0.744083,0.32722 -0.776806,0.764 l -1.166631,14.483289 1.166631,14.01238 c 0.0313,0.43393 0.367062,0.76115 0.776806,0.76115 0.405474,0 0.739814,-0.32722 0.775382,-0.76115 l 1.325975,-14.01238 -1.325975,-14.486139 c -0.03557,-0.43393 -0.369908,-0.76115 -0.775382,-0.76115 z M 2.1591175,120.53646 c 0.661566,0 1.1993532,-0.53352 1.2263849,-1.21644 L 4.4013251,105.43143 3.3869252,76.329681 c -0.02703,-0.68291 -0.5648197,-1.21643 -1.2263847,-1.21643 -0.667256,0 -1.206467,0.53495 -1.227808,1.21785 0,10e-4 -0.900582,29.098909 -0.900582,29.098909 l 0.900582,13.89428 c 0.02134,0.67722 0.560552,1.21217 1.226385,1.21217 z m 22.0663955,0.0654 c 0.91054,0 1.661738,-0.74977 1.678809,-1.6717 v 0.01 -0.01 l 0.708516,-13.49024 -0.708516,-33.610339 c -0.01566,-0.92051 -0.768269,-1.6717 -1.678809,-1.6717 -0.911966,0 -1.664583,0.74977 -1.67881,1.67312 l -0.63311,33.597539 c 0,0.0213 0.63311,13.51016 0.63311,13.51016 0.01425,0.91339 0.768269,1.66316 1.67881,1.66316 z m -11.117138,-0.0526 c 0.792455,0 1.431258,-0.63596 1.452599,-1.44691 v 0.01 l 0.862165,-13.67808 -0.86359,-29.312309 c -0.02132,-0.81095 -0.660143,-1.44549 -1.452597,-1.44549 -0.798146,0 -1.436949,0.63454 -1.45402,1.44549 l -0.766846,29.313729 0.768268,13.67519 c 0.01707,0.80242 0.655874,1.43837 1.454021,1.43837 z m -27.051608,-0.12805 c 0.47092,0 0.85221,-0.37702 0.887778,-0.87355 l 1.249147,-14.12904 -1.249147,-13.440439 c -0.03415,-0.49652 -0.415435,-0.8707 -0.887778,-0.8707 -0.478034,0 -0.859323,0.37702 -0.8892,0.87639 l -1.099764,13.434749 1.099764,14.12762 c 0.0313,0.49795 0.411166,0.87497 0.8892,0.87497 z m -10.522441,-0.77395 c 0.344298,0 0.623151,-0.27175 0.662988,-0.64735 l 1.402802,-13.58413 -1.401379,-14.096319 c -0.04126,-0.37702 -0.320113,-0.64876 -0.664411,-0.64876 -0.348567,0 -0.62742,0.27317 -0.662988,0.64876 0,0.002 -1.234921,14.096319 -1.234921,14.096319 l 1.234921,13.58129 c 0.03414,0.37702 0.312999,0.65019 0.662988,0.65019 z M 18.6456,75.633971 c -0.860745,0 -1.550765,0.68433 -1.567836,1.56072 l -0.699978,28.242429 0.699978,13.58983 c 0.01708,0.86501 0.705671,1.54934 1.567836,1.54934 0.859326,0 1.545077,-0.68291 1.564998,-1.5593 v 0.0114 l 0.78534,-13.58986 -0.78534,-28.246689 c -0.01991,-0.87355 -0.705672,-1.55787 -1.564998,-1.55787 z M -3.2500655,120.56491 c 0.594698,0 1.085535,-0.48515 1.11399,-1.10403 l 1.09265,-14.0323 -1.09265,-26.858119 c -0.02988,-0.6203 -0.519292,-1.10403 -1.11399,-1.10403 -0.600388,0 -1.089805,0.48515 -1.115413,1.10403 0,0.001 -0.967451,26.858119 -0.967451,26.858119 l 0.968874,14.03799 c 0.02418,0.61319 0.513602,1.09834 1.11399,1.09834 z m 12.2012507,-1.32455 v -0.007 L 9.8901806,105.43284 8.9511852,75.350841 c -0.022765,-0.74693 -0.6117691,-1.33309 -1.3387806,-1.33309 -0.7312782,0 -1.3202839,0.58474 -1.3402014,1.33309 l -0.8337146,30.080579 0.8351368,13.80751 c 0.019916,0.73981 0.6089247,1.32455 1.3387792,1.32455 0.7284337,0 1.3145949,-0.58474 1.3387806,-1.32882 z M 79.970545,88.092731 c -2.229402,0 -4.356368,0.45101 -6.294112,1.26338 -1.294676,-14.6654 -13.592672,-26.16952 -28.593836,-26.16952 -3.670618,0 -7.248766,0.72274 -10.408625,1.94486 -1.227808,0.47519 -1.555034,0.9646 -1.566416,1.91356 v 51.644749 c 0.01283,0.99591 0.78534,1.82535 1.757059,1.92352 0.04128,0.004 44.814277,0.027 45.10451,0.027 8.985903,0 16.271655,-7.28575 16.271655,-16.27308 0,-8.987319 -7.284328,-16.274499 -16.270235,-16.274499 z m -50.18931,-21.09325 c -0.977408,0 -1.77982,0.80241 -1.794052,1.78836 l -0.734121,36.656389 0.735545,13.30386 c 0.01278,0.97172 0.81522,1.77271 1.792628,1.77271 0.974563,0 1.77698,-0.80099 1.791207,-1.78694 v 0.0157 l 0.798143,-13.30529 -0.798143,-36.659239 c -0.01425,-0.9831 -0.816644,-1.78551 -1.791207,-1.78551 z"
       id="path2465"
       style="fill:#ffffff;stroke-width:1.42272055;fill-opacity:1"
       sodipodi:nodetypes="scccsccccccscscccscccccccsccccccscccscccsscccscccsscccccscccscccccscccccscccscccsscccscccsccccsccccccscccscccsccccscccsccscsccccsssccccscccccc" />
  </g>
</svg>
