<?xml version="1.0" encoding="UTF-8" standalone="no"?>
<svg
   xmlns:dc="http://purl.org/dc/elements/1.1/"
   xmlns:cc="http://creativecommons.org/ns#"
   xmlns:rdf="http://www.w3.org/1999/02/22-rdf-syntax-ns#"
   xmlns:svg="http://www.w3.org/2000/svg"
   xmlns="http://www.w3.org/2000/svg"
   xmlns:sodipodi="http://sodipodi.sourceforge.net/DTD/sodipodi-0.dtd"
   xmlns:inkscape="http://www.inkscape.org/namespaces/inkscape"
   width="100"
   height="100"
   viewBox="0 0 100 100"
   version="1.1"
   id="svg8"
   inkscape:version="1.0.2 (e86c870879, 2021-01-15, custom)"
   sodipodi:docname="steam.svg">
  <defs
     id="defs2">
    <linearGradient
       id="a"
       x2="116.68872"
       x1="116.68872"
       y2="232.87497"
       gradientTransform="matrix(0.42895424,0,0,0.42941498,-0.03240526,0)"
       y1="0"
       gradientUnits="userSpaceOnUse">
      <stop
         stop-color="#111D2E"
         offset="0"
         id="stop2" />
      <stop
         stop-color="#051839"
         offset=".21248"
         id="stop4" />
      <stop
         stop-color="#0A1B48"
         offset=".40695"
         id="stop6" />
      <stop
         stop-color="#132E62"
         offset=".58110"
         id="stop8" />
      <stop
         stop-color="#144B7E"
         offset=".73760"
         id="stop10" />
      <stop
         stop-color="#136497"
         offset=".87279"
         id="stop12" />
      <stop
         stop-color="#1387B8"
         offset="1"
         id="stop14" />
    </linearGradient>
  </defs>
  <sodipodi:namedview
     id="base"
     pagecolor="#ffffff"
     bordercolor="#666666"
     borderopacity="1.0"
     inkscape:pageopacity="0.0"
     inkscape:pageshadow="2"
     inkscape:zoom="1.4"
     inkscape:cx="-10.950061"
     inkscape:cy="60.203051"
     inkscape:document-units="px"
     inkscape:current-layer="layer1"
     inkscape:document-rotation="0"
     showgrid="false"
     units="px"
     inkscape:window-width="1920"
     inkscape:window-height="1019"
     inkscape:window-x="0"
     inkscape:window-y="33"
     inkscape:window-maximized="1" />
  <metadata
     id="metadata5">
    <rdf:RDF>
      <cc:Work
         rdf:about="">
        <dc:format>image/svg+xml</dc:format>
        <dc:type
           rdf:resource="http://purl.org/dc/dcmitype/StillImage" />
        <dc:title />
      </cc:Work>
    </rdf:RDF>
  </metadata>
  <g
     inkscape:label="Calque 1"
     inkscape:groupmode="layer"
     id="layer1">
    <path
       fill="url(#a)"
       d="M 2.0667787,64.381974 C 8.2440327,84.987124 27.352616,100 49.968067,100 77.581799,100 99.968065,77.613734 99.968065,50 99.968065,22.385837 77.581799,0 49.968067,0 23.469784,0 1.7878087,20.613305 0.07536274,46.678112 3.3110277,52.111588 4.5736457,55.472103 2.0672507,64.381974 Z"
       id="path19"
       style="fill:url(#a);stroke-width:0.429185" />
    <path
       fill="#ffffff"
       d="m 47.392488,37.477253 c 0,0.08412 0,0.168241 0.0043,0.247211 l -12.235193,17.77339 c -1.981974,-0.09013 -3.970815,0.257511 -5.856652,1.034335 -0.831331,0.339056 -1.610301,0.755365 -2.341202,1.236051 L 0.09721774,46.708155 c 2.1e-4,0 -0.621674,10.227467 1.96909796,17.849785 l 18.9931333,7.83691 c 0.953648,4.261802 3.877254,8 8.190558,9.798283 7.057082,2.948498 15.193992,-0.412017 18.129614,-7.472103 0.763949,-1.845493 1.120172,-3.781116 1.06867,-5.712446 l 17.506428,-12.51073 c 0.141631,0.0043 0.287554,0.0086 0.429185,0.0086 10.476393,0 18.991414,-8.540773 18.991414,-19.029185 0,-10.48927 -8.515021,-19.022317 -18.991414,-19.022317 -10.472103,0 -18.991416,8.533047 -18.991416,19.022317 z m -2.935623,36.016309 c -2.272103,5.454936 -8.540772,8.042919 -13.989699,5.772532 -2.513734,-1.04721 -4.411588,-2.965665 -5.506438,-5.253218 l 6.182403,2.562231 c 4.018455,1.67382 8.628756,-0.231759 10.299142,-4.248927 1.675536,-4.021459 -0.225322,-8.639485 -4.241631,-10.313304 l -6.390987,-2.648069 c 2.466094,-0.935622 5.269528,-0.969957 7.888841,0.120172 2.640773,1.098712 4.6897,3.167382 5.775537,5.811158 1.085837,2.643777 1.081545,5.562232 -0.01717,8.197425 M 66.383904,50.154506 c -6.974249,0 -12.652361,-5.686695 -12.652361,-12.677253 0,-6.984978 5.678112,-12.67339 12.652361,-12.67339 6.978539,0 12.65665,5.688412 12.65665,12.67339 0,6.990558 -5.678111,12.677253 -12.65665,12.677253 M 56.903217,37.45794 c 0,-5.258798 4.257511,-9.524034 9.502146,-9.524034 5.248925,0 9.506436,4.265236 9.506436,9.524034 0,5.259227 -4.257511,9.520601 -9.506436,9.520601 -5.244635,0 -9.502146,-4.261374 -9.502146,-9.520601 z"
       id="path21"
       style="stroke-width:0.429185" />
  </g>
</svg>
