<?xml version="1.0" encoding="UTF-8" standalone="no"?>
<svg
   xmlns:dc="http://purl.org/dc/elements/1.1/"
   xmlns:cc="http://creativecommons.org/ns#"
   xmlns:rdf="http://www.w3.org/1999/02/22-rdf-syntax-ns#"
   xmlns:svg="http://www.w3.org/2000/svg"
   xmlns="http://www.w3.org/2000/svg"
   xmlns:sodipodi="http://sodipodi.sourceforge.net/DTD/sodipodi-0.dtd"
   xmlns:inkscape="http://www.inkscape.org/namespaces/inkscape"
   width="100"
   height="100"
   viewBox="0 0 100 100"
   version="1.1"
   id="svg8"
   inkscape:version="1.0.2 (e86c870879, 2021-01-15, custom)"
   sodipodi:docname="whatsapp.svg">
  <defs
     id="defs2">
    <clipPath
       clipPathUnits="userSpaceOnUse"
       id="clipPath50">
      <path
         d="M 0,1066.861 H 1280.244 V 0 H 0 Z"
         id="path48" />
    </clipPath>
    <linearGradient
       x1="0"
       y1="0"
       x2="1"
       y2="0"
       gradientUnits="userSpaceOnUse"
       gradientTransform="matrix(0,584.04474,584.04474,0,642.00024,241.83894)"
       spreadMethod="pad"
       id="linearGradient40">
      <stop
         style="stop-opacity:1;stop-color:#25cf43"
         offset="0"
         id="stop36" />
      <stop
         style="stop-opacity:1;stop-color:#61fd7d"
         offset="1"
         id="stop38" />
    </linearGradient>
  </defs>
  <sodipodi:namedview
     id="base"
     pagecolor="#ffffff"
     bordercolor="#666666"
     borderopacity="1.0"
     inkscape:pageopacity="0.0"
     inkscape:pageshadow="2"
     inkscape:zoom="1.4"
     inkscape:cx="-10.950061"
     inkscape:cy="60.203051"
     inkscape:document-units="px"
     inkscape:current-layer="layer1"
     inkscape:document-rotation="0"
     showgrid="false"
     units="px"
     inkscape:window-width="1920"
     inkscape:window-height="1019"
     inkscape:window-x="0"
     inkscape:window-y="33"
     inkscape:window-maximized="1" />
  <metadata
     id="metadata5">
    <rdf:RDF>
      <cc:Work
         rdf:about="">
        <dc:format>image/svg+xml</dc:format>
        <dc:type
           rdf:resource="http://purl.org/dc/dcmitype/StillImage" />
        <dc:title />
      </cc:Work>
    </rdf:RDF>
  </metadata>
  <g
     inkscape:label="Calque 1"
     inkscape:groupmode="layer"
     id="layer1">
    <g
       id="g24"
       transform="matrix(0.17121968,0,0,-0.17121968,-59.92312,141.40751)">
      <g
         id="g26">
        <g
           id="g32">
          <g
             id="g34">
            <path
               d="m 482.751,825.596 c -13.025,-0.463 -29.812,-1.482 -37.442,-3.022 v 0 c -11.647,-2.352 -22.646,-5.918 -31.793,-10.58 v 0 c -10.747,-5.477 -20.379,-12.465 -28.696,-20.769 v 0 c -8.336,-8.32 -15.352,-17.961 -20.851,-28.724 v 0 c -4.649,-9.098 -8.213,-20.03 -10.575,-31.611 v 0 c -1.571,-7.707 -2.61,-24.619 -3.081,-37.728 v 0 c -0.191,-5.358 -0.289,-12.292 -0.289,-15.49 v 0 l -0.046,-287.576 c 0,-3.185 0.097,-10.121 0.287,-15.485 v 0 c 0.463,-13.024 1.482,-29.811 3.023,-37.441 v 0 c 2.351,-11.646 5.918,-22.646 10.579,-31.793 v 0 c 5.478,-10.748 12.465,-20.378 20.769,-28.696 v 0 c 8.32,-8.335 17.962,-15.351 28.724,-20.851 v 0 c 9.099,-4.648 20.031,-8.213 31.611,-10.575 v 0 c 7.707,-1.571 24.62,-2.61 37.729,-3.08 v 0 c 5.356,-0.192 12.291,-0.29 15.489,-0.29 v 0 l 287.576,-0.046 c 3.186,0 10.122,0.096 15.484,0.287 v 0 c 13.025,0.464 29.813,1.482 37.442,3.023 v 0 c 11.647,2.352 22.647,5.919 31.793,10.579 v 0 c 10.747,5.478 20.379,12.466 28.696,20.769 v 0 c 8.335,8.321 15.351,17.961 20.851,28.724 v 0 c 4.648,9.099 8.214,20.03 10.575,31.611 v 0 c 1.572,7.707 2.61,24.621 3.081,37.729 v 0 c 0.192,5.357 0.289,12.291 0.289,15.489 v 0 l 0.047,287.576 c 0,3.186 -0.097,10.122 -0.288,15.485 v 0 c -0.464,13.024 -1.482,29.811 -3.023,37.441 v 0 c -2.351,11.647 -5.918,22.646 -10.579,31.793 v 0 c -5.477,10.748 -12.466,20.379 -20.768,28.697 v 0 c -8.321,8.334 -17.963,15.351 -28.725,20.85 v 0 c -9.099,4.649 -20.03,8.214 -31.611,10.575 v 0 c -7.707,1.571 -24.62,2.61 -37.728,3.08 v 0 c -5.358,0.193 -12.292,0.29 -15.49,0.29 v 0 l -287.576,0.046 c -3.186,0 -10.122,-0.096 -15.484,-0.287"
               style="fill:url(#linearGradient40);stroke:none"
               id="path42" />
          </g>
        </g>
      </g>
    </g>
    <g
       id="g44"
       transform="matrix(0.17121968,0,0,-0.17121968,-59.92312,141.40751)">
      <g
         id="g46"
         clip-path="url(#clipPath50)">
        <g
           id="g52"
           transform="translate(743.2432,495.4208)">
          <path
             d="m 0,0 c -5.202,2.603 -30.777,15.184 -35.546,16.919 -4.768,1.735 -8.235,2.603 -11.703,-2.603 -3.468,-5.206 -13.437,-16.919 -16.472,-20.39 -3.034,-3.47 -6.068,-3.905 -11.27,-1.301 -5.202,2.602 -21.963,8.094 -41.832,25.811 -15.464,13.788 -25.904,30.819 -28.939,36.025 -3.034,5.206 -0.323,8.02 2.282,10.613 2.339,2.329 5.201,6.073 7.802,9.11 2.601,3.037 3.468,5.206 5.202,8.676 1.734,3.471 0.867,6.508 -0.434,9.111 -1.3,2.603 -11.703,28.199 -16.038,38.611 -4.222,10.14 -8.511,8.768 -11.704,8.927 -3.031,0.151 -6.502,0.183 -9.97,0.183 -3.468,0 -9.103,-1.302 -13.872,-6.507 -4.768,-5.206 -18.206,-17.788 -18.206,-43.383 0,-25.596 18.64,-50.324 21.241,-53.795 2.601,-3.471 36.681,-55.997 88.863,-78.522 12.411,-5.358 22.101,-8.557 29.655,-10.955 12.462,-3.957 23.802,-3.399 32.765,-2.06 9.994,1.493 30.777,12.581 35.112,24.728 C 11.27,-18.655 11.27,-8.243 9.97,-6.074 8.67,-3.905 5.202,-2.603 0,0 m -94.915,-129.554 h -0.07 c -31.05,0.012 -61.504,8.35 -88.071,24.111 l -6.319,3.75 -65.491,-17.175 17.481,63.833 -4.115,6.544 c -17.321,27.542 -26.469,59.375 -26.456,92.06 0.038,95.376 77.663,172.971 173.11,172.971 46.218,-0.018 89.664,-18.035 122.334,-50.731 C 60.158,133.112 78.14,89.65 78.122,43.429 78.083,-51.954 0.459,-129.554 -94.915,-129.554 M 52.353,190.654 c -39.306,39.339 -91.578,61.014 -147.27,61.036 -114.75,0 -208.143,-93.357 -208.189,-208.108 -0.015,-36.681 9.571,-72.487 27.789,-104.047 l -29.535,-107.848 110.364,28.94 c 30.408,-16.58 64.644,-25.317 99.488,-25.332 h 0.085 0.001 c 114.739,0 208.14,93.369 208.187,208.121 0.021,55.61 -21.613,107.9 -60.92,147.238"
             style="fill:#ffffff;fill-opacity:1;fill-rule:evenodd;stroke:none"
             id="path54" />
        </g>
      </g>
    </g>
  </g>
</svg>
