<?xml version="1.0" encoding="UTF-8" standalone="no"?>
<svg
   xmlns:dc="http://purl.org/dc/elements/1.1/"
   xmlns:cc="http://creativecommons.org/ns#"
   xmlns:rdf="http://www.w3.org/1999/02/22-rdf-syntax-ns#"
   xmlns:svg="http://www.w3.org/2000/svg"
   xmlns="http://www.w3.org/2000/svg"
   xmlns:sodipodi="http://sodipodi.sourceforge.net/DTD/sodipodi-0.dtd"
   xmlns:inkscape="http://www.inkscape.org/namespaces/inkscape"
   width="100"
   height="100"
   viewBox="0 0 100 100"
   version="1.1"
   id="svg8"
   inkscape:version="1.0.2 (e86c870879, 2021-01-15, custom)"
   sodipodi:docname="linkedin.svg">
  <defs
     id="defs2" />
  <sodipodi:namedview
     id="base"
     pagecolor="#ffffff"
     bordercolor="#666666"
     borderopacity="1.0"
     inkscape:pageopacity="0.0"
     inkscape:pageshadow="2"
     inkscape:zoom="3.959798"
     inkscape:cx="11.933327"
     inkscape:cy="48.196301"
     inkscape:document-units="px"
     inkscape:current-layer="layer1"
     inkscape:document-rotation="0"
     showgrid="false"
     units="px"
     inkscape:window-width="1920"
     inkscape:window-height="1019"
     inkscape:window-x="0"
     inkscape:window-y="33"
     inkscape:window-maximized="1" />
  <metadata
     id="metadata5">
    <rdf:RDF>
      <cc:Work
         rdf:about="">
        <dc:format>image/svg+xml</dc:format>
        <dc:type
           rdf:resource="http://purl.org/dc/dcmitype/StillImage" />
        <dc:title />
      </cc:Work>
    </rdf:RDF>
  </metadata>
  <g
     inkscape:label="Calque 1"
     inkscape:groupmode="layer"
     id="layer1">
    <path
       id="path851"
       style="opacity:1;fill:#0a66c2;fill-opacity:1;stroke-width:9.48383"
       d="M 0,1.365e-6 V 99.999999 H 100 V 1.365e-6 Z M 86.101562,7.7226575 a 6.1833976,6.1833976 0 0 1 0.208985,0.00391 6.1833976,6.1833976 0 0 1 0.208984,0.011719 6.1833976,6.1833976 0 0 1 0.208985,0.017578 6.1833976,6.1833976 0 0 1 0.207031,0.025391 6.1833976,6.1833976 0 0 1 0.207031,0.03125 6.1833976,6.1833976 0 0 1 0.205078,0.039063 6.1833976,6.1833976 0 0 1 0.203125,0.044922 6.1833976,6.1833976 0 0 1 0.203125,0.052734 6.1833976,6.1833976 0 0 1 0.201172,0.060547 6.1833976,6.1833976 0 0 1 0.197266,0.066406 6.1833976,6.1833976 0 0 1 0.195312,0.072266 6.1833976,6.1833976 0 0 1 0.19336,0.080078 6.1833976,6.1833976 0 0 1 0.191406,0.085937 6.1833976,6.1833976 0 0 1 0.1875,0.091797 6.1833976,6.1833976 0 0 1 0.183594,0.097656 6.1833976,6.1833976 0 0 1 0.18164,0.1054688 6.1833976,6.1833976 0 0 1 0.177735,0.1113281 6.1833976,6.1833976 0 0 1 0.173828,0.1171875 6.1833976,6.1833976 0 0 1 0.167969,0.1210938 6.1833976,6.1833976 0 0 1 0.166015,0.1289062 6.1833976,6.1833976 0 0 1 0.160156,0.1347657 6.1833976,6.1833976 0 0 1 0.15625,0.138672 6.1833976,6.1833976 0 0 1 0.152344,0.144531 6.1833976,6.1833976 0 0 1 0.144531,0.148438 6.1833976,6.1833976 0 0 1 0.142578,0.154297 6.1833976,6.1833976 0 0 1 0.134766,0.160156 6.1833976,6.1833976 0 0 1 0.13086,0.1621094 6.1833976,6.1833976 0 0 1 0.125,0.167969 6.1833976,6.1833976 0 0 1 0.11914,0.171875 6.1833976,6.1833976 0 0 1 0.113281,0.175781 6.1833976,6.1833976 0 0 1 0.107422,0.179688 6.1833976,6.1833976 0 0 1 0.101563,0.183594 6.1833976,6.1833976 0 0 1 0.09375,0.185546 6.1833976,6.1833976 0 0 1 0.08984,0.189454 6.1833976,6.1833976 0 0 1 0.08203,0.193359 6.1833976,6.1833976 0 0 1 0.07422,0.193359 6.1833976,6.1833976 0 0 1 0.06836,0.197266 6.1833976,6.1833976 0 0 1 0.0625,0.201172 6.1833976,6.1833976 0 0 1 0.05664,0.201172 6.1833976,6.1833976 0 0 1 0.04687,0.203125 6.1833976,6.1833976 0 0 1 0.04297,0.205078 6.1833976,6.1833976 0 0 1 0.0332,0.207031 6.1833976,6.1833976 0 0 1 0.0293,0.207031 6.1833976,6.1833976 0 0 1 0.01953,0.207032 6.1833976,6.1833976 0 0 1 0.01367,0.208984 6.1833976,6.1833976 0 0 1 0.0059,0.208984 v 72.357422 a 6.1873128,6.1873128 0 0 1 -0.002,0.08789 6.1873128,6.1873128 0 0 1 -0.0078,0.208984 6.1873128,6.1873128 0 0 1 -0.01758,0.208985 6.1873128,6.1873128 0 0 1 -0.02344,0.207031 6.1873128,6.1873128 0 0 1 -0.0293,0.207031 6.1873128,6.1873128 0 0 1 -0.03906,0.207031 6.1873128,6.1873128 0 0 1 -0.04297,0.203125 6.1873128,6.1873128 0 0 1 -0.05273,0.203125 6.1873128,6.1873128 0 0 1 -0.05859,0.201172 6.1873128,6.1873128 0 0 1 -0.06445,0.199219 6.1873128,6.1873128 0 0 1 -0.07031,0.197266 6.1873128,6.1873128 0 0 1 -0.07813,0.193359 6.1873128,6.1873128 0 0 1 -0.08594,0.191406 6.1873128,6.1873128 0 0 1 -0.0918,0.1875 6.1873128,6.1873128 0 0 1 -0.0957,0.185547 6.1873128,6.1873128 0 0 1 -0.103516,0.181641 6.1873128,6.1873128 0 0 1 -0.111328,0.177734 6.1873128,6.1873128 0 0 1 -0.115234,0.173828 6.1873128,6.1873128 0 0 1 -0.121094,0.169922 6.1873128,6.1873128 0 0 1 -0.126953,0.166016 6.1873128,6.1873128 0 0 1 -0.132812,0.162109 6.1873128,6.1873128 0 0 1 -0.138672,0.158203 6.1873128,6.1873128 0 0 1 -0.142578,0.152344 6.1873128,6.1873128 0 0 1 -0.148438,0.146484 6.1873128,6.1873128 0 0 1 -0.154297,0.142578 6.1873128,6.1873128 0 0 1 -0.158203,0.136719 6.1873128,6.1873128 0 0 1 -0.162109,0.13086 6.1873128,6.1873128 0 0 1 -0.166016,0.126953 6.1873128,6.1873128 0 0 1 -0.171875,0.121094 6.1873128,6.1873128 0 0 1 -0.175781,0.113281 6.1873128,6.1873128 0 0 1 -0.177734,0.109375 6.1873128,6.1873128 0 0 1 -0.183594,0.101562 6.1873128,6.1873128 0 0 1 -0.185547,0.0957 6.1873128,6.1873128 0 0 1 -0.1875,0.08984 6.1873128,6.1873128 0 0 1 -0.193359,0.08398 6.1873128,6.1873128 0 0 1 -0.19336,0.07617 6.1873128,6.1873128 0 0 1 -0.197266,0.07031 6.1873128,6.1873128 0 0 1 -0.199218,0.06445 6.1873128,6.1873128 0 0 1 -0.201172,0.05664 6.1873128,6.1873128 0 0 1 -0.203125,0.04883 6.1873128,6.1873128 0 0 1 -0.205078,0.04492 6.1873128,6.1873128 0 0 1 -0.205078,0.03516 6.1873128,6.1873128 0 0 1 -0.207032,0.0293 6.1873128,6.1873128 0 0 1 -0.208984,0.02148 6.1873128,6.1873128 0 0 1 -0.208984,0.01563 6.1873128,6.1873128 0 0 1 -0.208985,0.0078 6.1873128,6.1873128 0 0 1 -0.208984,0 H 13.960936 a 6.1742622,6.1742622 0 0 1 -0.0801,0.002 6.1742622,6.1742622 0 0 1 -0.20898,-0.0039 6.1742622,6.1742622 0 0 1 -0.20899,-0.01172 6.1742622,6.1742622 0 0 1 -0.20703,-0.01758 6.1742622,6.1742622 0 0 1 -0.20703,-0.02539 6.1742622,6.1742622 0 0 1 -0.20703,-0.0332 6.1742622,6.1742622 0 0 1 -0.20508,-0.03906 6.1742622,6.1742622 0 0 1 -0.20313,-0.04492 6.1742622,6.1742622 0 0 1 -0.20312,-0.05273 6.1742622,6.1742622 0 0 1 -0.19922,-0.06055 6.1742622,6.1742622 0 0 1 -0.19922,-0.06641 6.1742622,6.1742622 0 0 1 -0.19531,-0.07422 6.1742622,6.1742622 0 0 1 -0.19336,-0.07813 6.1742622,6.1742622 0 0 1 -0.18945,-0.08594 6.1742622,6.1742622 0 0 1 -0.1875,-0.09375 6.1742622,6.1742622 0 0 1 -0.1836,-0.09961 6.1742622,6.1742622 0 0 1 -0.18164,-0.103515 6.1742622,6.1742622 0 0 1 -0.17773,-0.111328 6.1742622,6.1742622 0 0 1 -0.17188,-0.117188 6.1742622,6.1742622 0 0 1 -0.16992,-0.123047 6.1742622,6.1742622 0 0 1 -0.16406,-0.128906 6.1742622,6.1742622 0 0 1 -0.16016,-0.132812 6.1742622,6.1742622 0 0 1 -0.15625,-0.140626 6.1742622,6.1742622 0 0 1 -0.15039,-0.144531 6.1742622,6.1742622 0 0 1 -0.14648,-0.148437 6.1742622,6.1742622 0 0 1 -0.14063,-0.154297 6.1742622,6.1742622 0 0 1 -0.13476,-0.160156 6.1742622,6.1742622 0 0 1 -0.13086,-0.16211 6.1742622,6.1742622 0 0 1 -0.125,-0.167969 6.1742622,6.1742622 0 0 1 -0.11719,-0.171874 6.1742622,6.1742622 0 0 1 -0.11328,-0.177735 6.1742622,6.1742622 0 0 1 -0.10742,-0.177734 6.1742622,6.1742622 0 0 1 -0.0996,-0.183594 6.1742622,6.1742622 0 0 1 -0.0957,-0.1875 6.1742622,6.1742622 0 0 1 -0.0879,-0.189453 6.1742622,6.1742622 0 0 1 -0.0801,-0.191406 6.1742622,6.1742622 0 0 1 -0.0762,-0.195313 6.1742622,6.1742622 0 0 1 -0.0684,-0.197265 6.1742622,6.1742622 0 0 1 -0.0605,-0.199219 6.1742622,6.1742622 0 0 1 -0.0547,-0.203125 6.1742622,6.1742622 0 0 1 -0.0488,-0.203125 6.1742622,6.1742622 0 0 1 -0.041,-0.205078 6.1742622,6.1742622 0 0 1 -0.0352,-0.205079 6.1742622,6.1742622 0 0 1 -0.0254,-0.207031 6.1742622,6.1742622 0 0 1 -0.0215,-0.208984 6.1742622,6.1742622 0 0 1 -0.0117,-0.207031 6.1742622,6.1742622 0 0 1 -0.006,-0.208985 V 13.824221 a 6.170347,6.170347 0 0 1 0,-0.07813 6.170347,6.170347 0 0 1 0.01,-0.208985 6.170347,6.170347 0 0 1 0.0156,-0.208984 6.170347,6.170347 0 0 1 0.0234,-0.207031 6.170347,6.170347 0 0 1 0.0293,-0.207032 6.170347,6.170347 0 0 1 0.0371,-0.205078 6.170347,6.170347 0 0 1 0.043,-0.205078 6.170347,6.170347 0 0 1 0.0508,-0.203125 6.170347,6.170347 0 0 1 0.0566,-0.199219 6.170347,6.170347 0 0 1 0.0644,-0.199218 6.170347,6.170347 0 0 1 0.0723,-0.197266 6.170347,6.170347 0 0 1 0.0762,-0.193359 6.170347,6.170347 0 0 1 0.084,-0.191407 6.170347,6.170347 0 0 1 0.0918,-0.1875 6.170347,6.170347 0 0 1 0.0957,-0.185546 6.170347,6.170347 0 0 1 0.10351,-0.181641 6.170347,6.170347 0 0 1 0.10938,-0.177734 6.170347,6.170347 0 0 1 0.11523,-0.175782 6.170347,6.170347 0 0 1 0.1211,-0.169921 6.170347,6.170347 0 0 1 0.125,-0.166016 6.170347,6.170347 0 0 1 0.13281,-0.1621104 6.170347,6.170347 0 0 1 0.13867,-0.15625 6.170347,6.170347 0 0 1 0.14258,-0.152343 6.170347,6.170347 0 0 1 0.14648,-0.148438 6.170347,6.170347 0 0 1 0.1543,-0.142578 6.170347,6.170347 0 0 1 0.15625,-0.136719 6.170347,6.170347 0 0 1 0.16211,-0.1308593 6.170347,6.170347 0 0 1 0.16601,-0.1269531 6.170347,6.170347 0 0 1 0.17188,-0.1210938 6.170347,6.170347 0 0 1 0.17383,-0.1132812 6.170347,6.170347 0 0 1 0.17773,-0.109375 6.170347,6.170347 0 0 1 0.1836,-0.1035157 6.170347,6.170347 0 0 1 0.18554,-0.095703 6.170347,6.170347 0 0 1 0.1875,-0.089844 6.170347,6.170347 0 0 1 0.19141,-0.083984 6.170347,6.170347 0 0 1 0.19336,-0.076172 6.170347,6.170347 0 0 1 0.19726,-0.070312 6.170347,6.170347 0 0 1 0.19922,-0.064453 6.170347,6.170347 0 0 1 0.20117,-0.056641 6.170347,6.170347 0 0 1 0.20313,-0.050781 6.170347,6.170347 0 0 1 0.20312,-0.042969 6.170347,6.170347 0 0 1 0.20704,-0.037109 6.170347,6.170347 0 0 1 0.20507,-0.029297 6.170347,6.170347 0 0 1 0.20899,-0.021484 6.170347,6.170347 0 0 1 0.20703,-0.015625 6.170347,6.170347 0 0 1 0.20898,-0.00781 6.170347,6.170347 0 0 1 0.20899,-0.00195 v 0 a 6.170347,6.170347 0 0 0 -0.20899,0.00195 6.170347,6.170347 0 0 0 -0.20898,0.00781 6.170347,6.170347 0 0 0 -0.20703,0.015625 6.170347,6.170347 0 0 0 -0.20899,0.021484 6.170347,6.170347 0 0 0 -0.20507,0.029297 6.170347,6.170347 0 0 0 -0.20704,0.037109 6.170347,6.170347 0 0 0 -0.20312,0.042969 6.170347,6.170347 0 0 0 -0.20313,0.050781 6.170347,6.170347 0 0 0 -0.20117,0.056641 6.170347,6.170347 0 0 0 -0.19922,0.064453 6.170347,6.170347 0 0 0 -0.19726,0.070312 6.170347,6.170347 0 0 0 -0.19336,0.076172 6.170347,6.170347 0 0 0 -0.19141,0.083984 6.170347,6.170347 0 0 0 -0.1875,0.089844 6.170347,6.170347 0 0 0 -0.18554,0.095703 6.170347,6.170347 0 0 0 -0.1836,0.1035157 6.170347,6.170347 0 0 0 -0.17773,0.109375 6.170347,6.170347 0 0 0 -0.17383,0.1132812 6.170347,6.170347 0 0 0 -0.17188,0.1210938 6.170347,6.170347 0 0 0 -0.16601,0.1269531 6.170347,6.170347 0 0 0 -0.16211,0.1308593 6.170347,6.170347 0 0 0 -0.15625,0.136719 6.170347,6.170347 0 0 0 -0.1543,0.142578 6.170347,6.170347 0 0 0 -0.14648,0.148438 6.170347,6.170347 0 0 0 -0.14258,0.152343 6.170347,6.170347 0 0 0 -0.13867,0.15625 6.170347,6.170347 0 0 0 -0.13281,0.1621104 6.170347,6.170347 0 0 0 -0.125,0.166016 6.170347,6.170347 0 0 0 -0.1211,0.169921 6.170347,6.170347 0 0 0 -0.11523,0.175782 6.170347,6.170347 0 0 0 -0.10938,0.177734 6.170347,6.170347 0 0 0 -0.10351,0.181641 6.170347,6.170347 0 0 0 -0.0957,0.185546 6.170347,6.170347 0 0 0 -0.0918,0.1875 6.170347,6.170347 0 0 0 -0.084,0.191407 6.170347,6.170347 0 0 0 -0.0762,0.193359 6.170347,6.170347 0 0 0 -0.0723,0.197266 6.170347,6.170347 0 0 0 -0.0644,0.199218 6.170347,6.170347 0 0 0 -0.0566,0.199219 6.170347,6.170347 0 0 0 -0.0508,0.203125 6.170347,6.170347 0 0 0 -0.043,0.205078 6.170347,6.170347 0 0 0 -0.0371,0.205078 6.170347,6.170347 0 0 0 -0.0293,0.207032 6.170347,6.170347 0 0 0 -0.0234,0.207031 6.170347,6.170347 0 0 0 -0.0156,0.208984 6.170347,6.170347 0 0 0 -0.01,0.208985 6.170347,6.170347 0 0 0 0,0.07813 v 72.351562 a 6.1742622,6.1742622 0 0 0 0.006,0.208985 6.1742622,6.1742622 0 0 0 0.0117,0.207031 6.1742622,6.1742622 0 0 0 0.0215,0.208984 6.1742622,6.1742622 0 0 0 0.0254,0.207031 6.1742622,6.1742622 0 0 0 0.0352,0.205079 6.1742622,6.1742622 0 0 0 0.041,0.205078 6.1742622,6.1742622 0 0 0 0.0488,0.203125 6.1742622,6.1742622 0 0 0 0.0547,0.203125 6.1742622,6.1742622 0 0 0 0.0605,0.199219 6.1742622,6.1742622 0 0 0 0.0684,0.197265 6.1742622,6.1742622 0 0 0 0.0762,0.195313 6.1742622,6.1742622 0 0 0 0.0801,0.191406 6.1742622,6.1742622 0 0 0 0.0879,0.189453 6.1742622,6.1742622 0 0 0 0.0957,0.1875 6.1742622,6.1742622 0 0 0 0.0996,0.183594 6.1742622,6.1742622 0 0 0 0.10742,0.177734 6.1742622,6.1742622 0 0 0 0.11328,0.177735 6.1742622,6.1742622 0 0 0 0.11719,0.171874 6.1742622,6.1742622 0 0 0 0.125,0.167969 6.1742622,6.1742622 0 0 0 0.13086,0.16211 6.1742622,6.1742622 0 0 0 0.13476,0.160156 6.1742622,6.1742622 0 0 0 0.14063,0.154297 6.1742622,6.1742622 0 0 0 0.14648,0.148437 6.1742622,6.1742622 0 0 0 0.15039,0.144531 6.1742622,6.1742622 0 0 0 0.15625,0.140626 6.1742622,6.1742622 0 0 0 0.16016,0.132812 6.1742622,6.1742622 0 0 0 0.16406,0.128906 6.1742622,6.1742622 0 0 0 0.16992,0.123047 6.1742622,6.1742622 0 0 0 0.17188,0.117188 6.1742622,6.1742622 0 0 0 0.17773,0.111328 6.1742622,6.1742622 0 0 0 0.18164,0.103515 6.1742622,6.1742622 0 0 0 0.1836,0.09961 6.1742622,6.1742622 0 0 0 0.1875,0.09375 6.1742622,6.1742622 0 0 0 0.18945,0.08594 6.1742622,6.1742622 0 0 0 0.19336,0.07813 6.1742622,6.1742622 0 0 0 0.19531,0.07422 6.1742622,6.1742622 0 0 0 0.19922,0.06641 6.1742622,6.1742622 0 0 0 0.19922,0.06055 6.1742622,6.1742622 0 0 0 0.20312,0.05273 6.1742622,6.1742622 0 0 0 0.20313,0.04492 6.1742622,6.1742622 0 0 0 0.20508,0.03906 6.1742622,6.1742622 0 0 0 0.20703,0.0332 6.1742622,6.1742622 0 0 0 0.20703,0.02539 6.1742622,6.1742622 0 0 0 0.20703,0.01758 6.1742622,6.1742622 0 0 0 0.20899,0.01172 6.1742622,6.1742622 0 0 0 0.20898,0.0039 6.1742622,6.1742622 0 0 0 0.0801,-0.002 h 72.052732 a 6.1873128,6.1873128 0 0 0 0.208984,0 6.1873128,6.1873128 0 0 0 0.208985,-0.0078 6.1873128,6.1873128 0 0 0 0.208984,-0.01563 6.1873128,6.1873128 0 0 0 0.208984,-0.02148 6.1873128,6.1873128 0 0 0 0.207032,-0.0293 6.1873128,6.1873128 0 0 0 0.205078,-0.03516 6.1873128,6.1873128 0 0 0 0.205078,-0.04492 6.1873128,6.1873128 0 0 0 0.203125,-0.04883 6.1873128,6.1873128 0 0 0 0.201172,-0.05664 6.1873128,6.1873128 0 0 0 0.199218,-0.06445 6.1873128,6.1873128 0 0 0 0.197266,-0.07031 6.1873128,6.1873128 0 0 0 0.19336,-0.07617 6.1873128,6.1873128 0 0 0 0.193359,-0.08398 6.1873128,6.1873128 0 0 0 0.1875,-0.08984 6.1873128,6.1873128 0 0 0 0.185547,-0.0957 6.1873128,6.1873128 0 0 0 0.183594,-0.101562 6.1873128,6.1873128 0 0 0 0.177734,-0.109375 6.1873128,6.1873128 0 0 0 0.175781,-0.113281 6.1873128,6.1873128 0 0 0 0.171875,-0.121094 6.1873128,6.1873128 0 0 0 0.166016,-0.126953 6.1873128,6.1873128 0 0 0 0.162109,-0.13086 6.1873128,6.1873128 0 0 0 0.158203,-0.136719 6.1873128,6.1873128 0 0 0 0.154297,-0.142578 6.1873128,6.1873128 0 0 0 0.148438,-0.146484 6.1873128,6.1873128 0 0 0 0.142578,-0.152344 6.1873128,6.1873128 0 0 0 0.138672,-0.158203 6.1873128,6.1873128 0 0 0 0.132812,-0.162109 6.1873128,6.1873128 0 0 0 0.126953,-0.166016 6.1873128,6.1873128 0 0 0 0.121094,-0.169922 6.1873128,6.1873128 0 0 0 0.115234,-0.173828 6.1873128,6.1873128 0 0 0 0.111328,-0.177734 6.1873128,6.1873128 0 0 0 0.103516,-0.181641 6.1873128,6.1873128 0 0 0 0.0957,-0.185547 6.1873128,6.1873128 0 0 0 0.0918,-0.1875 6.1873128,6.1873128 0 0 0 0.08594,-0.191406 6.1873128,6.1873128 0 0 0 0.07813,-0.193359 6.1873128,6.1873128 0 0 0 0.07031,-0.197266 6.1873128,6.1873128 0 0 0 0.06445,-0.199219 6.1873128,6.1873128 0 0 0 0.05859,-0.201172 6.1873128,6.1873128 0 0 0 0.05273,-0.203125 6.1873128,6.1873128 0 0 0 0.04297,-0.203125 6.1873128,6.1873128 0 0 0 0.03906,-0.207031 6.1873128,6.1873128 0 0 0 0.0293,-0.207031 6.1873128,6.1873128 0 0 0 0.02344,-0.207031 6.1873128,6.1873128 0 0 0 0.01758,-0.208985 6.1873128,6.1873128 0 0 0 0.0078,-0.208984 6.1873128,6.1873128 0 0 0 0.002,-0.08789 V 13.818361 a 6.1833976,6.1833976 0 0 0 -0.0059,-0.208984 6.1833976,6.1833976 0 0 0 -0.01367,-0.208984 6.1833976,6.1833976 0 0 0 -0.01953,-0.207032 6.1833976,6.1833976 0 0 0 -0.0293,-0.207031 6.1833976,6.1833976 0 0 0 -0.0332,-0.207031 6.1833976,6.1833976 0 0 0 -0.04297,-0.205078 6.1833976,6.1833976 0 0 0 -0.04687,-0.203125 6.1833976,6.1833976 0 0 0 -0.05664,-0.201172 6.1833976,6.1833976 0 0 0 -0.0625,-0.201172 6.1833976,6.1833976 0 0 0 -0.06836,-0.197266 6.1833976,6.1833976 0 0 0 -0.07422,-0.193359 6.1833976,6.1833976 0 0 0 -0.08203,-0.193359 6.1833976,6.1833976 0 0 0 -0.08984,-0.189454 6.1833976,6.1833976 0 0 0 -0.09375,-0.185546 6.1833976,6.1833976 0 0 0 -0.101563,-0.183594 6.1833976,6.1833976 0 0 0 -0.107422,-0.179688 6.1833976,6.1833976 0 0 0 -0.113281,-0.175781 6.1833976,6.1833976 0 0 0 -0.11914,-0.171875 6.1833976,6.1833976 0 0 0 -0.125,-0.167969 6.1833976,6.1833976 0 0 0 -0.13086,-0.1621094 6.1833976,6.1833976 0 0 0 -0.134766,-0.160156 6.1833976,6.1833976 0 0 0 -0.142578,-0.154297 6.1833976,6.1833976 0 0 0 -0.144531,-0.148438 6.1833976,6.1833976 0 0 0 -0.152344,-0.144531 6.1833976,6.1833976 0 0 0 -0.15625,-0.138672 A 6.1833976,6.1833976 0 0 0 89.970703,9.0878919 6.1833976,6.1833976 0 0 0 89.804688,8.9589857 6.1833976,6.1833976 0 0 0 89.636719,8.8378919 6.1833976,6.1833976 0 0 0 89.462891,8.7207044 6.1833976,6.1833976 0 0 0 89.285156,8.6093763 a 6.1833976,6.1833976 0 0 0 -0.18164,-0.1054688 6.1833976,6.1833976 0 0 0 -0.183594,-0.097656 6.1833976,6.1833976 0 0 0 -0.1875,-0.091797 6.1833976,6.1833976 0 0 0 -0.191406,-0.085937 6.1833976,6.1833976 0 0 0 -0.19336,-0.080078 6.1833976,6.1833976 0 0 0 -0.195312,-0.072266 6.1833976,6.1833976 0 0 0 -0.197266,-0.066406 6.1833976,6.1833976 0 0 0 -0.201172,-0.060547 6.1833976,6.1833976 0 0 0 -0.203125,-0.052734 6.1833976,6.1833976 0 0 0 -0.203125,-0.044922 6.1833976,6.1833976 0 0 0 -0.205078,-0.039063 6.1833976,6.1833976 0 0 0 -0.207031,-0.03125 6.1833976,6.1833976 0 0 0 -0.207031,-0.025391 6.1833976,6.1833976 0 0 0 -0.208985,-0.017578 6.1833976,6.1833976 0 0 0 -0.208984,-0.011719 6.1833976,6.1833976 0 0 0 -0.208985,-0.00391 z" />
    <g
       id="g867"
       transform="matrix(1.1588159,0,0,1.1588159,-7.3823254,-7.4382392)"
       style="fill:#ffffff;fill-opacity:1">
      <path
         id="path861"
         style="opacity:1;fill:#ffffff;fill-opacity:1;stroke-width:9.48383"
         d="M 20.257812,39.419922 H 32.798828 V 79.769531 H 20.257812 Z" />
      <path
         id="path857"
         style="opacity:1;fill:#ffffff;fill-opacity:1;stroke-width:9.48383"
         d="m 64.253906,38.40625 a 13.181156,13.181156 0 0 1 0.304688,0.0039 13.181156,13.181156 0 0 1 0.175781,0.0059 c 1.587285,0 3.011731,0.13125 4.291016,0.380859 1.279284,0.249609 2.41342,0.61734 3.416015,1.09375 1.002596,0.47641 1.873642,1.061785 2.63086,1.742187 0.757218,0.680403 1.400207,1.456772 1.943359,2.31836 0.543152,0.861587 0.987259,1.808161 1.347656,2.828125 0.360397,1.019964 0.63675,2.112045 0.845703,3.267578 0.417907,2.311066 0.564454,4.871398 0.564454,7.587891 l -0.0059,22.134765 H 67.238281 V 60.148438 c 0,-1.169665 -0.0049,-2.423904 -0.113281,-3.646485 -0.10834,-1.222581 -0.31994,-2.413709 -0.732422,-3.458984 -0.206241,-0.522638 -0.462261,-1.008215 -0.78125,-1.44336 -0.318989,-0.435144 -0.700038,-0.819797 -1.15625,-1.138671 -0.456212,-0.318875 -0.987558,-0.572268 -1.605469,-0.746094 -0.61791,-0.173826 -1.322869,-0.267578 -2.126953,-0.267578 -0.815665,0 -1.545472,0.07885 -2.197265,0.228515 -0.651794,0.149667 -1.224858,0.370322 -1.730469,0.650391 -1.011222,0.560138 -1.748621,1.361969 -2.28125,2.328125 -0.53263,0.966156 -0.861085,2.096399 -1.056641,3.314453 -0.195556,1.218054 -0.257812,2.522059 -0.257812,3.837891 V 79.767578 H 40.669922 V 39.419922 h 12.027344 v 5.513672 h 0.169922 a 13.181156,13.181156 0 0 1 0.15625,-0.261719 13.181156,13.181156 0 0 1 0.164062,-0.257813 13.181156,13.181156 0 0 1 0.167969,-0.253906 13.181156,13.181156 0 0 1 0.175781,-0.25 13.181156,13.181156 0 0 1 0.179688,-0.246094 13.181156,13.181156 0 0 1 0.1875,-0.242187 13.181156,13.181156 0 0 1 0.191406,-0.238281 13.181156,13.181156 0 0 1 0.197265,-0.232422 13.181156,13.181156 0 0 1 0.203125,-0.228516 13.181156,13.181156 0 0 1 0.207032,-0.222656 13.181156,13.181156 0 0 1 0.21289,-0.21875 13.181156,13.181156 0 0 1 0.21875,-0.214844 13.181156,13.181156 0 0 1 0.222656,-0.207031 13.181156,13.181156 0 0 1 0.228516,-0.203125 13.181156,13.181156 0 0 1 0.232422,-0.199219 13.181156,13.181156 0 0 1 0.236328,-0.191406 13.181156,13.181156 0 0 1 0.242188,-0.1875 13.181156,13.181156 0 0 1 0.24414,-0.181641 13.181156,13.181156 0 0 1 0.25,-0.175781 13.181156,13.181156 0 0 1 0.253906,-0.169922 13.181156,13.181156 0 0 1 0.257813,-0.164062 13.181156,13.181156 0 0 1 0.261719,-0.158203 13.181156,13.181156 0 0 1 0.263672,-0.150391 13.181156,13.181156 0 0 1 0.269531,-0.146484 13.181156,13.181156 0 0 1 0.271484,-0.138672 13.181156,13.181156 0 0 1 0.273438,-0.132813 13.181156,13.181156 0 0 1 0.279297,-0.126953 13.181156,13.181156 0 0 1 0.279296,-0.121094 13.181156,13.181156 0 0 1 0.283204,-0.113281 13.181156,13.181156 0 0 1 0.287109,-0.107422 13.181156,13.181156 0 0 1 0.287109,-0.09961 13.181156,13.181156 0 0 1 0.291016,-0.09375 13.181156,13.181156 0 0 1 0.292969,-0.08789 13.181156,13.181156 0 0 1 0.294922,-0.08008 13.181156,13.181156 0 0 1 0.296875,-0.07227 13.181156,13.181156 0 0 1 0.296875,-0.06641 13.181156,13.181156 0 0 1 0.298828,-0.06055 13.181156,13.181156 0 0 1 0.300781,-0.05273 13.181156,13.181156 0 0 1 0.302734,-0.04492 13.181156,13.181156 0 0 1 0.302735,-0.03906 13.181156,13.181156 0 0 1 0.302734,-0.03125 13.181156,13.181156 0 0 1 0.304688,-0.02539 13.181156,13.181156 0 0 1 0.304687,-0.01563 13.181156,13.181156 0 0 1 0.306641,-0.01172 13.181156,13.181156 0 0 1 0.304687,-0.0039 z" />
      <path
         id="path853"
         style="opacity:1;fill:#ffffff;fill-opacity:1;stroke-width:9.48383"
         d="m 26.591797,19.363281 a 7.2705167,7.2705167 0 0 1 0.226562,0.0059 7.2705167,7.2705167 0 0 1 0.226563,0.01172 7.2705167,7.2705167 0 0 1 0.224609,0.01953 7.2705167,7.2705167 0 0 1 0.226563,0.02734 7.2705167,7.2705167 0 0 1 0.222656,0.0332 7.2705167,7.2705167 0 0 1 0.224609,0.04102 7.2705167,7.2705167 0 0 1 0.220703,0.04687 7.2705167,7.2705167 0 0 1 0.220704,0.05469 7.2705167,7.2705167 0 0 1 0.21875,0.06055 7.2705167,7.2705167 0 0 1 0.214843,0.06836 7.2705167,7.2705167 0 0 1 0.214844,0.07422 7.2705167,7.2705167 0 0 1 0.210938,0.08203 7.2705167,7.2705167 0 0 1 0.208984,0.08789 7.2705167,7.2705167 0 0 1 0.207031,0.09375 7.2705167,7.2705167 0 0 1 0.203125,0.101563 7.2705167,7.2705167 0 0 1 0.199219,0.105469 7.2705167,7.2705167 0 0 1 0.197266,0.113281 7.2705167,7.2705167 0 0 1 0.193359,0.119141 7.2705167,7.2705167 0 0 1 0.1875,0.126953 7.2705167,7.2705167 0 0 1 0.185547,0.130859 7.2705167,7.2705167 0 0 1 0.18164,0.136719 7.2705167,7.2705167 0 0 1 0.175782,0.140625 7.2705167,7.2705167 0 0 1 0.171875,0.148437 7.2705167,7.2705167 0 0 1 0.167969,0.152344 7.2705167,7.2705167 0 0 1 0.162109,0.158203 7.2705167,7.2705167 0 0 1 0.158203,0.164063 7.2705167,7.2705167 0 0 1 0.152344,0.167969 7.2705167,7.2705167 0 0 1 0.146484,0.171874 7.2705167,7.2705167 0 0 1 0.140625,0.177735 7.2705167,7.2705167 0 0 1 0.136719,0.181641 7.2705167,7.2705167 0 0 1 0.130859,0.185546 7.2705167,7.2705167 0 0 1 0.123047,0.189454 7.2705167,7.2705167 0 0 1 0.119141,0.193359 7.2705167,7.2705167 0 0 1 0.111328,0.197265 7.2705167,7.2705167 0 0 1 0.107422,0.201172 7.2705167,7.2705167 0 0 1 0.09961,0.203125 7.2705167,7.2705167 0 0 1 0.09375,0.207032 7.2705167,7.2705167 0 0 1 0.08594,0.208984 7.2705167,7.2705167 0 0 1 0.08008,0.210937 7.2705167,7.2705167 0 0 1 0.07422,0.214844 7.2705167,7.2705167 0 0 1 0.06641,0.216797 7.2705167,7.2705167 0 0 1 0.06055,0.21875 7.2705167,7.2705167 0 0 1 0.05273,0.220703 7.2705167,7.2705167 0 0 1 0.04687,0.220703 7.2705167,7.2705167 0 0 1 0.03906,0.22461 7.2705167,7.2705167 0 0 1 0.0332,0.224609 7.2705167,7.2705167 0 0 1 0.02539,0.22461 7.2705167,7.2705167 0 0 1 0.01758,0.226562 7.2705167,7.2705167 0 0 1 0.01172,0.226562 7.2705167,7.2705167 0 0 1 0.0039,0.226563 7.2705167,7.2705167 0 0 1 0,0.02344 7.2705167,7.2705167 0 0 1 -0.002,0.226563 7.2705167,7.2705167 0 0 1 -0.01172,0.226563 7.2705167,7.2705167 0 0 1 -0.01758,0.226562 7.2705167,7.2705167 0 0 1 -0.02344,0.224609 7.2705167,7.2705167 0 0 1 -0.0332,0.22461 7.2705167,7.2705167 0 0 1 -0.03711,0.224609 7.2705167,7.2705167 0 0 1 -0.04687,0.220703 7.2705167,7.2705167 0 0 1 -0.05273,0.220703 7.2705167,7.2705167 0 0 1 -0.05859,0.21875 7.2705167,7.2705167 0 0 1 -0.06641,0.216797 7.2705167,7.2705167 0 0 1 -0.07227,0.214844 7.2705167,7.2705167 0 0 1 -0.08008,0.212891 7.2705167,7.2705167 0 0 1 -0.08594,0.208984 7.2705167,7.2705167 0 0 1 -0.09375,0.207031 7.2705167,7.2705167 0 0 1 -0.09766,0.205078 7.2705167,7.2705167 0 0 1 -0.105469,0.199219 7.2705167,7.2705167 0 0 1 -0.111328,0.197266 7.2705167,7.2705167 0 0 1 -0.119141,0.195312 7.2705167,7.2705167 0 0 1 -0.123047,0.189453 7.2705167,7.2705167 0 0 1 -0.128906,0.185547 7.2705167,7.2705167 0 0 1 -0.134766,0.181641 7.2705167,7.2705167 0 0 1 -0.140625,0.177734 7.2705167,7.2705167 0 0 1 -0.146484,0.173828 7.2705167,7.2705167 0 0 1 -0.152344,0.167969 7.2705167,7.2705167 0 0 1 -0.15625,0.164063 7.2705167,7.2705167 0 0 1 -0.162109,0.160156 7.2705167,7.2705167 0 0 1 -0.167969,0.152344 7.2705167,7.2705167 0 0 1 -0.169922,0.148437 7.2705167,7.2705167 0 0 1 -0.175781,0.142578 7.2705167,7.2705167 0 0 1 -0.181641,0.138672 7.2705167,7.2705167 0 0 1 -0.183594,0.13086 7.2705167,7.2705167 0 0 1 -0.189453,0.126953 7.2705167,7.2705167 0 0 1 -0.191406,0.11914 7.2705167,7.2705167 0 0 1 -0.197265,0.113281 7.2705167,7.2705167 0 0 1 -0.199219,0.107422 7.2705167,7.2705167 0 0 1 -0.203125,0.101563 7.2705167,7.2705167 0 0 1 -0.205078,0.0957 7.2705167,7.2705167 0 0 1 -0.208985,0.08789 7.2705167,7.2705167 0 0 1 -0.210937,0.08203 7.2705167,7.2705167 0 0 1 -0.214844,0.07617 7.2705167,7.2705167 0 0 1 -0.214844,0.06836 7.2705167,7.2705167 0 0 1 -0.21875,0.0625 7.2705167,7.2705167 0 0 1 -0.220703,0.05469 7.2705167,7.2705167 0 0 1 -0.220703,0.04883 7.2705167,7.2705167 0 0 1 -0.222656,0.04102 7.2705167,7.2705167 0 0 1 -0.22461,0.03516 7.2705167,7.2705167 0 0 1 -0.224609,0.02734 7.2705167,7.2705167 0 0 1 -0.226563,0.01953 7.2705167,7.2705167 0 0 1 -0.226562,0.01367 7.2705167,7.2705167 0 0 1 -0.226562,0.0059 7.2705167,7.2705167 0 0 1 -0.08203,0 7.2705167,7.2705167 0 0 1 -0.228515,-0.0039 7.2705167,7.2705167 0 0 1 -0.22461,-0.0098 7.2705167,7.2705167 0 0 1 -0.226562,-0.01758 7.2705167,7.2705167 0 0 1 -0.226563,-0.02539 7.2705167,7.2705167 0 0 1 -0.224609,-0.03125 7.2705167,7.2705167 0 0 1 -0.222656,-0.03906 7.2705167,7.2705167 0 0 1 -0.222657,-0.04492 7.2705167,7.2705167 0 0 1 -0.220703,-0.05273 7.2705167,7.2705167 0 0 1 -0.21875,-0.05859 7.2705167,7.2705167 0 0 1 -0.216797,-0.06641 7.2705167,7.2705167 0 0 1 -0.214843,-0.07227 7.2705167,7.2705167 0 0 1 -0.210938,-0.08008 7.2705167,7.2705167 0 0 1 -0.210937,-0.08594 7.2705167,7.2705167 0 0 1 -0.207032,-0.09375 7.2705167,7.2705167 0 0 1 -0.203125,-0.09766 7.2705167,7.2705167 0 0 1 -0.201171,-0.105469 7.2705167,7.2705167 0 0 1 -0.197266,-0.111328 7.2705167,7.2705167 0 0 1 -0.19336,-0.119141 7.2705167,7.2705167 0 0 1 -0.189453,-0.123046 7.2705167,7.2705167 0 0 1 -0.1875,-0.128907 7.2705167,7.2705167 0 0 1 -0.18164,-0.136718 7.2705167,7.2705167 0 0 1 -0.177735,-0.140625 7.2705167,7.2705167 0 0 1 -0.173828,-0.146485 7.2705167,7.2705167 0 0 1 -0.167968,-0.15039 7.2705167,7.2705167 0 0 1 -0.164063,-0.158203 7.2705167,7.2705167 0 0 1 -0.158203,-0.160157 7.2705167,7.2705167 0 0 1 -0.154297,-0.167969 7.2705167,7.2705167 0 0 1 -0.148437,-0.171874 7.2705167,7.2705167 0 0 1 -0.142579,-0.175782 7.2705167,7.2705167 0 0 1 -0.136718,-0.179687 7.2705167,7.2705167 0 0 1 -0.132813,-0.185547 7.2705167,7.2705167 0 0 1 -0.125,-0.1875 7.2705167,7.2705167 0 0 1 -0.11914,-0.19336 7.2705167,7.2705167 0 0 1 -0.115235,-0.195312 7.2705167,7.2705167 0 0 1 -0.107422,-0.199219 7.2705167,7.2705167 0 0 1 -0.101562,-0.203125 7.2705167,7.2705167 0 0 1 -0.09375,-0.205078 7.2705167,7.2705167 0 0 1 -0.08984,-0.208984 7.2705167,7.2705167 0 0 1 -0.08203,-0.210938 7.2705167,7.2705167 0 0 1 -0.07422,-0.214844 7.2705167,7.2705167 0 0 1 -0.07031,-0.214843 7.2705167,7.2705167 0 0 1 -0.06055,-0.21875 7.2705167,7.2705167 0 0 1 -0.05664,-0.220703 7.2705167,7.2705167 0 0 1 -0.04687,-0.220704 7.2705167,7.2705167 0 0 1 -0.04102,-0.222656 7.2705167,7.2705167 0 0 1 -0.03516,-0.224609 7.2705167,7.2705167 0 0 1 -0.02734,-0.224609 7.2705167,7.2705167 0 0 1 -0.01953,-0.226563 7.2705167,7.2705167 0 0 1 -0.01367,-0.226563 7.2705167,7.2705167 0 0 1 -0.0059,-0.226562 7.2705167,7.2705167 0 0 1 0,-0.226562 7.2705167,7.2705167 0 0 1 0.0078,-0.226563 7.2705167,7.2705167 0 0 1 0.01563,-0.226563 7.2705167,7.2705167 0 0 1 0.02148,-0.224609 7.2705167,7.2705167 0 0 1 0.0293,-0.224609 7.2705167,7.2705167 0 0 1 0.03711,-0.22461 7.2705167,7.2705167 0 0 1 0.04297,-0.222656 7.2705167,7.2705167 0 0 1 0.04883,-0.220703 7.2705167,7.2705167 0 0 1 0.05664,-0.220703 7.2705167,7.2705167 0 0 1 0.06445,-0.216797 7.2705167,7.2705167 0 0 1 0.07031,-0.214844 7.2705167,7.2705167 0 0 1 0.07617,-0.214843 7.2705167,7.2705167 0 0 1 0.08398,-0.208985 7.2705167,7.2705167 0 0 1 0.08984,-0.208984 7.2705167,7.2705167 0 0 1 0.09766,-0.205078 7.2705167,7.2705167 0 0 1 0.103516,-0.201172 7.2705167,7.2705167 0 0 1 0.109375,-0.199219 7.2705167,7.2705167 0 0 1 0.115234,-0.195312 7.2705167,7.2705167 0 0 1 0.121094,-0.191407 7.2705167,7.2705167 0 0 1 0.126953,-0.1875 7.2705167,7.2705167 0 0 1 0.132813,-0.183593 7.2705167,7.2705167 0 0 1 0.138672,-0.179688 7.2705167,7.2705167 0 0 1 0.144531,-0.173828 7.2705167,7.2705167 0 0 1 0.150391,-0.171875 7.2705167,7.2705167 0 0 1 0.154296,-0.164063 7.2705167,7.2705167 0 0 1 0.160157,-0.162109 7.2705167,7.2705167 0 0 1 0.166015,-0.154297 7.2705167,7.2705167 0 0 1 0.169922,-0.15039 7.2705167,7.2705167 0 0 1 0.173828,-0.144532 7.2705167,7.2705167 0 0 1 0.177735,-0.140625 7.2705167,7.2705167 0 0 1 0.183593,-0.132812 7.2705167,7.2705167 0 0 1 0.1875,-0.128907 7.2705167,7.2705167 0 0 1 0.191407,-0.121093 7.2705167,7.2705167 0 0 1 0.193359,-0.117188 7.2705167,7.2705167 0 0 1 0.199219,-0.109375 7.2705167,7.2705167 0 0 1 0.201172,-0.103515 7.2705167,7.2705167 0 0 1 0.205078,-0.09766 7.2705167,7.2705167 0 0 1 0.207031,-0.0918 7.2705167,7.2705167 0 0 1 0.210938,-0.08398 7.2705167,7.2705167 0 0 1 0.21289,-0.07813 7.2705167,7.2705167 0 0 1 0.214844,-0.07031 7.2705167,7.2705167 0 0 1 0.216797,-0.06445 7.2705167,7.2705167 0 0 1 0.220703,-0.05859 7.2705167,7.2705167 0 0 1 0.220703,-0.05078 7.2705167,7.2705167 0 0 1 0.222656,-0.04297 7.2705167,7.2705167 0 0 1 0.222657,-0.03711 7.2705167,7.2705167 0 0 1 0.224609,-0.0293 7.2705167,7.2705167 0 0 1 0.226562,-0.02344 7.2705167,7.2705167 0 0 1 0.226563,-0.01563 7.2705167,7.2705167 0 0 1 0.226562,-0.0098 7.2705167,7.2705167 0 0 1 0.226563,-0.002 z" />
    </g>
  </g>
</svg>
