<?xml version="1.0" encoding="UTF-8" standalone="no"?>
<svg
   xmlns:dc="http://purl.org/dc/elements/1.1/"
   xmlns:cc="http://creativecommons.org/ns#"
   xmlns:rdf="http://www.w3.org/1999/02/22-rdf-syntax-ns#"
   xmlns:svg="http://www.w3.org/2000/svg"
   xmlns="http://www.w3.org/2000/svg"
   xmlns:sodipodi="http://sodipodi.sourceforge.net/DTD/sodipodi-0.dtd"
   xmlns:inkscape="http://www.inkscape.org/namespaces/inkscape"
   width="100"
   height="100"
   viewBox="0 0 100 100"
   version="1.1"
   id="svg8"
   inkscape:version="1.0.2 (e86c870879, 2021-01-15, custom)"
   sodipodi:docname="reddit.svg">
  <defs
     id="defs2" />
  <sodipodi:namedview
     id="base"
     pagecolor="#ffffff"
     bordercolor="#666666"
     borderopacity="1.0"
     inkscape:pageopacity="0.0"
     inkscape:pageshadow="2"
     inkscape:zoom="1.4"
     inkscape:cx="-10.950061"
     inkscape:cy="60.203051"
     inkscape:document-units="px"
     inkscape:current-layer="layer1"
     inkscape:document-rotation="0"
     showgrid="false"
     units="px"
     inkscape:window-width="1920"
     inkscape:window-height="1019"
     inkscape:window-x="0"
     inkscape:window-y="33"
     inkscape:window-maximized="1" />
  <metadata
     id="metadata5">
    <rdf:RDF>
      <cc:Work
         rdf:about="">
        <dc:format>image/svg+xml</dc:format>
        <dc:type
           rdf:resource="http://purl.org/dc/dcmitype/StillImage" />
        <dc:title />
      </cc:Work>
    </rdf:RDF>
  </metadata>
  <g
     inkscape:label="Calque 1"
     inkscape:groupmode="layer"
     id="layer1">
    <rect
       style="opacity:1;fill:#ff4500;fill-opacity:1;stroke-width:7.65706"
       id="rect833"
       width="100"
       height="100"
       x="0"
       y="0" />
    <path
       class="st1"
       d="m 85,50.553602 c 0,-4.244289 -3.444636,-7.688927 -7.688926,-7.688927 -2.091395,0 -3.936731,0.799648 -5.289983,2.152899 -5.22847,-3.752197 -12.486823,-6.212653 -20.483309,-6.520211 L 55.04394,22.073814 66.423549,24.47276 c 0.123024,2.891037 2.521968,5.22847 5.474519,5.22847 3.014062,0 5.474518,-2.460456 5.474518,-5.474516 0,-3.01406 -2.460456,-5.474517 -5.474518,-5.474517 -2.152896,0 -3.998243,1.23023 -4.859399,3.075571 L 54.305797,19.121265 c -0.369061,-0.06151 -0.738132,0 -1.045692,0.184535 -0.307559,0.184535 -0.492095,0.492091 -0.615109,0.861159 l -3.875218,18.330405 c -8.181022,0.246046 -15.500887,2.644992 -20.790869,6.520211 -1.353252,-1.29174 -3.2601,-2.152899 -5.289983,-2.152899 -4.24428,0 -7.688926,3.444638 -7.688926,7.688927 0,3.137082 1.845347,5.782073 4.55185,7.012302 -0.123024,0.738137 -0.184536,1.537785 -0.184536,2.337435 0,11.810193 13.717041,21.344463 30.694203,21.344463 16.977152,0 30.694193,-9.53427 30.694193,-21.344463 0,-0.79965 -0.06153,-1.537785 -0.184536,-2.275923 C 83.093141,56.397188 85,53.690685 85,50.553602 Z m -52.592265,5.474517 c 0,-3.014061 2.460455,-5.474517 5.474518,-5.474517 3.014063,0 5.474518,2.460456 5.474518,5.474517 0,3.014059 -2.460455,5.474516 -5.474518,5.474516 -3.014063,0 -5.474518,-2.460457 -5.474518,-5.474516 z m 30.571179,14.455184 c -3.752195,3.752196 -10.887525,3.998242 -12.978909,3.998242 -2.091394,0 -9.288225,-0.307558 -12.978919,-3.998242 -0.553597,-0.553603 -0.553597,-1.476275 0,-2.029878 0.553607,-0.553603 1.476276,-0.553603 2.029883,0 2.337431,2.337434 7.381366,3.198595 11.010548,3.198595 3.629172,0 8.611594,-0.861161 11.010538,-3.198595 0.553607,-0.553603 1.476275,-0.553603 2.029883,0 0.430573,0.615114 0.430573,1.476275 -0.123024,2.029878 z m -0.984191,-8.980668 c -3.014052,0 -5.474508,-2.460457 -5.474508,-5.474516 0,-3.014061 2.460456,-5.474517 5.474508,-5.474517 3.014063,0 5.474518,2.460456 5.474518,5.474517 0,3.014059 -2.460455,5.474516 -5.474518,5.474516 z"
       id="path6"
       style="fill:#ffffff;stroke-width:0.615114" />
  </g>
</svg>
