<?xml version="1.0" encoding="UTF-8" standalone="no"?>
<svg
   xmlns:dc="http://purl.org/dc/elements/1.1/"
   xmlns:cc="http://creativecommons.org/ns#"
   xmlns:rdf="http://www.w3.org/1999/02/22-rdf-syntax-ns#"
   xmlns:svg="http://www.w3.org/2000/svg"
   xmlns="http://www.w3.org/2000/svg"
   xmlns:sodipodi="http://sodipodi.sourceforge.net/DTD/sodipodi-0.dtd"
   xmlns:inkscape="http://www.inkscape.org/namespaces/inkscape"
   width="100"
   height="100"
   viewBox="0 0 100 100"
   version="1.1"
   id="svg8"
   inkscape:version="1.0.2 (e86c870879, 2021-01-15, custom)"
   sodipodi:docname="snapchat.svg">
  <defs
     id="defs2" />
  <sodipodi:namedview
     id="base"
     pagecolor="#ffffff"
     bordercolor="#666666"
     borderopacity="1.0"
     inkscape:pageopacity="0.0"
     inkscape:pageshadow="2"
     inkscape:zoom="1.979899"
     inkscape:cx="-88.102322"
     inkscape:cy="103.47848"
     inkscape:document-units="px"
     inkscape:current-layer="layer1"
     inkscape:document-rotation="0"
     showgrid="false"
     units="px"
     inkscape:window-width="1920"
     inkscape:window-height="1019"
     inkscape:window-x="0"
     inkscape:window-y="33"
     inkscape:window-maximized="1" />
  <metadata
     id="metadata5">
    <rdf:RDF>
      <cc:Work
         rdf:about="">
        <dc:format>image/svg+xml</dc:format>
        <dc:type
           rdf:resource="http://purl.org/dc/dcmitype/StillImage" />
        <dc:title />
      </cc:Work>
    </rdf:RDF>
  </metadata>
  <g
     inkscape:label="Calque 1"
     inkscape:groupmode="layer"
     id="layer1">
    <rect
       style="opacity:1;fill:#fffc00;fill-opacity:1;stroke:none;stroke-width:5.33223;stroke-opacity:1"
       id="rect841"
       width="100"
       height="100"
       x="0"
       y="0" />
    <g
       id="g845"
       transform="matrix(0.71071631,0,0,0.71071631,14.464491,14.464187)">
      <path
         id="rect831"
         style="opacity:1;fill:#ffffff;fill-opacity:1;stroke-width:6.29397"
         d="m 49.987208,6.3681462 c -1.400441,0 -2.718283,0.095512 -3.953125,0.2675781 -1.234842,0.1720659 -2.386876,0.419357 -3.458984,0.7207031 -2.144215,0.6026922 -3.966099,1.4220575 -5.476563,2.2851562 -1.510463,0.8630994 -2.709747,1.7695624 -3.609374,2.5507814 -0.899628,0.78122 -1.500796,1.435914 -1.8125,1.792969 -0.648963,0.742858 -1.27063,1.510822 -1.84961,2.34961 -0.57898,0.838788 -1.114067,1.749805 -1.585937,2.779297 -0.471871,1.029491 -0.881351,2.177218 -1.208985,3.492187 -0.327634,1.314969 -0.574433,2.796968 -0.720703,4.492187 -0.21334,2.464266 -0.224386,5.014467 -0.162109,7.28711 0.06228,2.272642 0.198139,4.268239 0.277344,5.621094 0.02555,0.424125 -0.02635,0.728448 -0.177735,0.927734 -0.151382,0.199286 -0.401014,0.292969 -0.771484,0.292969 a 2.2074908,2.2074908 0 0 1 -0.01758,0 2.2074908,2.2074908 0 0 1 -0.125,-0.0078 2.2074908,2.2074908 0 0 1 -0.125,-0.01367 2.2074908,2.2074908 0 0 1 -0.123047,-0.01953 2.2074908,2.2074908 0 0 1 -0.121094,-0.0293 c -1.38735,-0.3347 -3.788519,-1.572835 -6.261719,-2.109375 a 5.6975746,5.6975746 0 0 0 -0.03516,-0.0078 5.6975746,5.6975746 0 0 0 -0.197266,-0.03906 5.6975746,5.6975746 0 0 0 -0.197265,-0.0332 5.6975746,5.6975746 0 0 0 -0.199219,-0.02344 5.6975746,5.6975746 0 0 0 -0.199219,-0.01953 5.6975746,5.6975746 0 0 0 -0.201172,-0.01172 5.6975746,5.6975746 0 0 0 -0.201172,-0.0039 c -0.65407,0 -1.292932,0.127058 -1.832031,0.419922 -0.539098,0.292864 -0.976927,0.751797 -1.232425,1.419922 -0.18268,0.482888 -0.25781,0.943194 -0.23242,1.386719 0.0254,0.443525 0.15005,0.869656 0.369142,1.285156 0.438178,0.831001 1.250213,1.617367 2.376953,2.404297 1.36179,0.95045 6.2687,3.989739 7.375,5.011719 0.572315,0.52888 0.822686,0.99629 0.91211,1.46289 0.08942,0.466601 0.01955,0.931236 -0.04687,1.451172 -0.02747,0.214617 -0.202411,1.098962 -0.691407,2.421875 -0.488996,1.322914 -1.29278,3.085767 -2.576171,5.054688 -0.641696,0.98446 -1.403935,2.020795 -2.306641,3.080078 -0.902707,1.059283 -1.945065,2.140477 -3.150391,3.216797 -1.205325,1.076319 -2.57349,2.146071 -4.12305,3.18164 -1.54955,1.03557 -3.2814095,2.037576 -5.2167895,2.97461 -0.45351,0.219727 -1.06557,0.561885 -1.22461,1.037109 -0.0795,0.237612 -0.0461,0.509135 0.17773,0.814453 0.2238,0.305319 0.6381,0.643952 1.31836,1.019532 2.13595,1.174006 3.9127495,1.697313 5.4335895,2.105468 1.52085,0.408156 2.78433,0.700552 3.89063,1.41211 0.468837,0.302124 0.75231,0.692138 0.933593,1.121093 0.181284,0.428955 0.262138,0.897369 0.326172,1.357422 0.06403,0.460054 0.111426,0.91122 0.228516,1.306641 0.11709,0.395421 0.302128,0.735646 0.642578,0.970703 0.419653,0.28935 1.046395,0.428209 1.847656,0.507813 0.801261,0.0796 1.77768,0.09893 2.902344,0.148437 1.124664,0.0495 2.397248,0.129077 3.787109,0.328125 1.389861,0.199048 2.897288,0.518636 4.494141,1.046875 1.341358,0.442009 2.552538,1.086582 3.763672,1.804687 1.211134,0.718106 2.421958,1.509625 3.761719,2.246094 1.33976,0.736469 2.807919,1.416962 4.535156,1.914063 1.727237,0.4971 3.714327,0.810547 6.08789,0.810547 2.373564,0 4.364352,-0.312848 6.097657,-0.810547 1.733305,-0.4977 3.208503,-1.179707 4.552734,-1.916016 1.344232,-0.736309 2.557329,-1.528311 3.763672,-2.244141 1.206343,-0.715829 2.404969,-1.356708 3.724609,-1.792968 1.600048,-0.52824 3.111293,-0.845874 4.501954,-1.044922 1.39066,-0.199048 2.66113,-0.278623 3.785156,-0.328125 1.124025,-0.0495 2.100247,-0.06884 2.90039,-0.148438 0.800144,-0.0796 1.424736,-0.220415 1.84375,-0.509765 0.341088,-0.235057 0.527522,-0.573329 0.644532,-0.96875 0.117009,-0.395421 0.164801,-0.846587 0.228515,-1.306641 0.06372,-0.460054 0.143016,-0.928467 0.324219,-1.357422 0.181203,-0.428955 0.464118,-0.818969 0.933594,-1.121093 1.105022,-0.711558 2.367828,-1.00431 3.888672,-1.414063 1.520843,-0.409753 3.300271,-0.936793 5.4375,-2.117187 0.680259,-0.378774 1.092727,-0.71995 1.316406,-1.027344 0.223679,-0.307395 0.257737,-0.580785 0.177734,-0.820313 -0.160004,-0.479056 -0.775083,-0.826018 -1.232422,-1.054687 -1.935706,-0.935437 -3.66707,-1.934378 -5.216796,-2.96875 -1.549727,-1.034372 -2.917662,-2.104167 -4.123047,-3.179688 -1.205386,-1.075521 -2.247709,-2.15596 -3.150391,-3.214844 -0.902682,-1.058883 -1.665025,-2.095617 -2.306641,-3.080078 -1.283231,-1.96892 -2.085421,-3.73213 -2.574218,-5.05664 -0.488797,-1.324511 -0.663941,-2.209924 -0.691407,-2.427735 -0.06643,-0.519935 -0.137932,-0.984571 -0.04883,-1.451171 0.08911,-0.466601 0.33852,-0.935964 0.91211,-1.464844 1.106301,-1.02454 6.015156,-4.059316 7.376953,-5.009766 1.128017,-0.78693 1.937781,-1.573296 2.375,-2.404297 0.218609,-0.4155 0.344189,-0.841631 0.36914,-1.285156 0.02495,-0.443525 -0.04974,-0.905784 -0.232421,-1.388672 C 85.327411,40.053496 84.888626,39.593644 84.350487,39.299822 83.812347,39.006001 83.174406,38.8799 82.516502,38.8799 a 5.6975746,5.6975746 0 0 0 -0.03516,0 5.6975746,5.6975746 0 0 0 -0.201172,0.0039 5.6975746,5.6975746 0 0 0 -0.199219,0.01367 5.6975746,5.6975746 0 0 0 -0.201172,0.01953 5.6975746,5.6975746 0 0 0 -0.197265,0.02539 5.6975746,5.6975746 0 0 0 -0.199219,0.03516 5.6975746,5.6975746 0 0 0 -0.195312,0.03906 c -2.473207,0.53654 -4.875723,1.776628 -6.265625,2.111328 a 2.1870511,2.1870511 0 0 1 -0.01953,0.0039 2.1870511,2.1870511 0 0 1 -0.121093,0.02734 2.1870511,2.1870511 0 0 1 -0.123047,0.01953 2.1870511,2.1870511 0 0 1 -0.123047,0.01172 2.1870511,2.1870511 0 0 1 -0.125,0.0059 c -0.37047,0 -0.621097,-0.08153 -0.773438,-0.275391 -0.15234,-0.193857 -0.205166,-0.499472 -0.175781,-0.945312 0.08687,-1.351575 0.220889,-3.346179 0.28125,-5.619141 0.06036,-2.272962 0.04732,-4.824797 -0.166015,-7.289063 -0.144995,-1.695219 -0.391555,-3.177218 -0.71875,-4.492187 -0.327196,-1.314969 -0.735002,-2.462696 -1.207032,-3.492187 -0.47203,-1.029492 -1.008392,-1.940511 -1.58789,-2.779297 -0.579499,-0.838787 -1.201963,-1.604802 -1.851563,-2.347657 -0.311706,-0.35578 -0.913388,-1.009002 -1.814453,-1.787109 C 65.595904,11.390877 64.394115,10.487555 62.881735,9.6279678 61.369354,8.7683815 59.546918,7.9527943 57.401266,7.3525772 56.32844,7.0524686 55.173636,6.8071376 53.938375,6.6357803 52.703114,6.464423 51.387644,6.3682022 49.987203,6.3682022 Z" />
      <path
         id="path838"
         style="opacity:1;fill:#000000;fill-opacity:1;stroke-width:6.29397"
         d="m 50,0.75390625 c -1.437807,0 -2.844977,0.0839642 -4.21875,0.25195315 -1.373773,0.1679889 -2.714619,0.4211587 -4.021484,0.7558594 -1.306865,0.3347006 -2.579325,0.7518179 -3.816407,1.2519531 -1.237082,0.5001351 -2.43909,1.0818012 -3.603515,1.7460937 a 26.730056,26.730056 0 0 0 -0.376953,0.2167969 26.730056,26.730056 0 0 0 -0.373047,0.2226563 26.730056,26.730056 0 0 0 -0.371094,0.2285156 26.730056,26.730056 0 0 0 -0.365234,0.234375 26.730056,26.730056 0 0 0 -0.363282,0.2402344 26.730056,26.730056 0 0 0 -0.357422,0.2460937 26.730056,26.730056 0 0 0 -0.355468,0.2519531 26.730056,26.730056 0 0 0 -0.34961,0.2578125 26.730056,26.730056 0 0 0 -0.345703,0.2617188 26.730056,26.730056 0 0 0 -0.341797,0.2695312 26.730056,26.730056 0 0 0 -0.33789,0.2734375 26.730056,26.730056 0 0 0 -0.332032,0.28125 26.730056,26.730056 0 0 0 -0.328124,0.2851563 26.730056,26.730056 0 0 0 -0.324219,0.2910156 26.730056,26.730056 0 0 0 -0.31836,0.2949219 26.730056,26.730056 0 0 0 -0.3125,0.3007812 26.730056,26.730056 0 0 0 -0.310547,0.3066406 26.730056,26.730056 0 0 0 -0.302734,0.3105469 26.730056,26.730056 0 0 0 -0.298828,0.3164063 26.730056,26.730056 0 0 0 -0.292969,0.3203126 26.730056,26.730056 0 0 0 -0.09961,0.109375 c -0.76649,0.877632 -1.525955,1.811414 -2.244141,2.849609 -0.718185,1.038196 -1.39543,2.181514 -2,3.476563 -0.604569,1.295048 -1.134905,2.742432 -1.560547,4.390625 -0.425641,1.648193 -0.746331,3.496122 -0.927734,5.59375 -0.2044,2.38889 -0.255876,4.828534 -0.222656,7.115234 -0.20695,-0.0537 -0.414893,-0.102447 -0.626953,-0.148437 a 11.433474,11.433474 0 0 0 -0.279297,-0.05469 11.433474,11.433474 0 0 0 -0.28125,-0.05078 11.433474,11.433474 0 0 0 -0.279297,-0.04102 11.433474,11.433474 0 0 0 -0.283203,-0.03516 11.433474,11.433474 0 0 0 -0.283203,-0.0293 11.433474,11.433474 0 0 0 -0.283203,-0.02148 11.433474,11.433474 0 0 0 -0.283204,-0.01367 11.433474,11.433474 0 0 0 -0.285156,-0.0078 11.433474,11.433474 0 0 0 -0.158203,0 c -0.962582,0 -1.882642,0.130675 -2.742187,0.378907 -0.859546,0.248231 -1.657215,0.612912 -2.375,1.083984 -0.717786,0.471072 -1.355277,1.048273 -1.892579,1.716797 -0.5373017,0.668524 -0.9748734,1.428946 -1.2929684,2.269531 a 8.7405393,8.7405393 0 0 0 -0.08789,0.232415 8.7405393,8.7405393 0 0 0 -0.080078,0.236328 8.7405393,8.7405393 0 0 0 -0.072266,0.236328 8.7405393,8.7405393 0 0 0 -0.066406,0.240235 8.7405393,8.7405393 0 0 0 -0.060547,0.240234 8.7405393,8.7405393 0 0 0 -0.052734,0.244141 8.7405393,8.7405393 0 0 0 -0.046875,0.24414 8.7405393,8.7405393 0 0 0 -0.039063,0.246094 8.7405393,8.7405393 0 0 0 -0.03125,0.246094 8.7405393,8.7405393 0 0 0 -0.025391,0.246093 8.7405393,8.7405393 0 0 0 -0.017578,0.248047 8.7405393,8.7405393 0 0 0 -0.011719,0.25 8.7405393,8.7405393 0 0 0 -0.00391,0.248047 8.7405393,8.7405393 0 0 0 0.00391,0.248047 8.7405393,8.7405393 0 0 0 0.00977,0.248047 8.7405393,8.7405393 0 0 0 0.017578,0.248047 8.7405393,8.7405393 0 0 0 0.025391,0.248047 8.7405393,8.7405393 0 0 0 0.03125,0.246094 8.7405393,8.7405393 0 0 0 0.039063,0.246093 8.7405393,8.7405393 0 0 0 0.044922,0.244141 8.7405393,8.7405393 0 0 0 0.052734,0.242187 8.7405393,8.7405393 0 0 0 0.058594,0.242188 8.7405393,8.7405393 0 0 0 0.066406,0.240234 8.7405393,8.7405393 0 0 0 0.072266,0.236328 8.7405393,8.7405393 0 0 0 0.080078,0.236329 8.7405393,8.7405393 0 0 0 0.085937,0.232421 8.7405393,8.7405393 0 0 0 0.09375,0.232422 8.7405393,8.7405393 0 0 0 0.097656,0.226563 8.7405393,8.7405393 0 0 0 0.1074218,0.224609 8.7405393,8.7405393 0 0 0 0.1113282,0.222656 8.7405393,8.7405393 0 0 0 0.019531,0.03516 c 0.4228514,0.80098 0.9702054,1.559901 1.6542974,2.287109 0.684093,0.727208 1.504251,1.423146 2.46875,2.097656 0.51099,0.35769 1.31171,0.874023 2.31836,1.533203 0.544209,0.352583 1.337917,0.868662 2.117187,1.384766 a 2.2739199,2.2739199 0 0 1 0.103516,0.07227 2.2739199,2.2739199 0 0 1 0.101562,0.07617 2.2739199,2.2739199 0 0 1 0.0957,0.08398 2.2739199,2.2739199 0 0 1 0.0918,0.08789 2.2739199,2.2739199 0 0 1 0.08594,0.09375 2.2739199,2.2739199 0 0 1 0.08008,0.09766 2.2739199,2.2739199 0 0 1 0.07422,0.101562 2.2739199,2.2739199 0 0 1 0.04687,0.06836 c 0.16352,0.3347 0.168511,0.695083 -0.07422,1.359375 a 21.024817,21.024817 0 0 1 -0.162109,0.349609 21.024817,21.024817 0 0 1 -0.169922,0.347656 21.024817,21.024817 0 0 1 -0.175781,0.341797 21.024817,21.024817 0 0 1 -0.181641,0.341797 21.024817,21.024817 0 0 1 -0.1875,0.335937 21.024817,21.024817 0 0 1 -0.193359,0.333985 21.024817,21.024817 0 0 1 -0.201172,0.328125 21.024817,21.024817 0 0 1 -0.205078,0.326172 21.024817,21.024817 0 0 1 -0.212891,0.322265 21.024817,21.024817 0 0 1 -0.152344,0.22461 c -1.24427,1.820413 -2.757391,3.503528 -4.527343,5.039062 -1.769952,1.535535 -3.796393,2.924831 -6.070313,4.160157 -1.20467,0.638741 -2.432835,1.171979 -3.4921875,1.904296 -0.5296762,0.366159 -1.0183228,0.78099 -1.4394531,1.285157 -0.42113034,0.504166 -0.77462253,1.095869 -1.03906252,1.814453 -0.1992875,0.542291 -0.31803126,1.104909 -0.34960938,1.673828 -0.03157812,0.568919 0.02405563,1.144681 0.16601562,1.71875 0.14196,0.574069 0.37203251,1.145384 0.69335938,1.703125 0.3213269,0.557741 0.7337119,1.103111 1.2402344,1.623047 a 10.125331,10.125331 0 0 0 0.1875,0.189453 10.125331,10.125331 0 0 0 0.1914062,0.185547 10.125331,10.125331 0 0 0 0.1972657,0.18164 10.125331,10.125331 0 0 0 0.203125,0.175782 10.125331,10.125331 0 0 0 0.2070312,0.169922 10.125331,10.125331 0 0 0 0.2109375,0.164062 10.125331,10.125331 0 0 0 0.2148437,0.158203 10.125331,10.125331 0 0 0 0.21875,0.152344 10.125331,10.125331 0 0 0 0.2246094,0.148437 10.125331,10.125331 0 0 0 0.2265625,0.140625 10.125331,10.125331 0 0 0 0.2324219,0.134766 10.125331,10.125331 0 0 0 0.234375,0.128906 10.125331,10.125331 0 0 0 0.00586,0.0039 27.683059,27.683059 0 0 0 0.3886718,0.208984 27.683059,27.683059 0 0 0 0.3925782,0.205078 27.683059,27.683059 0 0 0 0.3964844,0.197266 27.683059,27.683059 0 0 0 0.3984374,0.191406 27.683059,27.683059 0 0 0 0.4023438,0.183594 27.683059,27.683059 0 0 0 0.4042969,0.177734 27.683059,27.683059 0 0 0 0.4082031,0.171875 27.683059,27.683059 0 0 0 0.4101562,0.166016 27.683059,27.683059 0 0 0 0.4140626,0.158203 27.683059,27.683059 0 0 0 0.4160156,0.152344 27.683059,27.683059 0 0 0 0.4160156,0.144531 27.683059,27.683059 0 0 0 0.421875,0.138672 27.683059,27.683059 0 0 0 0.421875,0.132812 27.683059,27.683059 0 0 0 0.4238284,0.125 27.683059,27.683059 0 0 0 0.425781,0.117188 27.683059,27.683059 0 0 0 0.111328,0.0293 4.1288254,4.1288254 0 0 1 0.164063,0.04687 4.1288254,4.1288254 0 0 1 0.162109,0.05273 4.1288254,4.1288254 0 0 1 0.160157,0.06055 4.1288254,4.1288254 0 0 1 0.158203,0.06445 4.1288254,4.1288254 0 0 1 0.154297,0.07422 4.1288254,4.1288254 0 0 1 0.152343,0.07813 4.1288254,4.1288254 0 0 1 0.146485,0.08594 4.1288254,4.1288254 0 0 1 0.144531,0.08984 4.1288254,4.1288254 0 0 1 0.01953,0.01367 c 0.369195,0.323203 0.527728,0.728098 0.716797,1.230468 0.189069,0.502371 0.408561,1.101618 0.900391,1.814454 a 7.102806,7.102806 0 0 0 0.126953,0.183593 7.102806,7.102806 0 0 0 0.134766,0.179688 7.102806,7.102806 0 0 0 0.138671,0.175781 7.102806,7.102806 0 0 0 0.144532,0.171875 7.102806,7.102806 0 0 0 0.15039,0.166016 7.102806,7.102806 0 0 0 0.154297,0.162109 7.102806,7.102806 0 0 0 0.160156,0.158203 7.102806,7.102806 0 0 0 0.164063,0.150391 7.102806,7.102806 0 0 0 0.169922,0.146484 7.102806,7.102806 0 0 0 0.173828,0.140625 7.102806,7.102806 0 0 0 0.179687,0.136719 7.102806,7.102806 0 0 0 0.152344,0.109375 c 1.03221,0.712836 2.128175,1.090353 3.273438,1.302734 1.145262,0.212382 2.339419,0.259374 3.568359,0.306641 1.110135,0.04215 2.294561,0.08694 3.560547,0.240234 1.265986,0.153299 2.613611,0.414726 4.050781,0.888672 1.19061,0.393465 2.427988,1.155794 3.861328,2.044922 1.72077,1.057756 3.757953,2.308742 6.351563,3.296875 1.296805,0.494067 2.733651,0.922122 4.33789,1.226563 1.60424,0.30444 3.3765,0.486328 5.347657,0.486328 1.971156,0 3.745763,-0.182284 5.353515,-0.488282 1.607753,-0.305997 3.049009,-0.735959 4.351563,-1.232421 2.605107,-0.992924 4.657079,-2.250912 6.390625,-3.3125 1.423117,-0.873798 2.653147,-1.628474 3.810547,-2.011719 1.437168,-0.475224 2.784795,-0.735693 4.050781,-0.888672 1.265986,-0.152979 2.450414,-0.198077 3.560547,-0.240234 1.228939,-0.04726 2.423096,-0.09231 3.568359,-0.304688 1.145264,-0.212382 2.241231,-0.591852 3.273438,-1.304687 a 7.1258007,7.1258007 0 0 0 0.18164,-0.13086 7.1258007,7.1258007 0 0 0 0.177735,-0.136719 7.1258007,7.1258007 0 0 0 0.173828,-0.142578 7.1258007,7.1258007 0 0 0 0.169922,-0.148437 7.1258007,7.1258007 0 0 0 0.164062,-0.152344 7.1258007,7.1258007 0 0 0 0.158203,-0.158203 7.1258007,7.1258007 0 0 0 0.154297,-0.164062 7.1258007,7.1258007 0 0 0 0.148438,-0.167969 7.1258007,7.1258007 0 0 0 0.144531,-0.171875 7.1258007,7.1258007 0 0 0 0.138672,-0.177735 7.1258007,7.1258007 0 0 0 0.130859,-0.18164 7.1258007,7.1258007 0 0 0 0.126953,-0.185547 7.1258007,7.1258007 0 0 0 0.121094,-0.1875 7.1258007,7.1258007 0 0 0 0.115234,-0.19336 C 87.16671,85.960673 87.148209,85.118893 87.8125,84.53125 a 3.9142082,3.9142082 0 0 1 0.140625,-0.08984 3.9142082,3.9142082 0 0 1 0.142578,-0.08398 3.9142082,3.9142082 0 0 1 0.146485,-0.07813 3.9142082,3.9142082 0 0 1 0.15039,-0.07227 3.9142082,3.9142082 0 0 1 0.152344,-0.06641 3.9142082,3.9142082 0 0 1 0.15625,-0.05859 3.9142082,3.9142082 0 0 1 0.158203,-0.05273 3.9142082,3.9142082 0 0 1 0.138672,-0.03906 27.787812,27.787812 0 0 0 0.427734,-0.115234 27.787812,27.787812 0 0 0 0.425781,-0.123047 27.787812,27.787812 0 0 0 0.425782,-0.128906 27.787812,27.787812 0 0 0 0.421875,-0.136719 27.787812,27.787812 0 0 0 0.417969,-0.142578 27.787812,27.787812 0 0 0 0.417968,-0.150391 27.787812,27.787812 0 0 0 0.414063,-0.154297 27.787812,27.787812 0 0 0 0.414062,-0.164062 27.787812,27.787812 0 0 0 0.408203,-0.167969 27.787812,27.787812 0 0 0 0.408204,-0.175781 27.787812,27.787812 0 0 0 0.404296,-0.183594 27.787812,27.787812 0 0 0 0.400391,-0.1875 27.787812,27.787812 0 0 0 0.398437,-0.195312 27.787812,27.787812 0 0 0 0.394532,-0.201172 27.787812,27.787812 0 0 0 0.392578,-0.207031 27.787812,27.787812 0 0 0 0.164062,-0.0918 9.9643682,9.9643682 0 0 0 0.232422,-0.126953 9.9643682,9.9643682 0 0 0 0.228516,-0.134766 9.9643682,9.9643682 0 0 0 0.226562,-0.140625 9.9643682,9.9643682 0 0 0 0.220704,-0.148438 9.9643682,9.9643682 0 0 0 0.216796,-0.152343 9.9643682,9.9643682 0 0 0 0.212891,-0.158203 9.9643682,9.9643682 0 0 0 0.208984,-0.164063 9.9643682,9.9643682 0 0 0 0.205079,-0.167969 9.9643682,9.9643682 0 0 0 0.199218,-0.175781 9.9643682,9.9643682 0 0 0 0.195313,-0.179687 9.9643682,9.9643682 0 0 0 0.189453,-0.185547 9.9643682,9.9643682 0 0 0 0.185547,-0.189453 9.9643682,9.9643682 0 0 0 0.162109,-0.175782 l 0.02539,-0.03125 c 0.475223,-0.508438 0.86218,-1.038302 1.162109,-1.582031 0.299929,-0.543729 0.512754,-1.101257 0.642578,-1.660156 0.259645,-1.117798 0.184555,-2.244979 -0.205078,-3.302735 -0.347475,-0.945337 -0.852818,-1.671595 -1.458984,-2.265624 -0.606166,-0.59403 -1.312692,-1.055595 -2.066406,-1.47461 C 95.833586,68.882756 95.571891,68.748682 95.349609,68.646484 94.899935,68.413982 94.439761,68.190737 93.982422,67.953125 91.633131,66.707579 89.541399,65.299009 87.71875,63.736328 85.896101,62.173647 84.342685,60.45632 83.070312,58.59375 a 21.221549,21.221549 0 0 1 -0.216796,-0.320312 21.221549,21.221549 0 0 1 -0.210938,-0.326172 21.221549,21.221549 0 0 1 -0.205078,-0.328125 21.221549,21.221549 0 0 1 -0.199219,-0.332032 21.221549,21.221549 0 0 1 -0.191406,-0.335937 21.221549,21.221549 0 0 1 -0.1875,-0.339844 21.221549,21.221549 0 0 1 -0.179687,-0.341797 21.221549,21.221549 0 0 1 -0.175782,-0.347656 21.221549,21.221549 0 0 1 -0.167968,-0.347656 21.221549,21.221549 0 0 1 -0.138672,-0.302735 c -0.217173,-0.620857 -0.206635,-0.972995 -0.05078,-1.294922 a 2.1078471,2.1078471 0 0 1 0.06836,-0.101562 2.1078471,2.1078471 0 0 1 0.07227,-0.09766 2.1078471,2.1078471 0 0 1 0.08008,-0.09375 2.1078471,2.1078471 0 0 1 0.08398,-0.08789 2.1078471,2.1078471 0 0 1 0.08789,-0.08398 2.1078471,2.1078471 0 0 1 0.09375,-0.07813 2.1078471,2.1078471 0 0 1 0.09961,-0.07227 2.1078471,2.1078471 0 0 1 0.01563,-0.0098 c 0.80737,-0.533988 1.640431,-1.076043 2.205078,-1.441406 1.006657,-0.65151 1.802858,-1.167843 2.316406,-1.533203 0.9645,-0.67451 1.784977,-1.37045 2.46875,-2.097656 0.683773,-0.727206 1.230774,-1.486124 1.652344,-2.287109 a 8.7303195,8.7303195 0 0 0 0.113281,-0.220704 8.7303195,8.7303195 0 0 0 0.107422,-0.224609 8.7303195,8.7303195 0 0 0 0.101563,-0.226563 8.7303195,8.7303195 0 0 0 0.09375,-0.230468 8.7303195,8.7303195 0 0 0 0.08789,-0.232422 8.7303195,8.7303195 0 0 0 0.08008,-0.234375 8.7303195,8.7303195 0 0 0 0.07422,-0.236328 8.7303195,8.7303195 0 0 0 0.06836,-0.240235 8.7303195,8.7303195 0 0 0 0.06055,-0.240234 8.7303195,8.7303195 0 0 0 0.05273,-0.242188 8.7303195,8.7303195 0 0 0 0.04687,-0.24414 8.7303195,8.7303195 0 0 0 0.04102,-0.246094 8.7303195,8.7303195 0 0 0 0.0332,-0.246094 8.7303195,8.7303195 0 0 0 0.02539,-0.248046 8.7303195,8.7303195 0 0 0 0.01953,-0.246094 8.7303195,8.7303195 0 0 0 0.01172,-0.248047 8.7303195,8.7303195 0 0 0 0.0039,-0.25 8.7303195,8.7303195 0 0 0 -0.002,-0.248047 8.7303195,8.7303195 0 0 0 -0.0098,-0.248047 A 8.7303195,8.7303195 0 0 0 91.38468,41.191364 8.7303195,8.7303195 0 0 0 91.35929,40.94527 8.7303195,8.7303195 0 0 0 91.32999,40.697224 8.7303195,8.7303195 0 0 0 91.29288,40.453083 8.7303195,8.7303195 0 0 0 91.24796,40.206989 8.7303195,8.7303195 0 0 0 91.19523,39.964802 8.7303195,8.7303195 0 0 0 91.13859,39.722614 8.7303195,8.7303195 0 0 0 91.07218,39.484333 8.7303195,8.7303195 0 0 0 91,39.246094 8.7303195,8.7303195 0 0 0 90.92187,39.009766 8.7303195,8.7303195 0 0 0 90.83593,38.777344 8.7303195,8.7303195 0 0 0 90.82226,38.742184 c -0.319371,-0.840585 -0.757421,-1.602961 -1.294922,-2.271485 -0.537501,-0.668524 -1.173318,-1.243771 -1.890625,-1.714844 -0.717307,-0.471072 -1.516212,-0.837706 -2.375,-1.085937 -0.858788,-0.248231 -1.77829,-0.378906 -2.740235,-0.378906 a 11.433474,11.433474 0 0 0 -0.283203,0.0039 11.433474,11.433474 0 0 0 -0.285156,0.0098 11.433474,11.433474 0 0 0 -0.283203,0.01758 11.433474,11.433474 0 0 0 -0.283203,0.02539 11.433474,11.433474 0 0 0 -0.283203,0.03125 11.433474,11.433474 0 0 0 -0.28125,0.03906 11.433474,11.433474 0 0 0 -0.28125,0.04492 11.433474,11.433474 0 0 0 -0.279297,0.05273 11.433474,11.433474 0 0 0 -0.154297,0.03125 c -0.212062,0.046 -0.423907,0.09475 -0.63086,0.148437 0.03577,-2.299469 -0.01631,-4.726344 -0.220703,-7.115234 -0.181402,-2.099545 -0.50014,-3.949104 -0.925781,-5.597656 -0.425641,-1.648552 -0.957931,-3.096056 -1.5625,-4.390625 -0.604569,-1.29457 -1.281815,-2.437013 -2,-3.474609 -0.718185,-1.037597 -1.47765,-1.970024 -2.24414,-2.847657 A 26.827145,26.827145 0 0 0 72.232422,9.9472656 26.827145,26.827145 0 0 0 71.933594,9.6289062 26.827145,26.827145 0 0 0 71.630859,9.3164062 26.827145,26.827145 0 0 0 71.322266,9.0078125 26.827145,26.827145 0 0 0 71.009766,8.7050781 26.827145,26.827145 0 0 0 70.691406,8.40625 26.827145,26.827145 0 0 0 70.369141,8.1152344 26.827145,26.827145 0 0 0 70.041016,7.828125 26.827145,26.827145 0 0 0 69.710938,7.5449219 26.827145,26.827145 0 0 0 69.373047,7.2695312 26.827145,26.827145 0 0 0 69.033203,6.9980469 26.827145,26.827145 0 0 0 68.6875,6.7324219 26.827145,26.827145 0 0 0 68.337891,6.4726562 26.827145,26.827145 0 0 0 67.984375,6.21875 26.827145,26.827145 0 0 0 67.626953,5.9707031 26.827145,26.827145 0 0 0 67.263672,5.7265625 26.827145,26.827145 0 0 0 66.898438,5.4902344 26.827145,26.827145 0 0 0 66.529297,5.2597656 26.827145,26.827145 0 0 0 66.15625,5.0351562 26.827145,26.827145 0 0 0 65.779297,4.8164062 26.827145,26.827145 0 0 0 65.679688,4.7597656 C 64.516539,4.0954731 63.314931,3.513807 62.076172,3.0136719 60.837412,2.5135367 59.561693,2.0964194 58.251953,1.7617188 56.942214,1.4270181 55.596792,1.1738483 54.220703,1.0058594 52.844614,0.83787047 51.437807,0.75390625 50,0.75390625 Z M 49.9902,6.3710938 c 1.400441,0 2.715911,0.096221 3.951172,0.2675781 1.235261,0.1713573 2.390065,0.4166883 3.462891,0.7167969 2.145652,0.6002171 3.968088,1.4158043 5.480469,2.2753906 1.51238,0.8595866 2.714169,1.7629086 3.615234,2.5410156 0.901065,0.778107 1.502747,1.431329 1.814453,1.787109 0.6496,0.742855 1.272064,1.50887 1.851563,2.347657 0.579498,0.838786 1.11586,1.749805 1.58789,2.779297 0.47203,1.029491 0.879836,2.177218 1.207032,3.492187 0.327195,1.314969 0.573755,2.796968 0.71875,4.492187 0.213339,2.464266 0.226377,5.016101 0.166015,7.289063 -0.06036,2.272962 -0.194383,4.267566 -0.28125,5.619141 -0.02939,0.44584 0.02344,0.751455 0.175781,0.945312 0.152341,0.193858 0.402968,0.275391 0.773438,0.275391 a 2.1870511,2.1870511 0 0 0 0.125,-0.0059 2.1870511,2.1870511 0 0 0 0.123047,-0.01172 2.1870511,2.1870511 0 0 0 0.123047,-0.01953 2.1870511,2.1870511 0 0 0 0.121093,-0.02734 2.1870511,2.1870511 0 0 0 0.01953,-0.0039 c 1.389902,-0.3347 3.792418,-1.574788 6.265625,-2.111328 a 5.6975746,5.6975746 0 0 1 0.195312,-0.03906 5.6975746,5.6975746 0 0 1 0.199219,-0.03516 5.6975746,5.6975746 0 0 1 0.197265,-0.02539 5.6975746,5.6975746 0 0 1 0.201172,-0.01953 5.6975746,5.6975746 0 0 1 0.199219,-0.01367 5.6975746,5.6975746 0 0 1 0.201172,-0.0039 5.6975746,5.6975746 0 0 1 0.03516,0 c 0.657904,0 1.295845,0.126101 1.833985,0.419922 0.538139,0.293822 0.976924,0.753674 1.232422,1.417969 0.18268,0.482888 0.257372,0.945147 0.232421,1.388672 -0.02495,0.443525 -0.150531,0.869656 -0.36914,1.285156 -0.437219,0.831001 -1.246983,1.617367 -2.375,2.404297 -1.361797,0.95045 -6.270652,3.985226 -7.376953,5.009766 -0.57359,0.52888 -0.823005,0.998243 -0.91211,1.464844 -0.0891,0.4666 -0.0176,0.931236 0.04883,1.451171 0.02747,0.217811 0.20261,1.103224 0.691407,2.427735 0.488797,1.32451 1.290987,3.08772 2.574218,5.05664 0.641616,0.984461 1.403959,2.021195 2.306641,3.080078 0.902682,1.058884 1.945005,2.139323 3.150391,3.214844 1.205385,1.075521 2.57332,2.145316 4.123047,3.179688 1.549726,1.034372 3.28109,2.033313 5.216796,2.96875 0.457339,0.228669 1.072418,0.575631 1.232422,1.054687 0.08,0.239528 0.04595,0.512918 -0.177734,0.820313 -0.223679,0.307394 -0.636147,0.64857 -1.316406,1.027344 -2.137229,1.180394 -3.916657,1.707434 -5.4375,2.117187 -1.520844,0.409753 -2.78365,0.702505 -3.888672,1.414063 -0.469476,0.302124 -0.752391,0.692138 -0.933594,1.121093 -0.181203,0.428955 -0.260504,0.897368 -0.324219,1.357422 -0.06371,0.460054 -0.111506,0.91122 -0.228515,1.306641 -0.11701,0.395421 -0.303444,0.733693 -0.644532,0.96875 -0.419014,0.28935 -1.043606,0.430162 -1.84375,0.509765 -0.800143,0.0796 -1.776365,0.09893 -2.90039,0.148438 -1.124026,0.0495 -2.394496,0.129077 -3.785156,0.328125 -1.390661,0.199048 -2.901906,0.516682 -4.501954,1.044922 -1.31964,0.43626 -2.518266,1.077139 -3.724609,1.792968 -1.206343,0.71583 -2.41944,1.507832 -3.763672,2.244141 -1.344231,0.736309 -2.819429,1.418316 -4.552734,1.916016 -1.733305,0.497699 -3.724093,0.810547 -6.097657,0.810547 -2.373563,0 -4.360653,-0.313447 -6.08789,-0.810547 -1.727237,-0.497101 -3.195396,-1.177594 -4.535156,-1.914063 -1.339761,-0.736469 -2.550585,-1.527988 -3.761719,-2.246094 -1.211134,-0.718105 -2.422314,-1.362678 -3.763672,-1.804687 -1.596853,-0.528239 -3.10428,-0.847827 -4.494141,-1.046875 -1.389861,-0.199048 -2.662445,-0.278622 -3.787109,-0.328125 -1.124664,-0.0495 -2.101083,-0.06883 -2.902344,-0.148437 -0.801261,-0.0796 -1.428003,-0.218463 -1.847656,-0.507813 -0.34045,-0.235057 -0.525488,-0.575282 -0.642578,-0.970703 -0.11709,-0.395421 -0.164481,-0.846587 -0.228516,-1.306641 -0.06403,-0.460053 -0.144888,-0.928467 -0.326172,-1.357422 -0.181283,-0.428955 -0.464756,-0.818969 -0.933593,-1.121093 -1.1063,-0.711558 -2.369783,-1.003954 -3.890625,-1.41211 C 11.285798,78.252001 9.5089969,77.728694 7.3730469,76.554688 6.6927869,76.179108 6.2784867,75.840475 6.0546875,75.535156 5.8308883,75.229838 5.79743,74.958315 5.8769531,74.720703 6.0359994,74.245479 6.6480575,73.903321 7.1015625,73.683594 9.03695,72.74656 10.768807,71.744554 12.318359,70.708984 c 1.549553,-1.035569 2.917722,-2.105321 4.123047,-3.18164 1.205326,-1.07632 2.247684,-2.157514 3.150391,-3.216797 0.902706,-1.059283 1.664945,-2.095618 2.306641,-3.080078 1.283391,-1.968921 2.087175,-3.731774 2.576171,-5.054688 0.488996,-1.322913 0.663942,-2.207258 0.691407,-2.421875 0.06643,-0.519936 0.136298,-0.984571 0.04687,-1.451172 -0.08942,-0.4666 -0.339795,-0.93401 -0.91211,-1.46289 -1.1063,-1.02198 -6.01321,-4.061269 -7.375,-5.011719 -1.12674,-0.78693 -1.938775,-1.573296 -2.376953,-2.404297 -0.219089,-0.4155 -0.34375,-0.841631 -0.36914,-1.285156 -0.02539,-0.443525 0.04974,-0.903831 0.232421,-1.386719 0.255495,-0.668125 0.693324,-1.127058 1.232422,-1.419922 0.539099,-0.292864 1.177961,-0.419922 1.832031,-0.419922 a 5.6975746,5.6975746 0 0 1 0.201172,0.0039 5.6975746,5.6975746 0 0 1 0.201172,0.01172 5.6975746,5.6975746 0 0 1 0.199219,0.01953 5.6975746,5.6975746 0 0 1 0.199219,0.02344 5.6975746,5.6975746 0 0 1 0.197265,0.0332 5.6975746,5.6975746 0 0 1 0.197266,0.03906 5.6975746,5.6975746 0 0 1 0.03516,0.0078 c 2.4732,0.53654 4.874369,1.774675 6.261719,2.109375 a 2.2074908,2.2074908 0 0 0 0.121094,0.0293 2.2074908,2.2074908 0 0 0 0.123047,0.01953 2.2074908,2.2074908 0 0 0 0.125,0.01367 2.2074908,2.2074908 0 0 0 0.125,0.0078 2.2074908,2.2074908 0 0 0 0.01758,0 c 0.37047,0 0.620102,-0.09368 0.771484,-0.292969 0.151383,-0.199286 0.203285,-0.503609 0.177735,-0.927734 -0.0792,-1.352855 -0.215068,-3.348452 -0.277344,-5.621094 -0.06228,-2.272643 -0.05123,-4.822844 0.162109,-7.28711 0.14627,-1.695219 0.393069,-3.177218 0.720703,-4.492187 0.327634,-1.314969 0.737114,-2.462696 1.208985,-3.492187 0.47187,-1.029492 1.006957,-1.940509 1.585937,-2.779297 0.57898,-0.838788 1.200647,-1.606752 1.84961,-2.34961 0.311704,-0.357055 0.912872,-1.011749 1.8125,-1.792969 C 34.391816,11.414058 35.5911,10.507595 37.101563,9.6444962 38.612027,8.7813975 40.433911,7.9620322 42.578126,7.35934 43.650234,7.0579939 44.802268,6.8107028 46.03711,6.6386369 47.271952,6.466571 48.589794,6.3710588 49.990235,6.3710588 Z" />
    </g>
  </g>
</svg>
