<?xml version="1.0" encoding="UTF-8" standalone="no"?>
<svg
   xmlns:dc="http://purl.org/dc/elements/1.1/"
   xmlns:cc="http://creativecommons.org/ns#"
   xmlns:rdf="http://www.w3.org/1999/02/22-rdf-syntax-ns#"
   xmlns:svg="http://www.w3.org/2000/svg"
   xmlns="http://www.w3.org/2000/svg"
   xmlns:xlink="http://www.w3.org/1999/xlink"
   xmlns:sodipodi="http://sodipodi.sourceforge.net/DTD/sodipodi-0.dtd"
   xmlns:inkscape="http://www.inkscape.org/namespaces/inkscape"
   width="100"
   height="100"
   viewBox="0 0 100 100"
   version="1.1"
   id="svg8"
   inkscape:version="1.0.2 (e86c870879, 2021-01-15, custom)"
   sodipodi:docname="soundcloud.svg">
  <defs
     id="defs2">
    <linearGradient
       gradientTransform="matrix(1.0754423,0,0,1.0754423,0,28.285211)"
       x1="46.492699"
       y1="0"
       x2="46.492699"
       y2="53.006302"
       id="SVGID_1_"
       gradientUnits="userSpaceOnUse">
      <stop
         id="stop2461"
         style="stop-color:#f79810;stop-opacity:1"
         offset="0" />
      <stop
         id="stop2463"
         style="stop-color:#f8310e;stop-opacity:1"
         offset="1" />
    </linearGradient>
    <linearGradient
       inkscape:collect="always"
       xlink:href="#SVGID_1_"
       id="linearGradient842"
       x1="-239.2832"
       y1="-72.357033"
       x2="-239.2832"
       y2="81.746353"
       gradientUnits="userSpaceOnUse"
       gradientTransform="translate(290.64711,59.633522)" />
  </defs>
  <sodipodi:namedview
     id="base"
     pagecolor="#ffffff"
     bordercolor="#666666"
     borderopacity="1.0"
     inkscape:pageopacity="0.0"
     inkscape:pageshadow="2"
     inkscape:zoom="1.4"
     inkscape:cx="-10.950061"
     inkscape:cy="60.203051"
     inkscape:document-units="px"
     inkscape:current-layer="layer1"
     inkscape:document-rotation="0"
     showgrid="false"
     units="px"
     inkscape:window-width="1920"
     inkscape:window-height="1019"
     inkscape:window-x="0"
     inkscape:window-y="33"
     inkscape:window-maximized="1" />
  <metadata
     id="metadata5">
    <rdf:RDF>
      <cc:Work
         rdf:about="">
        <dc:format>image/svg+xml</dc:format>
        <dc:type
           rdf:resource="http://purl.org/dc/dcmitype/StillImage" />
        <dc:title />
      </cc:Work>
    </rdf:RDF>
  </metadata>
  <g
     inkscape:label="Calque 1"
     inkscape:groupmode="layer"
     id="layer1">
    <rect
       style="opacity:1;fill:url(#linearGradient842);fill-opacity:1;stroke-width:8"
       id="rect834"
       width="128.17484"
       height="128.17484"
       x="-14.087418"
       y="-14.087418" />
    <path
       inkscape:connector-curvature="0"
       d="m 10.905952,53.40743 c -0.166912,0 -0.2994,0.129055 -0.320912,0.313176 L 10,58.164326 10.58504,62.53148 c 0.02152,0.184117 0.154,0.312311 0.320912,0.312311 0.161744,0 0.293384,-0.127331 0.319192,-0.310587 v 0 -0.0013 0.0013 l 0.693448,-4.368879 -0.693448,-4.444585 c -0.02496,-0.183256 -0.158304,-0.312311 -0.319192,-0.31231 z m 3.289992,-2.427913 c -0.02752,-0.191004 -0.164328,-0.322634 -0.332952,-0.322634 -0.169496,0 -0.309728,0.135936 -0.33296,0.322634 0,0.0018 -0.78636,7.184809 -0.78636,7.184809 l 0.78636,7.02565 c 0.0224,0.18842 0.162608,0.324356 0.33296,0.324356 0.167768,0 0.30456,-0.132495 0.332096,-0.322632 l 0.894768,-7.027375 z M 26.58848,44.352208 c -0.322632,0 -0.589344,0.264133 -0.604824,0.59967 l -0.626344,13.218472 0.626344,8.542456 c 0.01632,0.33382 0.282192,0.597087 0.604824,0.597087 0.320912,0 0.58676,-0.264133 0.605688,-0.598811 v 0.0024 L 27.90224,58.170167 27.194168,44.951688 C 27.175208,44.616152 26.909392,44.35202 26.58848,44.35202 Z M 20.174544,48.9465 c -0.247784,0 -0.449968,0.197877 -0.469752,0.462009 l -0.705488,8.758399 0.705488,8.473628 c 0.01896,0.262408 0.221968,0.460286 0.469752,0.460286 0.2452,0 0.447384,-0.197878 0.468896,-0.460286 L 21.445288,58.166908 20.64344,49.406785 C 20.62192,49.144377 20.419744,48.9465 20.174544,48.9465 Z M 33.10652,67.309034 c 0.400064,0 0.72528,-0.322633 0.741624,-0.73561 L 34.46244,58.174655 33.849008,40.576116 c -0.01632,-0.412972 -0.34156,-0.735605 -0.741624,-0.735605 -0.403504,0 -0.729584,0.323497 -0.742488,0.736464 0,6.05e-4 -0.5446,17.596821 -0.5446,17.596821 l 0.5446,8.40221 c 0.01288,0.409531 0.338984,0.733028 0.741624,0.733028 z m 13.344088,0.03955 c 0.550624,0 1.004896,-0.453405 1.015216,-1.010918 v 0.0061 -0.0061 L 47.89428,58.179794 47.465824,37.854801 c -0.0095,-0.556655 -0.464592,-1.010919 -1.015216,-1.010919 -0.551488,0 -1.006616,0.453406 -1.015216,1.011778 l -0.382856,20.317253 c 0,0.01288 0.382856,8.169923 0.382856,8.169923 0.0087,0.552348 0.464592,1.005753 1.015216,1.005753 z m -6.7228,-0.03181 c 0.479216,0 0.865512,-0.384578 0.878416,-0.874981 v 0.0061 L 41.1276,58.17641 40.605368,40.450541 c -0.01288,-0.490401 -0.399208,-0.874123 -0.878424,-0.874123 -0.482656,0 -0.86896,0.383722 -0.87928,0.874123 l -0.463728,17.726729 0.464584,8.269719 c 0.01029,0.485243 0.396624,0.869818 0.879288,0.869818 z M 23.36904,67.239345 c 0.284776,0 0.515352,-0.227993 0.536856,-0.528256 l 0.755392,-8.544175 -0.755392,-8.127762 c -0.02064,-0.300258 -0.251224,-0.526534 -0.536856,-0.526534 -0.28908,0 -0.519656,0.227994 -0.53772,0.529975 l -0.665056,8.124321 0.665056,8.543316 c 0.01896,0.301123 0.24864,0.529116 0.53772,0.529115 z M 17.005864,66.77132 c 0.2082,0 0.376832,-0.164335 0.40092,-0.391469 l 0.848312,-8.214653 -0.847448,-8.52439 c -0.02496,-0.227993 -0.193584,-0.392321 -0.401784,-0.392321 -0.210792,0 -0.379416,0.165193 -0.400928,0.392321 0,0.0011 -0.746784,8.52439 -0.746784,8.52439 l 0.746784,8.212936 c 0.02064,0.227993 0.18928,0.393186 0.400928,0.393186 z m 26.07044,-26.615911 c -0.52052,0 -0.937792,0.413831 -0.948112,0.943806 l -0.423296,17.078887 0.423296,8.2181 c 0.01029,0.523094 0.426736,0.936924 0.948112,0.936924 0.519648,0 0.934344,-0.412972 0.946392,-0.942945 v 0.0069 L 44.497608,58.178916 44.022696,41.097453 C 44.010616,40.569196 43.595952,40.15537 43.076304,40.15537 Z M 29.835456,67.326245 c 0.359632,0 0.656448,-0.293381 0.673656,-0.667636 l 0.660752,-8.485672 -0.660752,-16.241762 c -0.01808,-0.37511 -0.314024,-0.667633 -0.673656,-0.667633 -0.363072,0 -0.659032,0.293382 -0.67452,0.667633 0,6.06e-4 -0.58504,16.241762 -0.58504,16.241762 l 0.585904,8.489116 c 0.01464,0.370811 0.310584,0.664192 0.673656,0.664192 z m 7.378392,-0.800989 v -0.0042 l 0.56784,-8.345503 -0.56784,-18.191319 c -0.01376,-0.451688 -0.369952,-0.806152 -0.809592,-0.806152 -0.442224,0 -0.798408,0.353606 -0.810448,0.806152 l -0.504168,18.19046 0.505024,8.349739 c 0.01208,0.447379 0.368232,0.800987 0.809592,0.800987 0.440504,0 0.794968,-0.353607 0.809592,-0.80357 z m 42.947144,-18.83573 c -1.348176,0 -2.6344,0.272736 -3.806208,0.763995 -0.78292,-8.868524 -8.219816,-15.825347 -17.291384,-15.825347 -2.219712,0 -4.383512,0.437058 -6.294352,1.176105 -0.742488,0.287358 -0.940368,0.583317 -0.947248,1.157176 v 31.23084 c 0.008,0.60225 0.474912,1.103833 1.062536,1.163201 0.02496,0.0024 27.100288,0.01633 27.2758,0.01633 C 85.594128,67.371824 90,62.965952 90,57.531095 90,52.096242 85.594992,47.689508 80.160992,47.689508 Z M 49.810288,34.933924 c -0.591056,0 -1.076296,0.485236 -1.084904,1.081464 l -0.443944,22.167014 0.444808,8.045167 c 0.008,0.587622 0.492984,1.072001 1.08404,1.072001 0.589344,0 1.074584,-0.484379 1.083192,-1.080606 v 0.0095 l 0.482656,-8.04604 -0.482656,-22.168738 c -0.0087,-0.594504 -0.493848,-1.079742 -1.083192,-1.079742 z"
       id="path2465"
       style="fill:#ffffff;fill-opacity:1;stroke-width:0.860352"
       sodipodi:nodetypes="scccsccccccscscccscccccccsccccccscccscccsscccscccsscccccscccscccccscccccscccscccsscccscccsccccsccccccscccscccsccccscccsccscsccccsssccccscccccc" />
  </g>
</svg>
