<?xml version="1.0" encoding="UTF-8" standalone="no"?>
<svg
   xmlns:dc="http://purl.org/dc/elements/1.1/"
   xmlns:cc="http://creativecommons.org/ns#"
   xmlns:rdf="http://www.w3.org/1999/02/22-rdf-syntax-ns#"
   xmlns:svg="http://www.w3.org/2000/svg"
   xmlns="http://www.w3.org/2000/svg"
   xmlns:xlink="http://www.w3.org/1999/xlink"
   xmlns:sodipodi="http://sodipodi.sourceforge.net/DTD/sodipodi-0.dtd"
   xmlns:inkscape="http://www.inkscape.org/namespaces/inkscape"
   width="100"
   height="100"
   viewBox="0 0 100 100"
   version="1.1"
   id="svg8"
   inkscape:version="1.0.2 (e86c870879, 2021-01-15, custom)"
   sodipodi:docname="telegram.svg">
  <defs
     id="defs2">
    <linearGradient
       x1="500"
       y1="0"
       x2="500"
       y2="992.58339"
       id="linearGradient-1"
       gradientUnits="userSpaceOnUse">
      <stop
         stop-color="#2AABEE"
         offset="0%"
         id="stop6" />
      <stop
         stop-color="#229ED9"
         offset="100%"
         id="stop8" />
    </linearGradient>
    <linearGradient
       inkscape:collect="always"
       xlink:href="#linearGradient-1"
       id="linearGradient844"
       x1="-238.14168"
       y1="-78.066208"
       x2="-238.14168"
       y2="19.19591"
       gradientUnits="userSpaceOnUse"
       gradientTransform="translate(289.80365,79.728172)" />
  </defs>
  <sodipodi:namedview
     id="base"
     pagecolor="#ffffff"
     bordercolor="#666666"
     borderopacity="1.0"
     inkscape:pageopacity="0.0"
     inkscape:pageshadow="2"
     inkscape:zoom="1.4"
     inkscape:cx="-10.950061"
     inkscape:cy="60.203051"
     inkscape:document-units="px"
     inkscape:current-layer="layer1"
     inkscape:document-rotation="0"
     showgrid="false"
     units="px"
     inkscape:window-width="1920"
     inkscape:window-height="1019"
     inkscape:window-x="0"
     inkscape:window-y="33"
     inkscape:window-maximized="1" />
  <metadata
     id="metadata5">
    <rdf:RDF>
      <cc:Work
         rdf:about="">
        <dc:format>image/svg+xml</dc:format>
        <dc:type
           rdf:resource="http://purl.org/dc/dcmitype/StillImage" />
        <dc:title />
      </cc:Work>
    </rdf:RDF>
  </metadata>
  <g
     inkscape:label="Calque 1"
     inkscape:groupmode="layer"
     id="layer1">
    <rect
       style="opacity:1;fill:url(#linearGradient844);fill-opacity:1;stroke-width:10.3204"
       id="rect836"
       width="100"
       height="100"
       x="0"
       y="0" />
    <path
       d="m 24.124677,46.543877 c 16.106101,-7.01717 26.846013,-11.643318 32.219759,-13.878444 15.343129,-6.381738 18.531306,-7.490315 20.609306,-7.526921 0.457038,-0.0081 1.478939,0.105216 2.140895,0.642341 0.558928,0.453536 0.712718,1.066199 0.786309,1.496201 0.07359,0.430002 0.165227,1.409558 0.09238,2.174955 -0.831447,8.736113 -4.429116,29.936356 -6.259404,39.720953 -0.774464,4.140229 -2.299414,5.528427 -3.775735,5.664281 C 66.7298,75.132484 64.293491,72.716914 61.18601,70.67992 56.323413,67.492426 53.576352,65.5082 48.856362,62.397795 c -5.454774,-3.594612 -1.918674,-5.570273 1.189989,-8.799056 0.813547,-0.844988 14.949792,-13.702994 15.223394,-14.869416 0.03425,-0.145882 0.06597,-0.689655 -0.257072,-0.976788 -0.323039,-0.287132 -0.799834,-0.188944 -1.14389,-0.110854 -0.487701,0.11069 -8.255768,5.245091 -23.304189,15.403205 -2.20494,1.51408 -4.202111,2.251792 -5.991503,2.213134 -1.972653,-0.04262 -5.767261,-1.115373 -8.588167,-2.032337 -3.459945,-1.124692 -6.209846,-1.719327 -5.970387,-3.629403 0.124718,-0.994886 1.494762,-2.012354 4.110144,-3.052403 z"
       id="Path-3"
       fill="#ffffff"
       style="stroke-width:0.110497" />
  </g>
</svg>
