<?xml version="1.0" encoding="UTF-8" standalone="no"?>
<svg
   xmlns:dc="http://purl.org/dc/elements/1.1/"
   xmlns:cc="http://creativecommons.org/ns#"
   xmlns:rdf="http://www.w3.org/1999/02/22-rdf-syntax-ns#"
   xmlns:svg="http://www.w3.org/2000/svg"
   xmlns="http://www.w3.org/2000/svg"
   xmlns:sodipodi="http://sodipodi.sourceforge.net/DTD/sodipodi-0.dtd"
   xmlns:inkscape="http://www.inkscape.org/namespaces/inkscape"
   width="100"
   height="100"
   viewBox="0 0 100 100"
   version="1.1"
   id="svg8"
   inkscape:version="1.0.2 (e86c870879, 2021-01-15, custom)"
   sodipodi:docname="vk.svg">
  <defs
     id="defs2" />
  <sodipodi:namedview
     id="base"
     pagecolor="#ffffff"
     bordercolor="#666666"
     borderopacity="1.0"
     inkscape:pageopacity="0.0"
     inkscape:pageshadow="2"
     inkscape:zoom="2.8"
     inkscape:cx="20.857117"
     inkscape:cy="55.102273"
     inkscape:document-units="px"
     inkscape:current-layer="layer1"
     inkscape:document-rotation="0"
     showgrid="false"
     units="px"
     inkscape:window-width="1920"
     inkscape:window-height="1019"
     inkscape:window-x="0"
     inkscape:window-y="33"
     inkscape:window-maximized="1" />
  <metadata
     id="metadata5">
    <rdf:RDF>
      <cc:Work
         rdf:about="">
        <dc:format>image/svg+xml</dc:format>
        <dc:type
           rdf:resource="http://purl.org/dc/dcmitype/StillImage" />
        <dc:title />
      </cc:Work>
    </rdf:RDF>
  </metadata>
  <g
     inkscape:label="Calque 1"
     inkscape:groupmode="layer"
     id="layer1">
    <rect
       style="opacity:1;fill:#2787f5;fill-opacity:1;stroke-width:13.3393"
       id="rect833"
       width="100"
       height="100"
       x="0"
       y="0" />
    <path
       clip-rule="evenodd"
       d="M 25.283652,29.218763 H 17.62566 c -2.18802,0 -2.62566,1.029874 -2.62566,2.165186 0,2.028031 2.59626,12.08593 12.088559,25.388328 6.32822,9.084463 15.244027,14.00896 23.357235,14.00896 4.867839,0 5.470056,-1.093748 5.470056,-2.977623 v -6.866121 c 0,-2.187498 0.461128,-2.624123 2.002443,-2.624123 1.135963,0 3.083061,0.567875 7.626492,4.947903 5.192467,5.191153 6.048437,7.519964 8.968963,7.519964 h 7.657995 c 2.188155,0 3.282123,-1.093748 2.651029,-3.252154 -0.690593,-2.151187 -3.169684,-5.272528 -6.459245,-8.972245 -1.784999,-2.108967 -4.462279,-4.380027 -5.273625,-5.515777 -1.135742,-1.459937 -0.811345,-2.108968 0,-3.406591 0,0 9.330122,-13.140304 10.303778,-17.601271 0.486718,-1.622468 0,-2.814436 -2.315905,-2.814436 H 73.41978 c -1.947097,0 -2.844847,1.029874 -3.331784,2.165186 0,0 -3.894185,9.490245 -9.41105,15.654835 -1.784999,1.784343 -2.596344,2.352217 -3.569998,2.352217 -0.486716,0 -1.191318,-0.567874 -1.191318,-2.189905 V 32.033199 c 0,-1.946874 -0.565026,-2.814436 -2.187937,-2.814436 H 41.693609 c -1.216687,0 -1.948621,0.903437 -1.948621,1.759843 0,1.845374 2.758433,2.27106 3.042815,7.462214 v 11.274806 c 0,2.471873 -0.446691,2.920091 -1.420125,2.920091 -2.596123,0 -8.911218,-9.532681 -12.65665,-20.440424 -0.733907,-2.120124 -1.470219,-2.97653 -3.427376,-2.97653 z"
       fill="#ffffff"
       fill-rule="evenodd"
       id="path4"
       style="stroke-width:2.18749" />
  </g>
</svg>
