<?xml version="1.0" encoding="UTF-8" standalone="no"?>
<svg
   xmlns:dc="http://purl.org/dc/elements/1.1/"
   xmlns:cc="http://creativecommons.org/ns#"
   xmlns:rdf="http://www.w3.org/1999/02/22-rdf-syntax-ns#"
   xmlns:svg="http://www.w3.org/2000/svg"
   xmlns="http://www.w3.org/2000/svg"
   xmlns:xlink="http://www.w3.org/1999/xlink"
   xmlns:sodipodi="http://sodipodi.sourceforge.net/DTD/sodipodi-0.dtd"
   xmlns:inkscape="http://www.inkscape.org/namespaces/inkscape"
   width="100"
   height="100"
   viewBox="0 0 100 100"
   version="1.1"
   id="svg8"
   inkscape:version="1.0.2 (e86c870879, 2021-01-15, custom)"
   sodipodi:docname="whatsapp.svg">
  <defs
     id="defs2">
    <clipPath
       clipPathUnits="userSpaceOnUse"
       id="clipPath50">
      <path
         d="M 0,1066.861 H 1280.244 V 0 H 0 Z"
         id="path48" />
    </clipPath>
    <linearGradient
       x1="0"
       y1="0"
       x2="1"
       y2="0"
       gradientUnits="userSpaceOnUse"
       gradientTransform="matrix(0,584.04474,584.04474,0,642.00024,241.83894)"
       spreadMethod="pad"
       id="linearGradient40">
      <stop
         style="stop-opacity:1;stop-color:#25cf43"
         offset="0"
         id="stop36" />
      <stop
         style="stop-opacity:1;stop-color:#61fd7d"
         offset="1"
         id="stop38" />
    </linearGradient>
    <linearGradient
       inkscape:collect="always"
       xlink:href="#linearGradient40"
       id="linearGradient852"
       x1="79.301178"
       y1="-398.5538"
       x2="79.301178"
       y2="-976.64203"
       gradientUnits="userSpaceOnUse"
       gradientTransform="translate(612.38371,154.02416)" />
    <clipPath
       clipPathUnits="userSpaceOnUse"
       id="clipPath50-3">
      <path
         d="M 0,1066.861 H 1280.244 V 0 H 0 Z"
         id="path48-6" />
    </clipPath>
  </defs>
  <sodipodi:namedview
     id="base"
     pagecolor="#ffffff"
     bordercolor="#666666"
     borderopacity="1.0"
     inkscape:pageopacity="0.0"
     inkscape:pageshadow="2"
     inkscape:zoom="3.959798"
     inkscape:cx="41.985558"
     inkscape:cy="42.654247"
     inkscape:document-units="px"
     inkscape:current-layer="layer1"
     inkscape:document-rotation="0"
     showgrid="false"
     units="px"
     inkscape:window-width="1920"
     inkscape:window-height="1019"
     inkscape:window-x="0"
     inkscape:window-y="33"
     inkscape:window-maximized="1" />
  <metadata
     id="metadata5">
    <rdf:RDF>
      <cc:Work
         rdf:about="">
        <dc:format>image/svg+xml</dc:format>
        <dc:type
           rdf:resource="http://purl.org/dc/dcmitype/StillImage" />
        <dc:title />
      </cc:Work>
    </rdf:RDF>
  </metadata>
  <g
     inkscape:label="Calque 1"
     inkscape:groupmode="layer"
     id="layer1">
    <g
       id="g24"
       transform="matrix(0.17121968,0,0,-0.17121968,-59.92312,141.40751)">
      <g
         id="g26">
        <g
           id="g32">
          <g
             id="g34">
            <rect
               style="opacity:1;fill:url(#linearGradient852);fill-opacity:1;stroke-width:90.0798"
               id="rect844"
               width="584.04498"
               height="584.04498"
               x="349.978"
               y="-825.88348"
               transform="scale(1,-1)" />
          </g>
        </g>
      </g>
    </g>
    <g
       id="g44"
       transform="matrix(0.16666548,0,0,-0.16666548,-57.908183,139.51758)">
      <g
         id="g46"
         clip-path="url(#clipPath50-3)">
        <g
           id="g52"
           transform="translate(743.2432,495.4208)">
          <path
             d="m 0,0 c -5.202,2.603 -30.777,15.184 -35.546,16.919 -4.768,1.735 -8.235,2.603 -11.703,-2.603 -3.468,-5.206 -13.437,-16.919 -16.472,-20.39 -3.034,-3.47 -6.068,-3.905 -11.27,-1.301 -5.202,2.602 -21.963,8.094 -41.832,25.811 -15.464,13.788 -25.904,30.819 -28.939,36.025 -3.034,5.206 -0.323,8.02 2.282,10.613 2.339,2.329 5.201,6.073 7.802,9.11 2.601,3.037 3.468,5.206 5.202,8.676 1.734,3.471 0.867,6.508 -0.434,9.111 -1.3,2.603 -11.703,28.199 -16.038,38.611 -4.222,10.14 -8.511,8.768 -11.704,8.927 -3.031,0.151 -6.502,0.183 -9.97,0.183 -3.468,0 -9.103,-1.302 -13.872,-6.507 -4.768,-5.206 -18.206,-17.788 -18.206,-43.383 0,-25.596 18.64,-50.324 21.241,-53.795 2.601,-3.471 36.681,-55.997 88.863,-78.522 12.411,-5.358 22.101,-8.557 29.655,-10.955 12.462,-3.957 23.802,-3.399 32.765,-2.06 9.994,1.493 30.777,12.581 35.112,24.728 C 11.27,-18.655 11.27,-8.243 9.97,-6.074 8.67,-3.905 5.202,-2.603 0,0 m -94.915,-129.554 h -0.07 c -31.05,0.012 -61.504,8.35 -88.071,24.111 l -6.319,3.75 -65.491,-17.175 17.481,63.833 -4.115,6.544 c -17.321,27.542 -26.469,59.375 -26.456,92.06 0.038,95.376 77.663,172.971 173.11,172.971 46.218,-0.018 89.664,-18.035 122.334,-50.731 C 60.158,133.112 78.14,89.65 78.122,43.429 78.083,-51.954 0.459,-129.554 -94.915,-129.554 M 52.353,190.654 c -39.306,39.339 -91.578,61.014 -147.27,61.036 -114.75,0 -208.143,-93.357 -208.189,-208.108 -0.015,-36.681 9.571,-72.487 27.789,-104.047 l -29.535,-107.848 110.364,28.94 c 30.408,-16.58 64.644,-25.317 99.488,-25.332 h 0.085 0.001 c 114.739,0 208.14,93.369 208.187,208.121 0.021,55.61 -21.613,107.9 -60.92,147.238"
             style="fill:#ffffff;fill-opacity:1;fill-rule:evenodd;stroke:none"
             id="path54" />
        </g>
      </g>
    </g>
  </g>
</svg>
