<svg xmlns="http://www.w3.org/2000/svg" width="100" height="100" viewBox="0 0 100 100"><path fill="#232323" d="M0 0h100v100H0z"/><path fill="#fff" d="M59.157 67.72c-2.366 2.41-5.33 3.615-8.894 3.615-3.505 0-6.412-1.175-8.72-3.526-2.307-2.351-3.46-5.378-3.46-9.081 0-3.526 1.182-6.45 3.548-8.772s5.273-3.482 8.72-3.482c2.336 0 4.454.543 6.353 1.63 1.899 1.088 3.374 2.572 4.425 4.453 1.052 1.88 1.578 3.937 1.578 6.171 0 3.585-1.184 6.583-3.55 8.992zm2.76-49.546v20.453c-2.044-2.057-4.22-3.54-6.528-4.452-2.307-.91-4.892-1.366-7.755-1.366-4.615 0-8.763 1.146-12.444 3.438-3.68 2.292-6.543 5.422-8.587 9.389-2.045 3.967-3.068 8.36-3.068 13.18 0 4.937 1.008 9.39 3.024 13.356 2.015 3.968 4.878 7.097 8.588 9.39 3.71 2.292 7.96 3.438 12.75 3.438 6.952 0 11.8-2.292 14.547-6.877h.175v6.27h13.846V15z"/></svg>