<svg xmlns="http://www.w3.org/2000/svg" width="100" height="100" viewBox="0 0 100 100"><path fill="#222" d="M0 0h100v100H0z"/><path d="M59.8 79.87a20876.72 20876.72 0 01-7.01-9.791c-1.872-2.618-3.396-4.662-3.476-4.663-.083 0-3.03 3.96-6.97 9.37-3.755 5.154-6.859 9.37-6.897 9.37-.107 0-13.537-9.46-13.572-9.559-.017-.048 3.02-4.505 6.747-9.904 3.728-5.4 6.778-9.903 6.778-10.007 0-.167-1.208-.591-10.683-3.75a4832.41 4832.41 0 01-10.81-3.612c-.099-.038.46-1.91 2.38-7.964 1.38-4.354 2.54-7.95 2.577-7.994.038-.044 5.145 1.59 11.348 3.631 6.204 2.04 11.33 3.71 11.394 3.71.064 0 .136-.095.16-.21.024-.117.078-5.398.119-11.738.04-6.34.109-11.579.15-11.643.06-.093 1.803-.117 8.2-.116 4.468 0 8.17.032 8.227.07.072.048.195 3.533.4 11.361.337 12.854.344 13.026.55 13.026.079 0 4.995-1.646 10.924-3.657 5.93-2.011 10.81-3.624 10.845-3.584.12.135 4.983 15.967 4.923 16.027-.033.033-4.981 1.727-10.997 3.766-8.275 2.804-10.944 3.745-10.966 3.864-.017.087 2.829 4.34 6.447 9.635 3.563 5.213 6.464 9.517 6.448 9.565C77 75.182 63.67 85 63.56 85c-.046 0-1.737-2.309-3.759-5.13z" fill="#fff"/></svg>