<svg xmlns="http://www.w3.org/2000/svg" width="100" height="100" viewBox="0 0 100 100"><path fill="#1877f2" d="M0 0h100v100H0z"/><path d="M100 50c0-27.614-22.386-50-50-50S0 22.386 0 50c0 24.956 18.284 45.642 42.188 49.393v-34.94H29.492V50h12.696V38.984c0-12.53 7.464-19.453 18.885-19.453 5.47 0 11.193.977 11.193.977v12.305H65.96c-6.211 0-8.149 3.854-8.149 7.808V50H71.68l-2.217 14.453h-11.65v34.94C81.715 95.642 100 74.956 100 50" fill="#1877f2"/><path d="M69.463 64.453L71.68 50H57.812v-9.38c0-3.953 1.938-7.807 8.149-7.807h6.305V20.508s-5.722-.977-11.193-.977c-11.42 0-18.885 6.922-18.885 19.453V50H29.492v14.453h12.696v34.94c2.545.399 5.154.607 7.812.607 2.658 0 5.267-.208 7.812-.607v-34.94h11.65" fill="#fff"/></svg>