<svg xmlns="http://www.w3.org/2000/svg" width="100" height="100" viewBox="0 0 100 100"><defs><clipPath clipPathUnits="userSpaceOnUse" id="a"><path d="M0 141.73h141.73V0H0z"/></clipPath></defs><path d="M0 100h100V0H0z" fill="#303030"/><g clip-path="url(#a)" transform="matrix(1.01466 0 0 -1.01466 -21.904 121.904)" fill="#fff"><path d="M92.93 79.534a2.46 2.46 0 00-2.46-2.464H79.913v3.174h8.9c.526 0 .948.428.948.949V91.68a.946.946 0 01-.948.948H84.03a.945.945 0 01-.94-.947v-4.773c0-.524.423-.95.94-.95h3.82v-3.172h-5.474a2.46 2.46 0 00-2.463 2.46v8.095a2.461 2.461 0 002.463 2.462h8.094a2.463 2.463 0 002.46-2.462zm-.008-18.414h-3.128v9.699h-2.198a.93.93 0 01-.931-.935V61.12h-3.128v9.699h-2.199a.93.93 0 01-.931-.935v-8.771h-3.128v10.414a2.422 2.422 0 002.426 2.417h13.217zM74.914 82.787h-8.098c-1.36 0-2.46 1.1-2.46 2.46v8.095a2.46 2.46 0 002.46 2.462h8.098a2.463 2.463 0 002.46-2.462v-8.094a2.461 2.461 0 00-2.46-2.461m-.14-19.24a2.425 2.425 0 00-2.424-2.425h-7.977a2.425 2.425 0 00-2.427 2.426v7.98a2.423 2.423 0 002.427 2.418h7.977a2.424 2.424 0 002.424-2.418zM61.817 79.535a2.46 2.46 0 00-2.462-2.464H48.799v3.174h8.9c.524 0 .944.428.944.949V91.68c0 .524-.42.948-.944.948h-4.784a.944.944 0 01-.943-.947v-4.773c0-.524.42-.95.943-.95h3.822v-3.172H51.26a2.458 2.458 0 00-2.461 2.46v8.095a2.46 2.46 0 002.46 2.462h8.096a2.462 2.462 0 002.462-2.462zm-2.375-8.716h-6.576a.93.93 0 01-.93-.933s.002 0 .002-.007h-.002v-4.693h.002l-.002-.004c0-.514.414-.936.93-.936h6.576v-3.132h-8.207v.008a2.427 2.427 0 00-2.43 2.425v7.98a2.425 2.425 0 002.43 2.419h8.207zm36.105 34.541H46.183a3.587 3.587 0 01-3.587-3.585v-46.63a3.586 3.586 0 013.587-3.587h49.364a3.586 3.586 0 013.588 3.586v46.63a3.587 3.587 0 01-3.588 3.587" fill-rule="evenodd"/><path d="M73.257 92.627a.936.936 0 00.936-.946v-4.774a.938.938 0 00-.936-.949h-4.781a.946.946 0 00-.946.95v4.772c0 .523.421.947.946.947h4.781m-2.539-21.808a.93.93 0 00.928-.935v-4.699a.933.933 0 00-.928-.937c-.005 0-.006.005-.01.005v-.005h-4.693v.005s-.005-.005-.01-.005a.934.934 0 00-.93.937v4.699c0 .516.414.935.93.935h4.713" fill-rule="evenodd"/><path d="M48.42 36.59a5.055 5.055 0 00-1.53-.22c-.658 0-1.25.102-1.777.306a3.918 3.918 0 00-1.353.854 3.732 3.732 0 00-.863 1.318 4.604 4.604 0 00-.302 1.692c0 .623.098 1.19.293 1.703.196.513.474.952.835 1.319s.8.65 1.315.85a4.723 4.723 0 001.732.303c.323 0 .623-.024.9-.071.277-.047.534-.115.77-.205a3.698 3.698 0 001.218-.754l-.314-.502a.324.324 0 00-.19-.145c-.078-.021-.165-.003-.26.054a8.446 8.446 0 00-.313.194 2.805 2.805 0 01-.43.219 3.532 3.532 0 01-1.415.253c-.46 0-.875-.074-1.248-.224a2.654 2.654 0 01-.95-.644 2.855 2.855 0 01-.605-1.014 3.993 3.993 0 01-.21-1.336c0-.512.073-.97.22-1.375.145-.404.354-.75.626-1.031a2.68 2.68 0 01.988-.647 3.629 3.629 0 011.304-.222c.19 0 .368.012.533.034.165.023.323.055.475.095.152.04.298.089.44.147.14.06.282.127.426.203v1.8h-1.27a.244.244 0 00-.174.062.208.208 0 00-.066.155v.626h2.507v-3.133a4.574 4.574 0 00-1.313-.663m9.863 3.949c0 .501-.068.951-.205 1.35-.137.399-.33.736-.581 1.011a2.525 2.525 0 01-.912.635 3.078 3.078 0 01-1.196.222c-.436 0-.833-.073-1.19-.222a2.562 2.562 0 01-.915-.635 2.84 2.84 0 01-.584-1.011 4.17 4.17 0 01-.204-1.35c0-.501.069-.95.205-1.347.136-.397.331-.733.583-1.008a2.53 2.53 0 01.915-.632 3.12 3.12 0 011.19-.22c.44 0 .84.074 1.197.22.357.146.66.357.91.632.252.275.445.611.582 1.008.137.397.205.846.205 1.347m1.133 0c0-.611-.096-1.172-.29-1.683a3.863 3.863 0 00-.82-1.318 3.66 3.66 0 00-1.273-.858 4.3 4.3 0 00-1.643-.304c-.6 0-1.147.101-1.641.304a3.666 3.666 0 00-1.27.858 3.863 3.863 0 00-.82 1.318 4.728 4.728 0 00-.29 1.683c0 .612.097 1.172.29 1.684.194.51.467.95.82 1.321.353.37.777.658 1.27.863a4.242 4.242 0 001.64.307c.6 0 1.148-.102 1.644-.307a3.686 3.686 0 001.273-.863c.353-.371.626-.811.82-1.321.194-.512.29-1.072.29-1.684m7.345-3.95a5.055 5.055 0 00-1.53-.22c-.658 0-1.25.102-1.777.306a3.918 3.918 0 00-1.353.854 3.732 3.732 0 00-.863 1.318 4.604 4.604 0 00-.302 1.692c0 .623.098 1.19.293 1.703.196.513.474.952.835 1.319s.8.65 1.315.85a4.723 4.723 0 001.732.303c.323 0 .623-.024.9-.071.277-.047.534-.115.77-.205a3.698 3.698 0 001.218-.754l-.314-.502a.324.324 0 00-.19-.145c-.078-.021-.165-.003-.26.054a8.446 8.446 0 00-.313.194 2.805 2.805 0 01-.43.219 3.532 3.532 0 01-1.415.253c-.46 0-.875-.074-1.248-.224a2.654 2.654 0 01-.95-.644 2.855 2.855 0 01-.605-1.014 3.993 3.993 0 01-.21-1.336c0-.512.073-.97.22-1.375.145-.404.354-.75.626-1.031a2.68 2.68 0 01.988-.647 3.629 3.629 0 011.304-.222c.19 0 .368.012.533.034.165.023.323.055.475.095.152.04.298.089.44.147.14.06.282.127.426.203v1.8h-1.27a.244.244 0 00-.174.062.208.208 0 00-.065.155v.626h2.506v-3.133a4.574 4.574 0 00-1.313-.663m3.236.499a.721.721 0 00.427.66.69.69 0 00.279.056.734.734 0 00.661-.439.705.705 0 000-.56.738.738 0 00-.154-.225.722.722 0 00-.507-.205.722.722 0 00-.279.054.66.66 0 00-.225.151.704.704 0 00-.202.507m9.016 1.059a.206.206 0 00.16-.074l.438-.473a3.507 3.507 0 00-1.216-.906c-.477-.216-1.053-.324-1.729-.324-.585 0-1.116.1-1.595.305a3.5 3.5 0 00-1.224.854c-.338.367-.6.806-.786 1.318a4.935 4.935 0 00-.279 1.692c0 .616.097 1.179.29 1.692.194.512.466.953.818 1.32.351.37.771.655 1.261.859.49.203 1.031.304 1.624.304.58 0 1.093-.093 1.537-.28a3.875 3.875 0 001.174-.756l-.365-.507a.304.304 0 00-.088-.094.255.255 0 00-.146-.037c-.068 0-.15.037-.25.11a3.795 3.795 0 01-.388.248 2.936 2.936 0 01-.597.248 2.991 2.991 0 01-.883.11c-.422 0-.807-.071-1.156-.218a2.515 2.515 0 01-.903-.635 2.943 2.943 0 01-.59-1.014 4.06 4.06 0 01-.21-1.35c0-.508.073-.962.22-1.361.145-.4.345-.736.597-1.011.252-.275.55-.485.894-.63a2.854 2.854 0 011.113-.216c.244 0 .463.014.66.043.194.029.374.073.54.134.165.06.32.138.461.23.142.093.283.205.424.334a.294.294 0 00.194.085m8.506 2.392c0 .501-.068.951-.205 1.35-.137.399-.33.736-.581 1.011a2.525 2.525 0 01-.911.635 3.078 3.078 0 01-1.196.222c-.437 0-.834-.073-1.191-.222a2.562 2.562 0 01-.914-.635 2.84 2.84 0 01-.584-1.011 4.17 4.17 0 01-.205-1.35c0-.501.069-.95.205-1.347.137-.397.332-.733.584-1.008a2.53 2.53 0 01.914-.632 3.12 3.12 0 011.19-.22c.44 0 .84.074 1.197.22.357.146.66.357.91.632.252.275.445.611.582 1.008.137.397.205.846.205 1.347m1.133 0c0-.611-.096-1.172-.29-1.683a3.863 3.863 0 00-.82-1.318 3.66 3.66 0 00-1.273-.858 4.3 4.3 0 00-1.643-.304c-.6 0-1.147.101-1.641.304a3.666 3.666 0 00-1.27.858 3.863 3.863 0 00-.82 1.318 4.728 4.728 0 00-.29 1.683c0 .612.097 1.172.29 1.684.194.51.467.95.82 1.321.353.37.777.658 1.27.863a4.242 4.242 0 001.64.307c.6 0 1.148-.102 1.644-.307a3.686 3.686 0 001.273-.863c.353-.371.626-.811.82-1.321.194-.512.29-1.072.29-1.684m6.139-1.416l.125-.298c.038.102.078.204.12.304.04.1.087.197.136.287l2.769 5.018c.045.088.095.141.15.16a.739.739 0 00.23.029h.816v-8.162h-.97v5.997a5.917 5.917 0 00.024.536l-2.797-5.103c-.087-.17-.22-.257-.398-.257h-.16c-.178 0-.311.087-.398.257l-2.86 5.12a6.323 6.323 0 00.035-.552v-5.997h-.97v8.16h.816a.713.713 0 00.228-.027c.053-.02.104-.072.153-.16l2.82-5.023c.045-.091.089-.187.13-.288"/></g></svg>