<svg xmlns="http://www.w3.org/2000/svg" width="100" height="100" viewBox="0 0 100 100"><path fill="#c20098" d="M0 0h100v100H0z"/><g fill="#fff"><path d="M50 15c-9.505 0-10.697.04-14.43.21-3.726.17-6.27.762-8.496 1.627-2.302.895-4.254 2.092-6.2 4.037-1.945 1.946-3.142 3.898-4.037 6.2-.865 2.226-1.456 4.77-1.626 8.496C15.04 39.303 15 40.495 15 50c0 9.505.04 10.697.21 14.43.17 3.726.762 6.27 1.627 8.496.895 2.302 2.092 4.254 4.037 6.2 1.946 1.945 3.898 3.142 6.2 4.037 2.226.865 4.77 1.456 8.496 1.626 3.733.17 4.925.211 14.43.211 9.505 0 10.697-.04 14.43-.21 3.726-.17 6.27-.762 8.496-1.627 2.302-.895 4.254-2.092 6.2-4.037 1.945-1.946 3.142-3.898 4.037-6.2.865-2.226 1.456-4.77 1.626-8.496.17-3.733.211-4.925.211-14.43 0-9.505-.04-10.697-.21-14.43-.17-3.726-.762-6.27-1.627-8.496-.895-2.302-2.092-4.254-4.037-6.2-1.946-1.945-3.898-3.142-6.2-4.037-2.226-.865-4.77-1.456-8.496-1.626C60.697 15.04 59.505 15 50 15zm0 6.306c9.345 0 10.452.036 14.143.204 3.412.156 5.266.726 6.499 1.205 1.634.635 2.8 1.394 4.024 2.619 1.225 1.224 1.984 2.39 2.619 4.024.479 1.233 1.049 3.087 1.205 6.499.168 3.69.204 4.798.204 14.143s-.036 10.452-.204 14.143c-.156 3.412-.726 5.266-1.205 6.499-.635 1.634-1.394 2.8-2.619 4.024-1.224 1.225-2.39 1.984-4.024 2.619-1.233.479-3.087 1.049-6.499 1.205-3.69.168-4.797.204-14.143.204s-10.453-.036-14.143-.204c-3.412-.156-5.266-.726-6.499-1.205-1.634-.635-2.8-1.394-4.024-2.619-1.225-1.224-1.984-2.39-2.619-4.024-.479-1.233-1.049-3.087-1.205-6.499-.168-3.69-.204-4.798-.204-14.143s.036-10.452.204-14.143c.156-3.412.726-5.266 1.205-6.499.635-1.634 1.394-2.8 2.619-4.024 1.224-1.225 2.39-1.984 4.024-2.619 1.233-.479 3.087-1.049 6.499-1.205 3.69-.168 4.798-.204 14.143-.204"/><path d="M50 61.667c-6.443 0-11.667-5.224-11.667-11.667S43.557 38.333 50 38.333 61.667 43.557 61.667 50 56.443 61.667 50 61.667zm0-29.64c-9.926 0-17.973 8.047-17.973 17.973 0 9.926 8.047 17.973 17.973 17.973 9.926 0 17.973-8.047 17.973-17.973 0-9.926-8.047-17.973-17.973-17.973m22.883-.71a4.2 4.2 0 11-8.4 0 4.2 4.2 0 018.4 0"/></g></svg>