<svg xmlns="http://www.w3.org/2000/svg" width="100" height="100" viewBox="0 0 100 100"><path fill="#3088d4" d="M0 0h100v100H0z"/><path d="M81.257 56.964c-.96 4.938-8.596 10.342-17.367 11.39-4.573.545-9.077 1.047-13.878.827-7.853-.36-14.05-1.875-14.05-1.875 0 .765.048 1.493.142 2.173 1.02 7.75 7.685 8.214 13.997 8.43 6.37.219 12.044-1.57 12.044-1.57l.261 5.76s-4.456 2.393-12.394 2.833c-4.378.24-9.813-.11-16.144-1.786-13.73-3.634-16.091-18.27-16.452-33.12-.11-4.41-.043-8.567-.043-12.044 0-15.185 9.95-19.636 9.95-19.636 5.016-2.304 13.625-3.273 22.574-3.346h.22c8.949.073 17.563 1.042 22.579 3.346 0 0 9.949 4.451 9.949 19.636 0 0 .125 11.204-1.388 18.982" fill="#fff"/><path d="M70.91 39.16v18.387h-7.285V39.7c0-3.762-1.583-5.672-4.749-5.672-3.5 0-5.255 2.265-5.255 6.744v9.768H46.38v-9.768c0-4.479-1.755-6.744-5.256-6.744-3.166 0-4.749 1.91-4.749 5.672v17.846h-7.284V39.16c0-3.758.956-6.744 2.878-8.953 1.982-2.21 4.578-3.342 7.8-3.342 3.727 0 6.55 1.433 8.417 4.299L50 34.205l1.815-3.041c1.866-2.866 4.689-4.299 8.417-4.299 3.221 0 5.817 1.133 7.8 3.342 1.92 2.21 2.877 5.195 2.877 8.953" fill="#3088d4"/></svg>