<svg xmlns="http://www.w3.org/2000/svg" width="100" height="100" viewBox="0 0 100 100"><path fill="#e60023" d="M0 0h100v100H0z"/><path class="st0" d="M50.029 15c-19.314 0-34.972 15.658-34.972 34.971 0 14.823 9.211 27.488 22.22 32.582-.316-2.763-.575-7.023.116-10.045.633-2.734 4.087-17.385 4.087-17.385s-1.036-2.1-1.036-5.18c0-4.865 2.82-8.492 6.332-8.492 2.994 0 4.433 2.246 4.433 4.922 0 2.994-1.9 7.484-2.907 11.657-.835 3.483 1.755 6.333 5.18 6.333 6.218 0 10.996-6.563 10.996-16.004 0-8.375-6.016-14.218-14.622-14.218-9.959 0-15.802 7.454-15.802 15.168 0 2.994 1.152 6.217 2.59 7.973.288.345.317.662.23 1.007-.258 1.094-.863 3.483-.978 3.973-.144.633-.518.777-1.18.46-4.375-2.044-7.11-8.405-7.11-13.557 0-11.024 8.002-21.155 23.113-21.155 12.118 0 21.559 8.635 21.559 20.205 0 12.06-7.599 21.76-18.133 21.76-3.54 0-6.88-1.842-8.002-4.03l-2.187 8.319c-.778 3.051-2.908 6.85-4.347 9.182A35.125 35.125 0 0049.971 85c19.313 0 34.971-15.658 34.971-34.971C85 30.658 69.342 15 50.03 15z" fill="#fff"/></svg>