<svg xmlns="http://www.w3.org/2000/svg" width="100" height="100" viewBox="0 0 100 100"><path fill="#ff4500" d="M0 0h100v100H0z"/><path class="st1" d="M85 50.554a7.692 7.692 0 00-7.689-7.69c-2.091 0-3.937.8-5.29 2.154-5.228-3.753-12.487-6.213-20.483-6.52l3.506-16.424 11.38 2.399c.123 2.89 2.522 5.228 5.474 5.228a5.487 5.487 0 005.475-5.474 5.487 5.487 0 00-5.475-5.475 5.32 5.32 0 00-4.86 3.076L54.307 19.12c-.37-.061-.738 0-1.046.185-.307.184-.492.492-.615.861l-3.875 18.33c-8.181.246-15.501 2.645-20.791 6.52-1.353-1.291-3.26-2.152-5.29-2.152a7.692 7.692 0 00-7.69 7.69c0 3.137 1.845 5.782 4.552 7.012a14.395 14.395 0 00-.185 2.337c0 11.81 13.717 21.345 30.695 21.345 16.977 0 30.694-9.534 30.694-21.345 0-.8-.062-1.537-.185-2.276C83.093 56.397 85 53.691 85 50.554zm-52.592 5.474a5.487 5.487 0 015.474-5.474 5.487 5.487 0 015.475 5.474 5.487 5.487 0 01-5.475 5.475 5.487 5.487 0 01-5.474-5.475zm30.57 14.455c-3.75 3.752-10.886 3.999-12.978 3.999-2.091 0-9.288-.308-12.979-3.999a1.448 1.448 0 010-2.03 1.448 1.448 0 012.03 0c2.337 2.338 7.381 3.199 11.01 3.199 3.63 0 8.612-.861 11.011-3.199a1.448 1.448 0 012.03 0c.43.616.43 1.477-.123 2.03zm-.983-8.98a5.487 5.487 0 01-5.475-5.475 5.487 5.487 0 015.475-5.474 5.487 5.487 0 015.474 5.474 5.487 5.487 0 01-5.474 5.475z" fill="#fff"/></svg>