<svg xmlns="http://www.w3.org/2000/svg" width="100" height="100" viewBox="0 0 100 100"><path fill="#0078d7" d="M0 0h100v100H0z"/><path d="M50.142 71.067c-11.629 0-16.941-5.924-16.941-10.269a3.768 3.768 0 013.975-3.768c4.98 0 3.677 7.468 12.966 7.468 4.748 0 7.537-2.858 7.537-5.543 0-1.614-.922-3.458-4.057-4.195L43.25 52.144c-8.332-2.12-9.784-6.754-9.784-11.052 0-8.92 8.159-12.147 15.926-12.147 7.157 0 15.662 3.953 15.662 9.3 0 2.305-1.924 3.538-4.16 3.538-4.253 0-3.538-5.97-12.09-5.97-4.252 0-6.488 1.994-6.488 4.783 0 2.789 3.308 3.734 6.212 4.368l7.652 1.728c8.39 1.89 10.626 6.811 10.626 11.525 0 7.249-5.612 12.85-16.676 12.85m32.119-15.34a33.26 33.26 0 00.495-5.762A32.753 32.753 0 0044.322 17.57 19.269 19.269 0 0034.664 15a19.592 19.592 0 00-16.906 29.284A32.776 32.776 0 0055.696 82.43 19.257 19.257 0 0065.342 85 19.592 19.592 0 0082.25 55.728" fill="#fff"/></svg>