<svg xmlns="http://www.w3.org/2000/svg" width="100" height="100" viewBox="0 0 100 100"><path fill="#fffc00" d="M0 0h100v100H0z"/><path d="M49.991 18.99c-.995 0-1.932.068-2.81.19a18.52 18.52 0 00-2.458.513 17.224 17.224 0 00-3.892 1.624 16.1 16.1 0 00-2.565 1.812 13.068 13.068 0 00-1.288 1.275 18.543 18.543 0 00-1.315 1.67 12.95 12.95 0 00-1.127 1.975 14.088 14.088 0 00-.86 2.482 20.456 20.456 0 00-.512 3.193c-.151 1.751-.159 3.563-.115 5.179.045 1.615.141 3.033.197 3.995.019.301-.018.517-.126.659-.108.142-.285.208-.548.208a1.569 1.569 0 01-.013 0 1.569 1.569 0 01-.089-.005 1.569 1.569 0 01-.088-.01 1.569 1.569 0 01-.088-.014 1.569 1.569 0 01-.086-.02c-.986-.239-2.693-1.119-4.45-1.5a4.05 4.05 0 00-.025-.005 4.05 4.05 0 00-.14-.028 4.05 4.05 0 00-.14-.024 4.05 4.05 0 00-.142-.016 4.05 4.05 0 00-.142-.014 4.05 4.05 0 00-.143-.009 4.05 4.05 0 00-.143-.002c-.465 0-.919.09-1.302.298a1.879 1.879 0 00-.876 1.01 2.38 2.38 0 00-.165.985c.018.315.107.618.262.913.312.59.889 1.15 1.69 1.709.968.675 4.455 2.835 5.241 3.562.407.376.585.708.649 1.04.063.331.013.661-.034 1.03-.02.153-.144.782-.491 1.722-.348.94-.919 2.193-1.831 3.593-.456.7-.998 1.436-1.64 2.189a23.505 23.505 0 01-2.238 2.286 26.489 26.489 0 01-2.93 2.261 30.873 30.873 0 01-3.708 2.114c-.323.156-.758.4-.87.737-.057.17-.034.362.126.58.159.216.453.457.936.724 1.519.834 2.781 1.206 3.862 1.496 1.081.29 1.98.498 2.765 1.004.334.215.535.492.664.797.129.304.186.637.232.964.045.327.079.648.162.929s.215.523.457.69c.298.205.743.304 1.313.36.57.057 1.263.071 2.063.106.799.035 1.703.092 2.691.233.988.142 2.06.37 3.194.744.954.315 1.814.773 2.675 1.283.861.51 1.722 1.073 2.674 1.596.952.524 1.995 1.008 3.223 1.36 1.228.354 2.64.577 4.327.577 1.687 0 3.102-.222 4.333-.576 1.232-.354 2.28-.839 3.236-1.362.955-.523 1.818-1.086 2.675-1.595.857-.509 1.71-.964 2.647-1.274a18.512 18.512 0 013.2-.743 27.084 27.084 0 012.69-.233c.799-.035 1.493-.049 2.061-.106.569-.056 1.013-.156 1.31-.362.243-.167.376-.407.459-.688.083-.281.117-.602.162-.929.045-.327.102-.66.23-.965.13-.305.33-.582.664-.797.785-.505 1.683-.713 2.764-1.004 1.08-.292 2.345-.666 3.864-1.505.484-.27.777-.512.936-.73.159-.219.183-.413.126-.583-.113-.34-.55-.587-.876-.75a30.823 30.823 0 01-3.707-2.11 26.443 26.443 0 01-2.93-2.26 23.459 23.459 0 01-2.24-2.285 21.328 21.328 0 01-1.639-2.189 18.129 18.129 0 01-1.83-3.593c-.347-.942-.471-1.571-.49-1.726-.048-.37-.099-.7-.036-1.031.064-.332.241-.666.649-1.041.786-.729 4.275-2.885 5.243-3.56.801-.56 1.377-1.12 1.687-1.71a2.21 2.21 0 00.263-.913 2.391 2.391 0 00-.165-.987 1.89 1.89 0 00-.876-1.008c-.383-.209-.836-.298-1.304-.298a4.05 4.05 0 00-.025 0 4.05 4.05 0 00-.143.003 4.05 4.05 0 00-.141.01 4.05 4.05 0 00-.143.013 4.05 4.05 0 00-.14.018 4.05 4.05 0 00-.142.025 4.05 4.05 0 00-.139.028c-1.758.381-3.465 1.263-4.453 1.5a1.554 1.554 0 01-.014.003 1.554 1.554 0 01-.086.02 1.554 1.554 0 01-.087.014 1.554 1.554 0 01-.088.008 1.554 1.554 0 01-.089.004c-.263 0-.441-.058-.55-.196-.108-.137-.145-.355-.124-.671.062-.961.157-2.379.2-3.994.043-1.616.033-3.43-.118-5.18a20.396 20.396 0 00-.511-3.193 14.055 14.055 0 00-.858-2.482 12.933 12.933 0 00-1.129-1.975 18.52 18.52 0 00-1.315-1.669c-.222-.253-.65-.717-1.29-1.27a16.138 16.138 0 00-2.57-1.806 17.294 17.294 0 00-3.894-1.617 18.639 18.639 0 00-2.462-.51 20.408 20.408 0 00-2.808-.19z" fill="#fff"/><path d="M50 15c-1.022 0-2.022.06-2.998.18-.976.118-1.93.298-2.858.536a21.381 21.381 0 00-5.274 2.131 18.997 18.997 0 00-.268.154 18.997 18.997 0 00-.265.158 18.997 18.997 0 00-.263.163 18.997 18.997 0 00-.26.166 18.997 18.997 0 00-.258.171 18.997 18.997 0 00-.254.175 18.997 18.997 0 00-.253.179 18.997 18.997 0 00-.248.183 18.997 18.997 0 00-.246.186 18.997 18.997 0 00-.243.192 18.997 18.997 0 00-.24.194 18.997 18.997 0 00-.236.2 18.997 18.997 0 00-.233.203 18.997 18.997 0 00-.23.207 18.997 18.997 0 00-.227.21 18.997 18.997 0 00-.222.213 18.997 18.997 0 00-.22.218 18.997 18.997 0 00-.216.22 18.997 18.997 0 00-.212.225 18.997 18.997 0 00-.209.228 18.997 18.997 0 00-.07.078 22.712 22.712 0 00-1.595 2.025c-.51.738-.992 1.55-1.422 2.471-.43.92-.806 1.95-1.109 3.12a24.193 24.193 0 00-.66 3.976 51.262 51.262 0 00-.157 5.057 11.33 11.33 0 00-.446-.106 8.126 8.126 0 00-.198-.038 8.126 8.126 0 00-.2-.037 8.126 8.126 0 00-.199-.029 8.126 8.126 0 00-.201-.025 8.126 8.126 0 00-.201-.02 8.126 8.126 0 00-.202-.016 8.126 8.126 0 00-.201-.01 8.126 8.126 0 00-.203-.005 8.126 8.126 0 00-.112 0c-.684 0-1.338.093-1.949.27a6.207 6.207 0 00-1.688.77 5.818 5.818 0 00-2.264 2.833 6.212 6.212 0 00-.062.165 6.212 6.212 0 00-.057.168 6.212 6.212 0 00-.052.168 6.212 6.212 0 00-.047.17 6.212 6.212 0 00-.043.171 6.212 6.212 0 00-.037.174 6.212 6.212 0 00-.034.173 6.212 6.212 0 00-.027.175 6.212 6.212 0 00-.023.175 6.212 6.212 0 00-.018.175 6.212 6.212 0 00-.012.176 6.212 6.212 0 00-.009.178 6.212 6.212 0 00-.002.176 6.212 6.212 0 00.002.177 6.212 6.212 0 00.007.176 6.212 6.212 0 00.013.176 6.212 6.212 0 00.018.177 6.212 6.212 0 00.022.174 6.212 6.212 0 00.028.175 6.212 6.212 0 00.032.174 6.212 6.212 0 00.037.172 6.212 6.212 0 00.042.172 6.212 6.212 0 00.047.17 6.212 6.212 0 00.051.169 6.212 6.212 0 00.057.168 6.212 6.212 0 00.061.165 6.212 6.212 0 00.067.165 6.212 6.212 0 00.07.161 6.212 6.212 0 00.076.16 6.212 6.212 0 00.079.158 6.212 6.212 0 00.014.025c.3.57.69 1.109 1.176 1.626a11.253 11.253 0 001.754 1.49c.363.255.932.622 1.648 1.09.387.25.95.617 1.505.984a1.616 1.616 0 01.073.052 1.616 1.616 0 01.072.054 1.616 1.616 0 01.068.06 1.616 1.616 0 01.066.062 1.616 1.616 0 01.06.067 1.616 1.616 0 01.058.069 1.616 1.616 0 01.052.072 1.616 1.616 0 01.034.049c.116.238.12.494-.053.966a14.943 14.943 0 01-.115.248 14.943 14.943 0 01-.121.247 14.943 14.943 0 01-.125.243 14.943 14.943 0 01-.13.243 14.943 14.943 0 01-.132.239 14.943 14.943 0 01-.138.237 14.943 14.943 0 01-.143.234 14.943 14.943 0 01-.145.231 14.943 14.943 0 01-.152.23 14.943 14.943 0 01-.108.16 18.77 18.77 0 01-3.218 3.58c-1.258 1.092-2.698 2.08-4.314 2.957-.856.454-1.73.833-2.482 1.354-.376.26-.724.555-1.023.913-.3.358-.55.779-.738 1.29a4.107 4.107 0 00-.249 1.19c-.022.403.017.813.118 1.22.1.409.264.815.493 1.211.228.396.521.784.881 1.154a7.196 7.196 0 00.134.134 7.196 7.196 0 00.136.132 7.196 7.196 0 00.14.13 7.196 7.196 0 00.144.124 7.196 7.196 0 00.147.12 7.196 7.196 0 00.15.117 7.196 7.196 0 00.153.113 7.196 7.196 0 00.155.108 7.196 7.196 0 00.16.106 7.196 7.196 0 00.161.1 7.196 7.196 0 00.165.095 7.196 7.196 0 00.167.092 7.196 7.196 0 00.004.003 19.675 19.675 0 00.276.148 19.675 19.675 0 00.28.146 19.675 19.675 0 00.281.14 19.675 19.675 0 00.283.136 19.675 19.675 0 00.286.13 19.675 19.675 0 00.287.127 19.675 19.675 0 00.29.122 19.675 19.675 0 00.292.118 19.675 19.675 0 00.294.113 19.675 19.675 0 00.296.108 19.675 19.675 0 00.296.103 19.675 19.675 0 00.3.098 19.675 19.675 0 00.3.095 19.675 19.675 0 00.3.088 19.675 19.675 0 00.303.084 19.675 19.675 0 00.08.02 2.934 2.934 0 01.116.034 2.934 2.934 0 01.115.037 2.934 2.934 0 01.114.043 2.934 2.934 0 01.112.046 2.934 2.934 0 01.11.053 2.934 2.934 0 01.108.055 2.934 2.934 0 01.104.062 2.934 2.934 0 01.103.063 2.934 2.934 0 01.014.01c.262.23.375.518.51.875.134.357.29.783.64 1.29a5.048 5.048 0 00.09.13 5.048 5.048 0 00.095.127 5.048 5.048 0 00.099.125 5.048 5.048 0 00.103.122 5.048 5.048 0 00.107.118 5.048 5.048 0 00.11.116 5.048 5.048 0 00.113.112 5.048 5.048 0 00.117.107 5.048 5.048 0 00.12.104 5.048 5.048 0 00.124.1 5.048 5.048 0 00.128.097 5.048 5.048 0 00.108.078c.734.507 1.512.775 2.326.926.814.15 1.663.184 2.537.218.788.03 1.63.062 2.53.17.9.11 1.858.295 2.879.632.846.28 1.726.822 2.744 1.453 1.223.752 2.671 1.641 4.514 2.344.922.35 1.943.655 3.083.871 1.14.217 2.4.346 3.801.346 1.401 0 2.662-.13 3.805-.347a18.195 18.195 0 003.093-.876c1.851-.706 3.31-1.6 4.542-2.354 1.011-.621 1.885-1.158 2.708-1.43a14.663 14.663 0 012.879-.632c.9-.108 1.741-.14 2.53-.17.874-.034 1.722-.066 2.536-.217.814-.15 1.593-.42 2.327-.927a5.064 5.064 0 00.129-.093 5.064 5.064 0 00.126-.097 5.064 5.064 0 00.124-.102 5.064 5.064 0 00.12-.105 5.064 5.064 0 00.117-.108 5.064 5.064 0 00.113-.113 5.064 5.064 0 00.11-.116 5.064 5.064 0 00.105-.12 5.064 5.064 0 00.103-.122 5.064 5.064 0 00.098-.126 5.064 5.064 0 00.093-.13 5.064 5.064 0 00.09-.131 5.064 5.064 0 00.086-.133 5.064 5.064 0 00.082-.138c.503-.855.49-1.453.962-1.871a2.782 2.782 0 01.1-.064 2.782 2.782 0 01.102-.06 2.782 2.782 0 01.104-.055 2.782 2.782 0 01.107-.052 2.782 2.782 0 01.108-.047 2.782 2.782 0 01.11-.041 2.782 2.782 0 01.113-.038 2.782 2.782 0 01.099-.028 19.75 19.75 0 00.304-.081 19.75 19.75 0 00.302-.088 19.75 19.75 0 00.303-.092 19.75 19.75 0 00.3-.097 19.75 19.75 0 00.297-.101 19.75 19.75 0 00.297-.107 19.75 19.75 0 00.294-.11 19.75 19.75 0 00.295-.116 19.75 19.75 0 00.29-.12 19.75 19.75 0 00.29-.125 19.75 19.75 0 00.287-.13 19.75 19.75 0 00.285-.133 19.75 19.75 0 00.283-.14 19.75 19.75 0 00.28-.142 19.75 19.75 0 00.28-.147 19.75 19.75 0 00.116-.065 7.082 7.082 0 00.165-.09 7.082 7.082 0 00.163-.096 7.082 7.082 0 00.16-.1 7.082 7.082 0 00.157-.106 7.082 7.082 0 00.154-.108 7.082 7.082 0 00.152-.113 7.082 7.082 0 00.148-.116 7.082 7.082 0 00.146-.12 7.082 7.082 0 00.142-.124 7.082 7.082 0 00.138-.128 7.082 7.082 0 00.135-.132 7.082 7.082 0 00.132-.135 7.082 7.082 0 00.115-.125l.018-.022a5.63 5.63 0 00.826-1.124c.213-.387.365-.783.457-1.18a4.067 4.067 0 00-.146-2.347 4.266 4.266 0 00-1.037-1.61c-.43-.423-.933-.75-1.468-1.049a6.3 6.3 0 00-.546-.286c-.32-.165-.647-.324-.972-.492-1.67-.886-3.156-1.887-4.451-2.997a18.76 18.76 0 01-3.304-3.655 15.083 15.083 0 01-.154-.228 15.083 15.083 0 01-.15-.232 15.083 15.083 0 01-.146-.233 15.083 15.083 0 01-.141-.236 15.083 15.083 0 01-.136-.239 15.083 15.083 0 01-.134-.241 15.083 15.083 0 01-.127-.243 15.083 15.083 0 01-.125-.247 15.083 15.083 0 01-.12-.247 15.083 15.083 0 01-.098-.215c-.155-.442-.147-.692-.036-.92a1.498 1.498 0 01.048-.073 1.498 1.498 0 01.052-.07 1.498 1.498 0 01.056-.066 1.498 1.498 0 01.06-.062 1.498 1.498 0 01.063-.06 1.498 1.498 0 01.066-.056 1.498 1.498 0 01.071-.051 1.498 1.498 0 01.011-.007c.574-.38 1.166-.765 1.567-1.024.716-.463 1.282-.83 1.647-1.09.685-.48 1.268-.974 1.754-1.491a7.404 7.404 0 001.175-1.625 6.205 6.205 0 00.08-.157 6.205 6.205 0 00.076-.16 6.205 6.205 0 00.073-.161 6.205 6.205 0 00.066-.164 6.205 6.205 0 00.063-.165 6.205 6.205 0 00.057-.167 6.205 6.205 0 00.052-.167 6.205 6.205 0 00.049-.171 6.205 6.205 0 00.043-.171 6.205 6.205 0 00.037-.172 6.205 6.205 0 00.034-.174 6.205 6.205 0 00.029-.174 6.205 6.205 0 00.024-.175 6.205 6.205 0 00.018-.177 6.205 6.205 0 00.013-.175 6.205 6.205 0 00.009-.176 6.205 6.205 0 00.003-.178 6.205 6.205 0 00-.002-.176 6.205 6.205 0 00-.007-.176 6.205 6.205 0 00-.01-.176 6.205 6.205 0 00-.019-.175 6.205 6.205 0 00-.02-.177 6.205 6.205 0 00-.027-.173 6.205 6.205 0 00-.032-.175 6.205 6.205 0 00-.038-.172 6.205 6.205 0 00-.04-.172 6.205 6.205 0 00-.047-.17 6.205 6.205 0 00-.051-.169 6.205 6.205 0 00-.056-.168 6.205 6.205 0 00-.06-.165 6.205 6.205 0 00-.01-.025 5.815 5.815 0 00-2.264-2.833 6.213 6.213 0 00-1.689-.772 7.004 7.004 0 00-1.947-.27 8.126 8.126 0 00-.201.003 8.126 8.126 0 00-.203.007 8.126 8.126 0 00-.201.013 8.126 8.126 0 00-.202.018 8.126 8.126 0 00-.2.022 8.126 8.126 0 00-.2.028 8.126 8.126 0 00-.2.032 8.126 8.126 0 00-.2.037 8.126 8.126 0 00-.109.023 11.5 11.5 0 00-.448.105 50.623 50.623 0 00-.157-5.057 24.217 24.217 0 00-.658-3.978c-.303-1.172-.68-2.2-1.11-3.12a16.87 16.87 0 00-1.422-2.47c-.51-.738-1.05-1.4-1.595-2.024a19.066 19.066 0 00-.207-.23 19.066 19.066 0 00-.212-.225 19.066 19.066 0 00-.215-.222 19.066 19.066 0 00-.22-.22 19.066 19.066 0 00-.222-.215 19.066 19.066 0 00-.226-.212 19.066 19.066 0 00-.229-.207 19.066 19.066 0 00-.233-.204 19.066 19.066 0 00-.235-.202 19.066 19.066 0 00-.24-.195 19.066 19.066 0 00-.241-.193 19.066 19.066 0 00-.246-.189 19.066 19.066 0 00-.249-.185 19.066 19.066 0 00-.25-.18 19.066 19.066 0 00-.255-.176 19.066 19.066 0 00-.258-.174 19.066 19.066 0 00-.26-.168 19.066 19.066 0 00-.262-.164 19.066 19.066 0 00-.265-.16 19.066 19.066 0 00-.268-.155 19.066 19.066 0 00-.07-.04 21.046 21.046 0 00-5.28-2.13A22.655 22.655 0 0053 15.178a24.616 24.616 0 00-3-.179zm-.007 3.992c.996 0 1.93.069 2.809.19.877.122 1.698.297 2.46.51a17.294 17.294 0 013.896 1.617 16.138 16.138 0 012.57 1.806c.64.553 1.067 1.017 1.289 1.27a18.52 18.52 0 011.316 1.669c.411.596.793 1.243 1.128 1.975.336.732.625 1.547.858 2.482.233.934.408 1.988.51 3.192.152 1.752.162 3.566.119 5.181-.043 1.615-.138 3.033-.2 3.994-.021.316.017.534.125.671.108.138.286.196.55.196a1.554 1.554 0 00.088-.004 1.554 1.554 0 00.088-.008 1.554 1.554 0 00.087-.014 1.554 1.554 0 00.086-.02 1.554 1.554 0 00.014-.002c.988-.238 2.696-1.12 4.453-1.501a4.05 4.05 0 01.14-.028 4.05 4.05 0 01.14-.025 4.05 4.05 0 01.14-.018 4.05 4.05 0 01.144-.014 4.05 4.05 0 01.141-.01 4.05 4.05 0 01.143-.002 4.05 4.05 0 01.025 0c.468 0 .921.09 1.304.298a1.9 1.9 0 01.876 1.008c.13.343.183.672.165.987a2.21 2.21 0 01-.262.913c-.311.591-.887 1.15-1.688 1.71-.968.675-4.457 2.832-5.243 3.56-.408.376-.585.71-.649 1.04-.063.332-.012.663.035 1.032.02.155.144.784.492 1.726.347.94.917 2.194 1.83 3.593.455.7.997 1.437 1.639 2.19.641.752 1.382 1.52 2.239 2.284a26.443 26.443 0 002.93 2.26 30.823 30.823 0 003.708 2.11c.325.163.762.41.875.75.057.17.033.364-.126.583-.159.218-.452.46-.935.73-1.52.839-2.784 1.213-3.865 1.505-1.08.29-1.978.499-2.764 1.005a1.703 1.703 0 00-.663.796c-.13.305-.185.638-.23.965-.046.327-.08.648-.163.929-.083.28-.216.521-.458.688-.298.206-.742.306-1.31.363-.57.056-1.263.07-2.062.105a27.15 27.15 0 00-2.69.233 18.52 18.52 0 00-3.2.743c-.938.31-1.79.765-2.647 1.274-.857.509-1.72 1.072-2.675 1.595-.955.523-2.004 1.008-3.235 1.362-1.232.354-2.647.576-4.334.576-1.687 0-3.1-.223-4.327-.576-1.228-.353-2.27-.837-3.223-1.36-.952-.524-1.813-1.086-2.674-1.597-.86-.51-1.721-.968-2.675-1.282a18.434 18.434 0 00-3.194-.744 27.084 27.084 0 00-2.691-.234c-.8-.035-1.493-.049-2.063-.105-.57-.057-1.015-.155-1.313-.361-.242-.167-.374-.409-.457-.69-.083-.281-.117-.602-.162-.929-.046-.327-.103-.66-.232-.964a1.706 1.706 0 00-.664-.797c-.786-.506-1.684-.714-2.765-1.004-1.08-.29-2.343-.662-3.861-1.496-.484-.267-.778-.508-.937-.725-.16-.217-.183-.41-.127-.579.113-.337.548-.58.87-.737a30.872 30.872 0 003.708-2.114 26.489 26.489 0 002.93-2.261 23.505 23.505 0 002.24-2.286 21.365 21.365 0 001.64-2.19 18.174 18.174 0 001.83-3.592c.348-.94.472-1.569.491-1.721.048-.37.097-.7.034-1.031-.064-.332-.242-.664-.649-1.04-.786-.726-4.273-2.887-5.241-3.562-.8-.56-1.378-1.118-1.69-1.709a2.21 2.21 0 01-.262-.913 2.38 2.38 0 01.165-.986c.182-.475.493-.8.876-1.009.383-.208.838-.298 1.302-.298a4.05 4.05 0 01.143.002 4.05 4.05 0 01.143.009 4.05 4.05 0 01.142.014 4.05 4.05 0 01.141.016 4.05 4.05 0 01.14.024 4.05 4.05 0 01.14.028 4.05 4.05 0 01.026.005c1.758.382 3.464 1.261 4.45 1.5a1.569 1.569 0 00.086.02 1.569 1.569 0 00.088.014 1.569 1.569 0 00.089.01 1.569 1.569 0 00.088.005 1.569 1.569 0 00.013 0c.263 0 .44-.066.548-.208.108-.142.145-.358.127-.66-.057-.96-.153-2.379-.198-3.994-.044-1.615-.036-3.428.116-5.18a20.46 20.46 0 01.512-3.192c.233-.935.524-1.75.86-2.482a12.95 12.95 0 011.126-1.975c.412-.596.854-1.142 1.315-1.67.221-.254.649-.72 1.288-1.274a16.1 16.1 0 012.565-1.813 17.224 17.224 0 013.892-1.624 18.52 18.52 0 012.459-.513c.877-.122 1.814-.19 2.81-.19z"/></svg>