<svg xmlns="http://www.w3.org/2000/svg" xmlns:xlink="http://www.w3.org/1999/xlink" width="100" height="100" viewBox="0 0 100 100"><defs><linearGradient gradientTransform="translate(0 28.285) scale(1.07544)" x1="46.493" y1="0" x2="46.493" y2="53.006" id="a" gradientUnits="userSpaceOnUse"><stop offset="0" stop-color="#f79810"/><stop offset="1" stop-color="#f8310e"/></linearGradient><linearGradient xlink:href="#a" id="b" x1="-239.283" y1="-72.357" x2="-239.283" y2="81.746" gradientUnits="userSpaceOnUse" gradientTransform="translate(290.647 59.634)"/></defs><path fill="url(#b)" d="M-14.087-14.087h128.175v128.175H-14.087z"/><path d="M10.906 53.407c-.167 0-.3.13-.321.314L10 58.164l.585 4.367c.022.185.154.313.321.313.162 0 .293-.128.32-.31v-.002.001l.693-4.369-.694-4.444c-.025-.184-.158-.313-.319-.313zm3.29-2.427c-.028-.191-.164-.323-.333-.323-.17 0-.31.136-.333.323l-.786 7.184.786 7.026c.022.188.163.324.333.324.168 0 .305-.132.332-.322l.895-7.028zm12.392-6.628a.617.617 0 00-.604.6l-.627 13.218.627 8.543a.617.617 0 00.604.597.621.621 0 00.606-.599v.002l.708-8.543-.708-13.218a.621.621 0 00-.606-.6zm-6.413 4.595c-.248 0-.45.197-.47.462l-.706 8.758.706 8.474a.48.48 0 00.47.46c.245 0 .447-.198.468-.46l.802-8.474-.802-8.76c-.021-.263-.223-.46-.468-.46zm12.932 18.362a.75.75 0 00.741-.736l.614-8.398-.613-17.599a.751.751 0 00-.742-.735.748.748 0 00-.742.736l-.545 17.597.545 8.402c.013.41.339.733.742.733zm13.344.04c.55 0 1.005-.454 1.015-1.011v.006-.006l.428-8.158-.428-20.325a1.027 1.027 0 00-1.015-1.011c-.552 0-1.007.453-1.016 1.012l-.382 20.317.382 8.17a1.025 1.025 0 001.016 1.006zm-6.723-.032a.884.884 0 00.878-.875v.006l.522-8.272-.523-17.725a.883.883 0 00-.878-.875.88.88 0 00-.88.875l-.463 17.726.465 8.27a.88.88 0 00.879.87zm-16.359-.078c.285 0 .515-.228.537-.528l.755-8.544-.755-8.128a.546.546 0 00-.537-.526.545.545 0 00-.538.53l-.665 8.124.665 8.543c.02.301.249.53.538.53zm-6.363-.468c.208 0 .377-.164.4-.391l.85-8.215-.848-8.524c-.025-.228-.194-.393-.402-.393-.21 0-.38.166-.401.393l-.747 8.524.747 8.213c.02.228.19.393.4.393zm26.07-26.616a.949.949 0 00-.948.944l-.423 17.08.423 8.217a.947.947 0 001.895-.006v.007l.475-8.218-.475-17.082a.949.949 0 00-.947-.942zm-13.24 27.171c.36 0 .656-.293.673-.667l.66-8.486-.66-16.242a.686.686 0 00-.674-.667.684.684 0 00-.674.667l-.585 16.242.586 8.49a.68.68 0 00.673.663zm7.378-.8v-.005l.568-8.345-.568-18.192a.817.817 0 00-.81-.806.815.815 0 00-.81.806l-.504 18.19.505 8.35a.814.814 0 00.81.801c.44 0 .794-.353.809-.803zM80.16 47.69a9.824 9.824 0 00-3.806.764c-.783-8.869-8.22-15.826-17.292-15.826-2.22 0-4.383.437-6.294 1.176-.742.288-.94.584-.947 1.157v31.231a1.19 1.19 0 001.062 1.163c.025.003 27.1.017 27.276.017 5.434 0 9.84-4.406 9.84-9.84 0-5.436-4.405-9.842-9.839-9.842zM49.81 34.934c-.592 0-1.077.485-1.086 1.081l-.444 22.167.445 8.046A1.091 1.091 0 0049.81 67.3c.59 0 1.075-.485 1.083-1.081v.01l.483-8.047-.483-22.168a1.094 1.094 0 00-1.083-1.08z" fill="#fff"/></svg>