<svg xmlns="http://www.w3.org/2000/svg" xmlns:xlink="http://www.w3.org/1999/xlink" width="100" height="100" viewBox="0 0 100 100"><defs><linearGradient id="a" x2="116.689" x1="116.689" y2="232.875" gradientTransform="matrix(.42895 0 0 .42941 -.032 0)" y1="0" gradientUnits="userSpaceOnUse"><stop stop-color="#111D2E" offset="0"/><stop stop-color="#051839" offset=".212"/><stop stop-color="#0A1B48" offset=".407"/><stop stop-color="#132E62" offset=".581"/><stop stop-color="#144B7E" offset=".738"/><stop stop-color="#136497" offset=".873"/><stop stop-color="#1387B8" offset="1"/></linearGradient><linearGradient xlink:href="#a" id="b" x1="-110.493" y1="-16.645" x2="-110.493" y2="82.67" gradientUnits="userSpaceOnUse" gradientTransform="translate(160.688 16.84)"/></defs><path fill="url(#b)" d="M0 0h100v100H0z"/><path fill="#fff" d="M44.395 37.456c0 .08 0 .158.004.232L32.93 54.348a12.849 12.849 0 00-5.49.97c-.78.318-1.51.708-2.194 1.159L.06 46.109s-.583 9.587 1.846 16.732l17.804 7.347c.894 3.995 3.634 7.499 7.678 9.184 6.615 2.764 14.242-.386 16.994-7.004a13.055 13.055 0 001.002-5.355l16.41-11.727c.133.004.27.008.403.008 9.82 0 17.802-8.006 17.802-17.838s-7.982-17.831-17.802-17.831c-9.817 0-17.803 7.999-17.803 17.831zm-2.752 33.762c-2.13 5.113-8.006 7.539-13.113 5.41a9.97 9.97 0 01-5.162-4.924l5.795 2.402a7.382 7.382 0 009.655-3.983 7.393 7.393 0 00-3.976-9.667l-5.991-2.483a9.967 9.967 0 017.395.113 9.954 9.954 0 015.414 5.447 9.995 9.995 0 01-.017 7.685M62.198 49.34c-6.538 0-11.86-5.33-11.86-11.884 0-6.547 5.322-11.88 11.86-11.88 6.541 0 11.864 5.333 11.864 11.88 0 6.553-5.323 11.884-11.864 11.884M53.31 37.438c0-4.93 3.99-8.928 8.907-8.928 4.92 0 8.911 3.999 8.911 8.928 0 4.93-3.991 8.925-8.911 8.925-4.917 0-8.907-3.995-8.907-8.925z"/></svg>