<svg xmlns="http://www.w3.org/2000/svg" xmlns:xlink="http://www.w3.org/1999/xlink" width="100" height="100" viewBox="0 0 100 100"><defs><linearGradient x1="500" y1="0" x2="500" y2="992.583" id="a" gradientUnits="userSpaceOnUse"><stop stop-color="#2AABEE" offset="0%"/><stop stop-color="#229ED9" offset="100%"/></linearGradient><linearGradient xlink:href="#a" id="b" x1="-238.142" y1="-78.066" x2="-238.142" y2="19.196" gradientUnits="userSpaceOnUse" gradientTransform="translate(289.804 79.728)"/></defs><path fill="url(#b)" d="M0 0h100v100H0z"/><path d="M24.125 46.544C40.23 39.527 50.97 34.9 56.345 32.665c15.343-6.381 18.53-7.49 20.609-7.526.457-.009 1.479.105 2.14.642.56.453.713 1.066.787 1.496.074.43.165 1.41.092 2.175-.831 8.736-4.429 29.936-6.26 39.721-.774 4.14-2.298 5.528-3.775 5.664-3.208.295-5.645-2.12-8.752-4.157-4.863-3.188-7.61-5.172-12.33-8.282-5.454-3.595-1.918-5.57 1.19-8.8.814-.844 14.95-13.702 15.224-14.869.034-.146.066-.69-.257-.976-.323-.288-.8-.19-1.144-.111-.488.11-8.256 5.245-23.304 15.403-2.205 1.514-4.203 2.252-5.992 2.213-1.973-.043-5.767-1.115-8.588-2.032-3.46-1.125-6.21-1.72-5.97-3.63.124-.995 1.494-2.012 4.11-3.052z" fill="#fff"/></svg>