<svg xmlns="http://www.w3.org/2000/svg" width="100" height="100" viewBox="0 0 100 100"><path fill="#f07355" d="M0 0h100v100H0z"/><g clip-rule="evenodd" fill="#fff" fill-rule="evenodd"><path d="M76.388 16.589c-2.948 6.297-8.404 7.456-8.404 7.456-5.456 1.389-7.364 3.507-7.364 3.507-5.456 5.51-1.154 12.194-1.154 12.194 11.78-2.691 16.081-12.423 16.081-12.423-.527 6.54-14.543 14.255-14.543 14.255 4.644 4.565 9.074 4.007 11.994 2.26 3.874-2.318 5.74-7.398 5.74-7.398 3.761-11.279-2.35-19.851-2.35-19.851zM57.073 35.652c.128 1.932 2.25 36.353-15.882 43.25 0 0 1.666.316 3.547.23 0 0 23.075-14.627 12.492-43.007 0 0-.043-.172-.157-.473zM47.415 15c5.798 9.79 8.946 18.563 9.658 20.652v-.086C55.65 20.481 47.415 15 47.415 15z"/><path d="M63.027 60.025c0 3.478-.826 6.713-2.478 9.718-1.652 3.006-3.875 5.324-6.695 6.956-2.806 1.631-5.897 2.447-9.245 2.447-3.361 0-6.438-.816-9.244-2.447-2.806-1.631-5.042-3.95-6.695-6.956-1.652-3.005-2.478-6.24-2.478-9.718 0-5.38 1.809-9.975 5.427-13.782 3.618-3.793 7.948-5.696 12.99-5.696 2.394 0 4.63.443 6.71 1.302.213-2.204.982-4.25 1.823-5.925-2.621-.959-5.456-1.431-8.518-1.431-7.28 0-13.304 2.69-18.076 8.086-4.33 4.88-6.51 10.662-6.51 17.303 0 6.712 2.293 12.58 6.866 17.59C31.49 82.495 37.388 85 44.609 85c7.194 0 13.091-2.505 17.663-7.528 4.587-5.024 6.866-10.892 6.866-17.59 0-3.592-.627-6.927-1.88-9.99a18.215 18.215 0 01-5.755 2.333c1.026 2.376 1.524 4.981 1.524 7.8z"/></g></svg>