<svg xmlns="http://www.w3.org/2000/svg" width="100" height="100" viewBox="0 0 100 100"><path fill="#2787f5" d="M0 0h100v100H0z"/><path clip-rule="evenodd" d="M25.284 29.219h-7.658c-2.188 0-2.626 1.03-2.626 2.165 0 2.028 2.596 12.086 12.089 25.388 6.328 9.085 15.244 14.01 23.357 14.01 4.868 0 5.47-1.095 5.47-2.978v-6.867c0-2.187.461-2.624 2.002-2.624 1.136 0 3.083.568 7.627 4.948 5.192 5.191 6.048 7.52 8.969 7.52h7.658c2.188 0 3.282-1.094 2.65-3.252-.69-2.151-3.169-5.272-6.458-8.972-1.785-2.11-4.463-4.38-5.274-5.516-1.136-1.46-.811-2.109 0-3.407 0 0 9.33-13.14 10.304-17.6.486-1.623 0-2.815-2.316-2.815H73.42c-1.947 0-2.845 1.03-3.332 2.165 0 0-3.894 9.49-9.411 15.655-1.785 1.784-2.596 2.352-3.57 2.352-.487 0-1.191-.568-1.191-2.19V32.033c0-1.947-.565-2.814-2.188-2.814H41.694c-1.217 0-1.949.903-1.949 1.76 0 1.845 2.758 2.27 3.043 7.462v11.275c0 2.471-.447 2.92-1.42 2.92-2.596 0-8.912-9.533-12.657-20.44-.734-2.12-1.47-2.977-3.427-2.977z" fill="#fff" fill-rule="evenodd"/></svg>