<svg xmlns="http://www.w3.org/2000/svg" xmlns:xlink="http://www.w3.org/1999/xlink" width="100" height="100" viewBox="0 0 100 100"><defs><linearGradient x1="0" y1="0" x2="1" y2="0" gradientUnits="userSpaceOnUse" gradientTransform="matrix(0 584.04474 584.04474 0 642 241.839)" spreadMethod="pad" id="a"><stop offset="0" stop-color="#25cf43"/><stop offset="1" stop-color="#61fd7d"/></linearGradient><linearGradient xlink:href="#a" id="b" x1="79.301" y1="-398.554" x2="79.301" y2="-976.642" gradientUnits="userSpaceOnUse" gradientTransform="translate(612.384 154.024)"/><clipPath clipPathUnits="userSpaceOnUse" id="c"><path d="M0 1066.861h1280.244V0H0z"/></clipPath></defs><path transform="translate(-59.923 141.408) scale(.17122)" fill="url(#b)" d="M349.978-825.883h584.045v584.045H349.978z"/><g clip-path="url(#c)" transform="matrix(.16667 0 0 -.16667 -57.908 139.518)"><path d="M743.243 495.42c-5.202 2.604-30.777 15.185-35.546 16.92-4.768 1.735-8.235 2.603-11.703-2.603s-13.437-16.92-16.472-20.39c-3.034-3.47-6.068-3.905-11.27-1.301-5.202 2.602-21.963 8.094-41.832 25.81-15.464 13.789-25.904 30.82-28.939 36.026-3.034 5.206-.323 8.02 2.282 10.613 2.34 2.329 5.201 6.073 7.802 9.11 2.601 3.037 3.468 5.206 5.202 8.676 1.734 3.47.867 6.508-.434 9.11-1.3 2.604-11.703 28.2-16.038 38.612-4.222 10.14-8.51 8.768-11.704 8.927-3.03.15-6.502.183-9.97.183-3.468 0-9.103-1.302-13.872-6.507-4.768-5.206-18.206-17.788-18.206-43.383 0-25.596 18.64-50.324 21.241-53.795 2.601-3.471 36.681-55.997 88.863-78.522 12.411-5.358 22.101-8.557 29.655-10.955 12.462-3.957 23.802-3.4 32.765-2.06 9.994 1.493 30.777 12.58 35.112 24.728 4.334 12.147 4.334 22.559 3.034 24.728-1.3 2.169-4.768 3.47-9.97 6.074m-94.915-129.554h-.07c-31.05.012-61.504 8.35-88.07 24.11l-6.32 3.75-65.49-17.174 17.48 63.833-4.115 6.544c-17.32 27.542-26.469 59.375-26.456 92.06.038 95.376 77.663 172.97 173.11 172.97 46.218-.017 89.664-18.034 122.334-50.73 32.67-32.697 50.652-76.16 50.634-122.38-.039-95.383-77.663-172.983-173.037-172.983m147.268 320.208c-39.306 39.339-91.578 61.014-147.27 61.036-114.75 0-208.143-93.357-208.189-208.108-.015-36.681 9.571-72.487 27.79-104.047L438.39 327.108l110.364 28.94c30.408-16.58 64.644-25.317 99.488-25.332h.088c114.74 0 208.14 93.369 208.187 208.12.021 55.61-21.613 107.9-60.92 147.239" fill="#fff" fill-rule="evenodd"/></g></svg>