<?xml version="1.0" encoding="UTF-8" standalone="no"?>
<svg
   xmlns:dc="http://purl.org/dc/elements/1.1/"
   xmlns:cc="http://creativecommons.org/ns#"
   xmlns:rdf="http://www.w3.org/1999/02/22-rdf-syntax-ns#"
   xmlns:svg="http://www.w3.org/2000/svg"
   xmlns="http://www.w3.org/2000/svg"
   xmlns:sodipodi="http://sodipodi.sourceforge.net/DTD/sodipodi-0.dtd"
   xmlns:inkscape="http://www.inkscape.org/namespaces/inkscape"
   width="100"
   height="100"
   viewBox="0 0 100 100"
   version="1.1"
   id="svg8"
   inkscape:version="1.0.2 (e86c870879, 2021-01-15, custom)"
   sodipodi:docname="diaspora.svg">
  <defs
     id="defs2" />
  <sodipodi:namedview
     id="base"
     pagecolor="#ffffff"
     bordercolor="#666666"
     borderopacity="1.0"
     inkscape:pageopacity="0.0"
     inkscape:pageshadow="2"
     inkscape:zoom="1.4"
     inkscape:cx="-10.950061"
     inkscape:cy="60.203051"
     inkscape:document-units="px"
     inkscape:current-layer="layer1"
     inkscape:document-rotation="0"
     showgrid="false"
     units="px"
     inkscape:window-width="1920"
     inkscape:window-height="1019"
     inkscape:window-x="0"
     inkscape:window-y="33"
     inkscape:window-maximized="1" />
  <metadata
     id="metadata5">
    <rdf:RDF>
      <cc:Work
         rdf:about="">
        <dc:format>image/svg+xml</dc:format>
        <dc:type
           rdf:resource="http://purl.org/dc/dcmitype/StillImage" />
        <dc:title />
      </cc:Work>
    </rdf:RDF>
  </metadata>
  <g
     inkscape:label="Calque 1"
     inkscape:groupmode="layer"
     id="layer1">
    <path
       style="fill:#000000;stroke-width:0.129776"
       d="m 63.572341,91.365171 c -2.79992,-3.90788 -7.1685,-10.00945 -9.70796,-13.55905 -2.59371,-3.62541 -4.70383,-6.45492 -4.81486,-6.45636 -0.11409,-0.001 -4.1948,5.48397 -9.65236,12.97506 -5.2001,7.13769 -9.49798,12.97761 -9.55085,12.97761 -0.1479,0 -18.74754,-13.10087 -18.79542,-13.23876 -0.0232,-0.0667 4.18158,-6.23913 9.34388,-13.71648 5.16229,-7.47735 9.38599,-13.71302 9.38599,-13.85704 0,-0.23224 -1.67284,-0.81955 -14.79447,-5.19405 -8.1369596,-2.71272 -14.87415964,-4.96331 -14.97154964,-5.00133 -0.13546,-0.0529 0.63922,-2.64486 3.29670004,-11.03026 1.91057,-6.02862 3.51698,-11.01035 3.56979,-11.07051 0.0528,-0.0602 7.1247796,2.20288 15.7154996,5.02896 8.59071,2.82609 15.69136,5.13829 15.77922,5.13821 0.0879,-8e-5 0.18725,-0.13154 0.22086,-0.29214 0.0336,-0.16059 0.10772,-7.4751 0.16469,-16.25445 0.057,-8.7793504 0.15083,-16.0354604 0.20858,-16.1246804 0.0827,-0.12775 2.49582,-0.1618 11.3554,-0.16023 6.18773,0.001 11.31489,0.0449 11.39369,0.0973 0.0993,0.0661 0.26905,4.89271 0.55331,15.7333604 0.46673,17.80034 0.47679,18.03888 0.76064,18.03888 0.11007,0 6.91844,-2.27894 15.12971,-5.06431 8.21127,-2.78538 14.96962,-5.01915 15.01855,-4.96394 0.16589,0.18716 6.900779,22.11303 6.81786,22.19595 -0.0453,0.0453 -6.89828,2.39222 -15.22886,5.2154 -11.45969,3.88361 -15.15648,5.18594 -15.1875,5.35035 -0.0229,0.12139 3.91794,6.01067 8.92895,13.34359 4.93348,7.21946 8.95186,13.18013 8.92974,13.24593 -0.0508,0.15114 -18.51013,13.7482 -18.6645,13.7482 -0.0627,0 -2.40481,-3.19735 -5.20473,-7.10524 z"
       id="path4093"
       inkscape:connector-curvature="0" />
  </g>
</svg>
