<?xml version="1.0" encoding="UTF-8" standalone="no"?>
<svg
   xmlns:dc="http://purl.org/dc/elements/1.1/"
   xmlns:cc="http://creativecommons.org/ns#"
   xmlns:rdf="http://www.w3.org/1999/02/22-rdf-syntax-ns#"
   xmlns:svg="http://www.w3.org/2000/svg"
   xmlns="http://www.w3.org/2000/svg"
   xmlns:sodipodi="http://sodipodi.sourceforge.net/DTD/sodipodi-0.dtd"
   xmlns:inkscape="http://www.inkscape.org/namespaces/inkscape"
   width="100"
   height="100"
   viewBox="0 0 100 100"
   version="1.1"
   id="svg8"
   inkscape:version="1.0.2 (e86c870879, 2021-01-15, custom)"
   sodipodi:docname="gitlab.svg">
  <defs
     id="defs2" />
  <sodipodi:namedview
     id="base"
     pagecolor="#ffffff"
     bordercolor="#666666"
     borderopacity="1.0"
     inkscape:pageopacity="0.0"
     inkscape:pageshadow="2"
     inkscape:zoom="1.4"
     inkscape:cx="-10.950061"
     inkscape:cy="60.203051"
     inkscape:document-units="px"
     inkscape:current-layer="layer1"
     inkscape:document-rotation="0"
     showgrid="false"
     units="px"
     inkscape:window-width="1920"
     inkscape:window-height="1019"
     inkscape:window-x="0"
     inkscape:window-y="33"
     inkscape:window-maximized="1" />
  <metadata
     id="metadata5">
    <rdf:RDF>
      <cc:Work
         rdf:about="">
        <dc:format>image/svg+xml</dc:format>
        <dc:type
           rdf:resource="http://purl.org/dc/dcmitype/StillImage" />
        <dc:title />
      </cc:Work>
    </rdf:RDF>
  </metadata>
  <g
     inkscape:label="Calque 1"
     inkscape:groupmode="layer"
     id="layer1">
    <g
       id="g930"
       transform="matrix(0.29618741,0,0,0.29618741,35.825318,31.382505)">
      <path
         id="path50_2_"
         class="st3"
         d="m 47.84514,218.34027 v 0 l 62.199,-191.322 h -124.307 z"
         style="fill:#e24329" />
      <path
         id="path66_6_"
         class="st4"
         d="m -101.38286,27.01927 v 0 l -18.941,58.126 c -1.714,5.278 0.137,11.104 4.661,14.394 l 163.509,118.801 z"
         style="fill:#fca326" />
      <path
         id="path74_2_"
         class="st3"
         d="m -101.38286,27.01927 h 87.12 l -37.494,-115.224 c -1.919,-5.895 -10.282,-5.895 -12.27,0 z"
         style="fill:#e24329" />
      <path
         id="path82_6_"
         class="st4"
         d="m 197.16514,27.01927 v 0 l 18.873,58.126 c 1.714,5.278 -0.137,11.104 -4.661,14.394 l -163.532,118.801 z"
         style="fill:#fca326" />
      <path
         id="path86_2_"
         class="st3"
         d="m 197.16514,27.01927 h -87.12 l 37.425,-115.224 c 1.919,-5.895 10.282,-5.895 12.27,0 z"
         style="fill:#e24329" />
      <polygon
         class="st5"
         points="293.026,434.983 355.225,243.662 442.346,243.662 "
         id="polygon9"
         style="fill:#fc6d26"
         transform="translate(-245.18086,-216.64273)" />
      <polygon
         class="st5"
         points="293.026,434.983 143.798,243.662 230.918,243.662 "
         id="polygon11"
         style="fill:#fc6d26"
         transform="translate(-245.18086,-216.64273)" />
    </g>
  </g>
</svg>
