<?xml version="1.0" encoding="UTF-8" standalone="no"?>
<svg
   xmlns:dc="http://purl.org/dc/elements/1.1/"
   xmlns:cc="http://creativecommons.org/ns#"
   xmlns:rdf="http://www.w3.org/1999/02/22-rdf-syntax-ns#"
   xmlns:svg="http://www.w3.org/2000/svg"
   xmlns="http://www.w3.org/2000/svg"
   xmlns:sodipodi="http://sodipodi.sourceforge.net/DTD/sodipodi-0.dtd"
   xmlns:inkscape="http://www.inkscape.org/namespaces/inkscape"
   width="100"
   height="100"
   viewBox="0 0 100 100"
   version="1.1"
   id="svg8"
   inkscape:version="1.0.2 (e86c870879, 2021-01-15, custom)"
   sodipodi:docname="snapchat.svg">
  <defs
     id="defs2" />
  <sodipodi:namedview
     id="base"
     pagecolor="#ffffff"
     bordercolor="#666666"
     borderopacity="1.0"
     inkscape:pageopacity="0.0"
     inkscape:pageshadow="2"
     inkscape:zoom="1.4"
     inkscape:cx="-10.950061"
     inkscape:cy="60.203051"
     inkscape:document-units="px"
     inkscape:current-layer="layer1"
     inkscape:document-rotation="0"
     showgrid="false"
     units="px"
     inkscape:window-width="1920"
     inkscape:window-height="1019"
     inkscape:window-x="0"
     inkscape:window-y="33"
     inkscape:window-maximized="1" />
  <metadata
     id="metadata5">
    <rdf:RDF>
      <cc:Work
         rdf:about="">
        <dc:format>image/svg+xml</dc:format>
        <dc:type
           rdf:resource="http://purl.org/dc/dcmitype/StillImage" />
        <dc:title />
      </cc:Work>
    </rdf:RDF>
  </metadata>
  <g
     inkscape:label="Calque 1"
     inkscape:groupmode="layer"
     id="layer1">
    <path
       d="M 99.6425,72.789021 C 98.947549,70.898346 97.624076,69.886579 96.116646,69.04855 95.833045,68.882478 95.572438,68.749619 95.350156,68.647421 94.900482,68.414919 94.440588,68.190082 93.983249,67.95247 89.284667,65.461378 85.615735,62.318769 83.070989,58.593629 a 21.221549,21.221549 0 0 1 -1.87279,-3.321456 c -0.217173,-0.620857 -0.206953,-0.973442 -0.0511,-1.295368 a 2.1078471,2.1078471 0 0 1 0.600417,-0.625967 c 0.80737,-0.533988 1.640289,-1.075641 2.204936,-1.441004 1.006657,-0.65151 1.803806,-1.16762 2.317354,-1.53298 1.929,-1.34902 3.278022,-2.78235 4.121161,-4.38432 a 8.7303195,8.7303195 0 0 0 0.431789,-7.25099 c -1.277483,-3.36234 -4.453306,-5.44975 -8.301085,-5.44975 a 11.433474,11.433474 0 0 0 -2.414443,0.2555 c -0.212062,0.046 -0.424124,0.0945 -0.631077,0.14819 0.03577,-2.29947 -0.01533,-4.72669 -0.219727,-7.11558 -0.72561,-8.39818 -3.666376,-12.80038 -6.732336,-16.31091 a 26.827145,26.827145 0 0 0 -6.844754,-5.5085 c -4.652594,-2.65717 -9.928599,-4.00619 -15.679828,-4.00619 -5.751229,0 -11.001684,1.34902 -15.659383,4.00619 a 26.730056,26.730056 0 0 0 -6.85753,5.51872 c -3.06596,3.51053 -6.00673,7.9204 -6.73234,16.31091 -0.2044,2.38889 -0.2555,4.82888 -0.22228,7.11558 -0.20695,-0.0537 -0.41646,-0.1022 -0.62852,-0.14819 a 11.433474,11.433474 0 0 0 -2.41445,-0.2555 c -3.85033,0 -7.03126,2.08741 -8.30364,5.44975 a 8.7405393,8.7405393 0 0 0 0.42157,7.25866 c 0.8457,1.60196 2.19472,3.0353 4.12372,4.38432 0.51099,0.35769 1.3107,0.8738 2.31735,1.53298 0.54421,0.352583 1.3388,0.868686 2.11807,1.38479 a 2.2739199,2.2739199 0 0 1 0.67962,0.682176 c 0.16352,0.3347 0.16863,0.69495 -0.0741,1.359242 a 21.024817,21.024817 0 0 1 -1.84213,3.252472 c -2.48854,3.640826 -6.05016,6.727226 -10.598,9.197878 -2.40934,1.277483 -4.9132,2.130842 -5.97095999,5.005179 -0.79715,2.169166 -0.27594,4.637263 1.75014999,6.717006 v 0 a 10.125331,10.125331 0 0 0 2.55497,1.934109 27.683059,27.683059 0 0 0 6.252,2.501312 4.1288254,4.1288254 0 0 1 1.26215,0.564648 c 0.73839,0.646406 0.63364,1.619848 1.6173,3.045519 a 7.102806,7.102806 0 0 0 1.84979,1.880455 c 2.06442,1.425672 4.38432,1.515095 6.8422,1.609629 2.22027,0.08431 4.73691,0.181403 7.61125,1.129295 1.19061,0.393465 2.42721,1.154845 3.86055,2.043973 3.44154,2.115512 8.152898,5.010289 16.037523,5.010289 7.884626,0 12.629198,-2.910107 16.096287,-5.033284 1.423117,-0.873798 2.652055,-1.627513 3.809455,-2.010758 2.874337,-0.950447 5.390979,-1.044981 7.611244,-1.129295 2.457878,-0.09453 4.777787,-0.183958 6.8422,-1.609629 a 7.1258007,7.1258007 0 0 0 2.105292,-2.299469 c 0.707726,-1.203389 0.689841,-2.043973 1.354132,-2.631616 a 3.9142082,3.9142082 0 0 1 1.185504,-0.541652 27.787812,27.787812 0 0 0 6.336317,-2.524307 9.9643682,9.9643682 0 0 0 2.682714,-2.100182 l 0.02555,-0.03066 c 1.900895,-2.033753 2.378669,-4.430311 1.599409,-6.545823 z m -7.008273,3.76602 c -4.274458,2.360789 -7.115581,2.107847 -9.325626,3.530963 -1.877901,1.208499 -0.76649,3.814565 -2.130842,4.754792 -1.676058,1.1574 -6.630137,-0.08176 -13.030328,2.031199 -5.27856,1.745041 -8.646005,6.762995 -18.14026,6.762995 -9.494254,0 -12.782496,-5.007734 -18.147928,-6.77577 -6.38741,-2.112957 -11.35171,-0.873799 -13.03032,-2.031198 -1.3618,-0.940228 -0.2555,-3.546294 -2.13085,-4.754793 -2.2126,-1.423116 -5.05372,-1.170174 -9.32562,-3.518188 -2.72104,-1.50232 -1.17784,-2.432328 -0.27083,-2.871782 15.4831,-7.496271 17.95375,-19.070268 18.06361,-19.928736 0.13286,-1.039872 0.28105,-1.857459 -0.86358,-2.915219 -1.1063,-1.02198 -6.01439,-4.05984 -7.37618,-5.01029 -2.25348,-1.57386 -3.24481,-3.14516 -2.51409,-5.07671 0.51099,-1.33625 1.75782,-1.83958 3.06596,-1.83958 a 5.6975746,5.6975746 0 0 1 1.22894,0.13797 c 2.4732,0.53654 4.87487,1.7757 6.26222,2.1104 a 2.2074908,2.2074908 0 0 0 0.51099,0.069 c 0.74094,0 1.00155,-0.37302 0.95045,-1.22127 -0.15841,-2.70571 -0.54165,-7.97916 -0.11497,-12.90769 0.58508,-6.78088 2.76958,-10.14066 5.36543,-13.11209 1.24682,-1.42822 7.105357,-7.6189 18.308884,-7.6189 11.203526,0 17.077394,6.16513 18.324217,7.58825 2.598401,2.97142 4.785452,6.3312 5.365429,13.11208 0.426679,4.92853 0.05876,10.20454 -0.114973,12.90769 -0.05877,0.89168 0.209507,1.22127 0.950447,1.22127 a 2.1870511,2.1870511 0 0 0 0.510993,-0.069 c 1.389902,-0.3347 3.79157,-1.57386 6.264777,-2.1104 a 5.6975746,5.6975746 0 0 1 1.228939,-0.13797 c 1.315808,0 2.554966,0.51099 3.06596,1.83958 0.73072,1.93155 -0.255497,3.50285 -2.511532,5.07671 -1.361797,0.95045 -6.269887,3.98575 -7.376188,5.01029 -1.147179,1.05776 -0.996436,1.875348 -0.863578,2.915219 0.109863,0.871244 2.577961,12.44524 18.063611,19.928736 0.914678,0.457339 2.457877,1.387347 -0.263162,2.902442 z"
       id="path10"
       style="stroke-width:0.255497" />
  </g>
</svg>
