<?xml version="1.0" encoding="UTF-8" standalone="no"?>
<svg
   xmlns:dc="http://purl.org/dc/elements/1.1/"
   xmlns:cc="http://creativecommons.org/ns#"
   xmlns:rdf="http://www.w3.org/1999/02/22-rdf-syntax-ns#"
   xmlns:svg="http://www.w3.org/2000/svg"
   xmlns="http://www.w3.org/2000/svg"
   xmlns:sodipodi="http://sodipodi.sourceforge.net/DTD/sodipodi-0.dtd"
   xmlns:inkscape="http://www.inkscape.org/namespaces/inkscape"
   width="100"
   height="100"
   viewBox="0 0 100 100"
   version="1.1"
   id="svg8"
   inkscape:version="1.0.2 (e86c870879, 2021-01-15, custom)"
   sodipodi:docname="soundcloud.svg">
  <defs
     id="defs2">
    <linearGradient
       gradientTransform="matrix(1.0754423,0,0,1.0754423,0,28.285211)"
       x1="46.492699"
       y1="0"
       x2="46.492699"
       y2="53.006302"
       id="SVGID_1_"
       gradientUnits="userSpaceOnUse">
      <stop
         id="stop2461"
         style="stop-color:#f79810;stop-opacity:1"
         offset="0" />
      <stop
         id="stop2463"
         style="stop-color:#f8310e;stop-opacity:1"
         offset="1" />
    </linearGradient>
  </defs>
  <sodipodi:namedview
     id="base"
     pagecolor="#ffffff"
     bordercolor="#666666"
     borderopacity="1.0"
     inkscape:pageopacity="0.0"
     inkscape:pageshadow="2"
     inkscape:zoom="1.4"
     inkscape:cx="-10.950061"
     inkscape:cy="60.203051"
     inkscape:document-units="px"
     inkscape:current-layer="layer1"
     inkscape:document-rotation="0"
     showgrid="false"
     units="px"
     inkscape:window-width="1920"
     inkscape:window-height="1019"
     inkscape:window-x="0"
     inkscape:window-y="33"
     inkscape:window-maximized="1" />
  <metadata
     id="metadata5">
    <rdf:RDF>
      <cc:Work
         rdf:about="">
        <dc:format>image/svg+xml</dc:format>
        <dc:type
           rdf:resource="http://purl.org/dc/dcmitype/StillImage" />
        <dc:title />
      </cc:Work>
    </rdf:RDF>
  </metadata>
  <g
     inkscape:label="Calque 1"
     inkscape:groupmode="layer"
     id="layer1">
    <path
       inkscape:connector-curvature="0"
       d="m 1.13244,54.259288 c -0.20864,0 -0.37425,0.161318 -0.40114,0.391469 L 0,60.205407 0.7313,65.664352 c 0.0269,0.230144 0.1925,0.390388 0.40114,0.390388 0.20218,0 0.36673,-0.159164 0.39899,-0.388234 v 0 -0.0016 0.0016 L 2.39824,60.205407 1.53143,54.649676 C 1.50023,54.420606 1.33355,54.259288 1.13244,54.259288 Z m 4.11249,-3.034892 c -0.0344,-0.238753 -0.20541,-0.403291 -0.41619,-0.403291 -0.21187,0 -0.38716,0.16992 -0.4162,0.403291 0,0.0023 -0.98295,8.981011 -0.98295,8.981011 l 0.98295,8.782065 c 0.028,0.235524 0.20326,0.405444 0.4162,0.405444 0.20971,0 0.3807,-0.165618 0.41512,-0.40329 L 6.36232,60.205407 Z M 20.7356,42.940261 c -0.40329,0 -0.73668,0.330165 -0.75603,0.749586 l -0.78293,16.52309 0.78293,10.678071 c 0.0204,0.417276 0.35274,0.746358 0.75603,0.746358 0.40114,0 0.73345,-0.330164 0.75711,-0.748512 v 0.003 L 22.3778,60.212709 21.49271,43.689611 C 21.46901,43.27019 21.13674,42.940025 20.7356,42.940025 Z m -8.01742,5.742864 c -0.30973,0 -0.56246,0.247347 -0.58719,0.577511 l -0.88186,10.947999 0.88186,10.592035 c 0.0237,0.32801 0.27746,0.575358 0.58719,0.575358 0.3065,0 0.55923,-0.247348 0.58612,-0.575358 L 14.30661,60.208635 13.3043,49.258482 c -0.0269,-0.32801 -0.27962,-0.575357 -0.58612,-0.575357 z m 16.16497,22.953169 c 0.50008,0 0.9066,-0.403292 0.92703,-0.919514 L 30.57805,60.218319 29.81126,38.220145 c -0.0204,-0.516215 -0.42695,-0.919506 -0.92703,-0.919506 -0.50438,0 -0.91198,0.404372 -0.92811,0.92058 0,7.56e-4 -0.68075,21.996026 -0.68075,21.996026 l 0.68075,10.502763 c 0.0161,0.511914 0.42373,0.916286 0.92703,0.916286 z m 16.68011,0.04944 c 0.68828,0 1.25612,-0.566756 1.26902,-1.263648 v 0.0076 -0.0076 L 47.36785,60.224741 46.83228,34.818499 c -0.0118,-0.695819 -0.58074,-1.263648 -1.26902,-1.263648 -0.68936,0 -1.25827,0.566756 -1.26902,1.264721 l -0.47857,25.396567 c 0,0.0161 0.47857,10.212403 0.47857,10.212403 0.0108,0.690436 0.58074,1.257192 1.26902,1.257192 z m -8.4035,-0.03976 c 0.59902,0 1.08189,-0.480724 1.09802,-1.093726 v 0.0076 L 38.9095,60.220513 38.25671,38.063176 c -0.0161,-0.613001 -0.49901,-1.092653 -1.09803,-1.092653 -0.60332,0 -1.0862,0.479652 -1.0991,1.092653 l -0.57966,22.158411 0.58073,10.337151 c 0.0129,0.606554 0.49578,1.087272 1.09911,1.087272 z M 16.7113,71.549184 c 0.35597,0 0.64419,-0.284992 0.67107,-0.660322 L 18.32661,60.208643 17.38237,50.048941 c -0.0258,-0.375323 -0.31403,-0.658167 -0.67107,-0.658167 -0.36135,0 -0.64957,0.284991 -0.67215,0.662468 l -0.83132,10.155401 0.83132,10.679145 c 0.0237,0.376404 0.3108,0.661396 0.67215,0.661396 z M 8.75733,70.96415 c 0.26025,0 0.47104,-0.205418 0.50115,-0.489336 L 10.31887,60.206497 9.25956,49.55101 c -0.0312,-0.284991 -0.24198,-0.490401 -0.50223,-0.490401 -0.26349,0 -0.47427,0.206491 -0.50116,0.490401 0,0.0015 -0.93348,10.655487 -0.93348,10.655487 l 0.93348,10.266171 c 0.0258,0.284992 0.2366,0.491482 0.50116,0.491482 z M 41.34538,37.694262 c -0.65065,0 -1.17224,0.517289 -1.18514,1.179757 l -0.52912,21.348608 0.52912,10.272627 c 0.0129,0.653866 0.53342,1.171154 1.18514,1.171154 0.64956,0 1.16793,-0.516214 1.18299,-1.178682 v 0.0086 L 43.12201,60.223673 42.52837,38.871845 c -0.0151,-0.660322 -0.53343,-1.177603 -1.18299,-1.177603 z M 24.79432,71.657806 c 0.44954,0 0.82056,-0.366726 0.84207,-0.834542 L 26.46233,60.216173 25.63639,39.913971 c -0.0226,-0.468888 -0.39253,-0.834542 -0.84207,-0.834542 -0.45384,0 -0.82379,0.366727 -0.84315,0.834542 0,7.56e-4 -0.7313,20.302202 -0.7313,20.302202 l 0.73238,10.611393 c 0.0183,0.463514 0.38823,0.83024 0.84207,0.83024 z m 9.22299,-1.001234 v -0.0053 l 0.7098,-10.431879 -0.7098,-22.73915 c -0.0172,-0.564609 -0.46244,-1.00769 -1.01199,-1.00769 -0.55278,0 -0.99801,0.442008 -1.01306,1.00769 l -0.63021,22.738076 0.63128,10.437173 c 0.0151,0.559226 0.46029,1.001234 1.01199,1.001234 0.55063,0 0.99371,-0.442008 1.01199,-1.004462 z M 87.70124,47.111907 c -1.68522,0 -3.293,0.340921 -4.75776,0.954996 C 81.96483,36.981247 72.66871,28.285219 61.32925,28.285219 c -2.77464,0 -5.47939,0.546323 -7.86794,1.470131 -0.92811,0.359198 -1.17546,0.729146 -1.18406,1.44647 v 39.03855 c 0.01,0.752814 0.59364,1.379792 1.32817,1.454 0.0312,0.003 33.87536,0.02041 34.09475,0.02041 C 94.49266,71.71478 100,66.20744 100,59.413869 100,52.620304 94.49374,47.111885 87.70124,47.111885 Z M 49.76286,31.167404 c -0.73882,0 -1.34537,0.606546 -1.35613,1.351831 l -0.55493,27.708768 0.55601,10.056459 c 0.01,0.734528 0.61623,1.340002 1.35505,1.340002 0.73668,0 1.34323,-0.605474 1.35399,-1.350758 v 0.01186 L 51.72017,60.228033 51.11685,32.517111 c -0.0108,-0.743131 -0.61731,-1.349677 -1.35399,-1.349677 z"
       id="path2465"
       style="fill:url(#SVGID_1_);stroke-width:1.07544"
       sodipodi:nodetypes="scccsccccccscscccscccccccsccccccscccscccsscccscccsscccccscccscccccscccccscccscccsscccscccsccccsccccccscccscccsccccscccsccscsccccsssccccscccccc" />
  </g>
</svg>
