<?xml version="1.0" encoding="UTF-8" standalone="no"?>
<svg
   xmlns:dc="http://purl.org/dc/elements/1.1/"
   xmlns:cc="http://creativecommons.org/ns#"
   xmlns:rdf="http://www.w3.org/1999/02/22-rdf-syntax-ns#"
   xmlns:svg="http://www.w3.org/2000/svg"
   xmlns="http://www.w3.org/2000/svg"
   xmlns:sodipodi="http://sodipodi.sourceforge.net/DTD/sodipodi-0.dtd"
   xmlns:inkscape="http://www.inkscape.org/namespaces/inkscape"
   width="100"
   height="100"
   viewBox="0 0 100 100"
   version="1.1"
   id="svg8"
   inkscape:version="1.0.2 (e86c870879, 2021-01-15, custom)"
   sodipodi:docname="vk.svg">
  <defs
     id="defs2" />
  <sodipodi:namedview
     id="base"
     pagecolor="#ffffff"
     bordercolor="#666666"
     borderopacity="1.0"
     inkscape:pageopacity="0.0"
     inkscape:pageshadow="2"
     inkscape:zoom="1.4"
     inkscape:cx="-10.950061"
     inkscape:cy="60.203051"
     inkscape:document-units="px"
     inkscape:current-layer="layer1"
     inkscape:document-rotation="0"
     showgrid="false"
     units="px"
     inkscape:window-width="1920"
     inkscape:window-height="1019"
     inkscape:window-x="0"
     inkscape:window-y="33"
     inkscape:window-maximized="1" />
  <metadata
     id="metadata5">
    <rdf:RDF>
      <cc:Work
         rdf:about="">
        <dc:format>image/svg+xml</dc:format>
        <dc:type
           rdf:resource="http://purl.org/dc/dcmitype/StillImage" />
        <dc:title />
      </cc:Work>
    </rdf:RDF>
  </metadata>
  <g
     inkscape:label="Calque 1"
     inkscape:groupmode="layer"
     id="layer1">
    <g
       id="g853"
       transform="matrix(2.0833333,0,0,2.0833333,-79.464283,-48.214284)">
      <path
         d="m 38.142857,46.142857 c 0,-10.8423 0,-16.26346 3.36827,-19.63173 3.36827,-3.36827 8.78943,-3.36827 19.63173,-3.36827 h 2 c 10.8423,0 16.2635,0 19.6317,3.36827 3.3683,3.36827 3.3683,8.78943 3.3683,19.63173 v 2 c 0,10.8423 0,16.2635 -3.3683,19.6317 -3.3682,3.3683 -8.7894,3.3683 -19.6317,3.3683 h -2 c -10.8423,0 -16.26346,0 -19.63173,-3.3683 -3.36827,-3.3682 -3.36827,-8.7894 -3.36827,-19.6317 z"
         fill="#2787f5"
         id="path2" />
      <path
         clip-rule="evenodd"
         d="m 51.143757,38.142857 h -3.5008 c -1.00024,0 -1.2003,0.4708 -1.2003,0.9898 0,0.9271 1.18686,5.525 5.5262,11.6061 2.8929,4.1529 6.9687,6.4041 10.6776,6.4041 2.2253,0 2.5006,-0.5 2.5006,-1.3612 v -3.1388 c 0,-1 0.2108,-1.1996 0.9154,-1.1996 0.5193,0 1.4094,0.2596 3.4864,2.2619 2.3737,2.3731 2.765,3.4377 4.1001,3.4377 h 3.5008 c 1.0003,0 1.5004,-0.5 1.2119,-1.4867 -0.3157,-0.9834 -1.449,-2.4103 -2.9528,-4.1016 -0.816,-0.9641 -2.0399,-2.0023 -2.4108,-2.5215 -0.5192,-0.6674 -0.3709,-0.9641 0,-1.5573 0,0 4.2652,-6.007 4.7103,-8.0463 0.2225,-0.7417 0,-1.2866 -1.0587,-1.2866 h -3.5008 c -0.8901,0 -1.3005,0.4708 -1.5231,0.9898 0,0 -1.7802,4.3384 -4.3022,7.1565 -0.816,0.8157 -1.1869,1.0753 -1.632,1.0753 -0.2225,0 -0.5446,-0.2596 -0.5446,-1.0011 v -6.9339 c 0,-0.89 -0.2583,-1.2866 -1.0002,-1.2866 h -5.5013 c -0.5562,0 -0.8908,0.413 -0.8908,0.8045 0,0.8436 1.261,1.0382 1.391,3.4113 v 5.1542 c 0,1.13 -0.2042,1.3349 -0.6492,1.3349 -1.1868,0 -4.0737,-4.3578 -5.7859,-9.3442 -0.3355,-0.9692 -0.6721,-1.3607 -1.5668,-1.3607 z"
         fill="#ffffff"
         fill-rule="evenodd"
         id="path4" />
    </g>
  </g>
</svg>
